<?xml version="1.0" standalone="no"?>
<!DOCTYPE svg PUBLIC "-//W3C//DTD SVG 1.1//EN" "http://www.w3.org/Graphics/SVG/1.1/DTD/svg11.dtd" >
<svg xmlns="http://www.w3.org/2000/svg" xmlns:xlink="http://www.w3.org/1999/xlink" version="1.1">
<metadata>
Created by FontForge 20161013 at Mon Aug 27 16:04:22 2012
 By ,,,
This font is in the public domain.
</metadata>
<defs>
<font id="Janitor" horiz-adv-x="591" >
  <font-face 
    font-family="Janitor"
    font-weight="400"
    font-stretch="normal"
    units-per-em="1000"
    panose-1="2 0 6 3 0 0 0 0 0 0"
    ascent="800"
    descent="-200"
    x-height="449"
    cap-height="716"
    bbox="-57.7143 -201 1297 971"
    underline-thickness="50"
    underline-position="-250"
    unicode-range="U+0020-2265"
  />
<missing-glyph horiz-adv-x="420" 
 />
    <glyph glyph-name=".notdef" horiz-adv-x="420" 
 />
    <glyph glyph-name=".null" horiz-adv-x="0" 
 />
    <glyph glyph-name="nonmarkingreturn" horiz-adv-x="333" 
 />
    <glyph glyph-name="space" unicode=" " horiz-adv-x="420" 
 />
    <glyph glyph-name="exclam" unicode="!" horiz-adv-x="353" 
d="M27 53h-1q3 2 11 5t22 4t27.5 -2t28 -16t23.5 -35t9 -31t-8 -26q-36 -76 -104 -10q-19 19 -23 28t-2 36q3 37 17 47zM237 777h-2q7 10 31 5.5t44 -19.5q21 -15 27 -34t2.5 -35t-14 -57t-15.5 -77q-7 -47 -38.5 -137.5t-31.5 -107.5q0 -23 -31 -59t-66 9
q-20 26 -20.5 59.5t8.5 59.5t26 66.5t23 61.5q5 18 12 37.5t9 28.5t6 32t10 66q13 92 20 101z" />
    <glyph glyph-name="quotedbl" unicode="&#x22;" horiz-adv-x="382" 
d="M95 748l1 1q19 14 58 -4q51 -25 31 -114l-19 -87q-7 -32 -24 -69.5t-34 -56.5q-15 -17 -37.5 -16t-40.5 20q-21 22 -20 48.5t25 75.5q27 54 29 108q4 72 31 94zM272 748l1 1q19 14 58 -4q51 -25 31 -114l-19 -87q-7 -32 -24 -69.5t-34 -56.5q-15 -17 -37.5 -16t-40.5 20
q-21 22 -20 48.5t25 75.5q27 54 29 108q4 72 31 94z" />
    <glyph glyph-name="numbersign" unicode="#" horiz-adv-x="840" 
d="M505 694l-4 2q0 4 17.5 44.5t17.5 49.5q0 8 11.5 10t59.5 2h71l-15 -30q-16 -33 -30.5 -79.5t-9.5 -49.5q3 -2 25 0.5t55 -10.5q23 -10 28 -16t5 -26q0 -33 -22.5 -46.5t-87.5 -18.5l-57 -4l-6 -38q-6 -39 -4 -41t55.5 -2.5t114.5 -8t81 -25.5q17 -16 15 -34.5t-22 -33.5
q-14 -10 -33 -12.5t-81 -3.5q-146 -1 -160 -6q-9 -3 -11 -18q-1 -4 -1 -6q-11 -65 -28 -123.5t-29 -74.5q-23 -29 -55 -21.5t-43 45.5q-3 10 2.5 39.5t13.5 65.5t10 53l2 25l-53 -2q-54 -2 -61 -11q-14 -16 -22 -61t-16 -79.5t-24 -34.5q-22 0 -43.5 11.5t-32.5 28.5
q-11 19 -11.5 28.5t7.5 43.5q11 48 8 53q-4 6 -44 2q-29 -3 -37.5 -0.5t-25.5 18.5q-22 21 -25 47.5t15 45.5q8 9 21 10.5t59 -1.5q67 -5 75 4q10 13 24 52.5t9 42.5t-77.5 -3t-88.5 0q-17 6 -29 28t-10 41q2 12 9 18t29 13q33 11 115.5 13.5t92.5 8.5q5 3 9 14.5t11 34
t14 40.5l34 92h60q54 0 55 -5l-4 -11q-5 -10 -12.5 -33t-16 -55t-12.5 -44q-7 -22 2.5 -27t49.5 0q27 4 34.5 8.5t15.5 24.5q11 29 11 36zM441 509h1q-4 9 -50.5 9.5t-49.5 -8.5q-31 -89 -28 -92t54 4l51 8l13 35q13 35 9 44z" />
    <glyph glyph-name="dollar" unicode="$" horiz-adv-x="552" 
d="M269 632l13 83q5 34 19.5 45.5t37.5 11.5q49 0 64 -2.5t15 -15.5q0 -10 -8 -36l-11 -85q32 0 50 -1.5t30 -4t16 -7.5t4 -13q0 -29 -18.5 -46.5t-44.5 -17.5q-4 0 -11.5 0.5t-9.5 0.5q-14 0 -18.5 -11.5t-14.5 -63.5q-4 -22 -4 -25q0 -12 14 -20.5t29 -8.5q9 0 13 -3
l12 -9t23 -12q19 -7 46 -52t27 -68q0 -44 -21 -84q-11 -21 -72 -77.5t-72 -56.5l-2 -3q-6 0 -34.5 -17.5t-36.5 -17.5q-17 0 -35 -37t-19 -79q-1 -26 -22 -41.5t-49 -15.5q-19 0 -40 23.5t-21 46.5q0 5 6 32.5t6 33.5q0 16 -23 24q-14 5 -46.5 46.5t-41.5 66.5
q-11 30 -11 84q0 37 11.5 47t52.5 10q16 0 19 -7l15 -52q10 -35 27 -64.5t26 -29.5q6 0 10 10.5t11 42.5q10 48 20 86q14 60 14 68q0 16 -11 20t-51 8q-22 2 -37.5 7t-20.5 9t-9.5 7t-8.5 3q-17 0 -37 34.5t-20 50.5q0 28 35 81.5t49 53.5q5 0 51 21t58 24q5 1 57 3z
M400 257l1 1q0 17 -12.5 30.5t-28.5 13.5q-11 0 -26.5 -62t-15.5 -77q0 -7 3 -7q7 0 43 38t36 63zM250 491l1 -1q0 27 -6 27q-10 -1 -38.5 -21.5t-31.5 -29.5q-2 -8 -2 -10q0 -15 43 -15q34 0 34 50z" />
    <glyph glyph-name="percent" unicode="%" horiz-adv-x="884" 
d="M437 161l-2 17q15 30 42 64t48 55t56.5 55t45.5 44l10 8q32 26 98 28q59 0 100.5 -35.5t41.5 -109.5q0 -60 -56.5 -123t-126.5 -100.5t-116 -37.5q-54 0 -95 34.5t-46 100.5zM622 671l3 -2q36 62 70 62q23 0 51 -30.5t28 -51.5q0 -16 -15 -35t-61 -69.5t-92 -110.5
l-34 -35q-10 -11 -40 -40.5t-45.5 -46.5t-38.5 -43.5t-38 -52t-24 -52.5q-24 -28 -56 -73t-51 -65t-40 -20q-20 0 -43 24.5t-23 58.5q0 18 29 50q66 73 96.5 108.5t40 49.5t16 24.5t38.5 51.5t93 113l90 117q32 42 46 68zM784 319l1 -1q0 5 0.5 10t0.5 6q0 7 -25 7
q-37 0 -37 -11q-33 -8 -100.5 -64.5t-67.5 -96.5q0 -21 15 -21q25 0 71 29q32 20 87 75t55 67zM44 483l-2 17q15 30 42 64t48 55t56.5 55t45.5 44l10 8q32 26 98 28q59 0 100.5 -35.5t41.5 -109.5q0 -60 -56.5 -123t-126.5 -100.5t-116 -37.5q-54 0 -95 34.5t-46 100.5z
M391 641l1 -1q0 5 0.5 10t0.5 6q0 7 -25 7q-37 0 -37 -11q-33 -8 -100.5 -64.5t-67.5 -96.5q0 -21 15 -21q25 0 71 29q32 20 87 75t55 67z" />
    <glyph glyph-name="ampersand" unicode="&#x26;" horiz-adv-x="593" 
d="M182 786l5 1q16 7 61.5 7t75.5 -7q35 -7 73 -31q23 -14 35 -27.5t25 -38.5q14 -27 17.5 -43.5t2.5 -47.5q-1 -26 -4.5 -42t-7.5 -20.5t-7.5 -9t-3.5 -11.5q0 -9 -41 -52q-53 -56 -59.5 -66.5t3.5 -29.5q11 -22 20 -22t34.5 27.5t34.5 46.5q19 39 72 39q16 0 24.5 -4.5
t20.5 -20.5q20 -26 22 -52q2 -19 -5.5 -31.5t-42.5 -49.5q-50 -54 -60 -54q-9 0 -22 -15q-14 -15 -5 -27q39 -56 32 -75q-6 -15 -28 -23.5t-47 -4.5q-18 3 -25.5 8.5t-13.5 19.5q-8 20 -13 22.5t-18 -8.5q-17 -14 -73 -28t-95 -14q-33 0 -49 4.5t-47 21.5q-44 25 -54.5 44
t-6.5 66q4 48 30 93q38 63 105 98q24 12 31 19.5t5.5 13t-11 22t-14.5 33.5q-8 26 -15 39t-13 37l-15 59q-7 29 -2 54q4 20 26.5 46t42.5 34zM334 679h1q-30 15 -61 6t-31 -33q0 -12 11 -53.5t20 -63.5q5 -12 9 -16.5t9.5 -2t11 11.5t14.5 27q33 68 36 90.5t-20 33.5z
M280 310v1q-19 30 -22 30q-8 -3 -20 -9.5t-36.5 -27.5t-35.5 -44q-15 -34 -15 -38q0 -5 29 -1q26 3 59.5 17.5t46.5 28.5q8 9 7.5 15.5t-13.5 27.5z" />
    <glyph glyph-name="quotesingle" unicode="'" horiz-adv-x="201" 
d="M95 748l1 1q19 14 58 -4q51 -25 31 -114l-19 -87q-7 -32 -24 -69.5t-34 -56.5q-15 -17 -37.5 -16t-40.5 20q-21 22 -20 48.5t25 75.5q27 54 29 108q4 72 31 94z" />
    <glyph glyph-name="parenleft" unicode="(" horiz-adv-x="480" 
d="M385 800l-2 3q33 0 42.5 -3.5t23.5 -20.5q20 -24 20 -31q0 -8 -23.5 -27.5t-51.5 -34.5q-107 -57 -168 -143q-100 -142 -88 -350q5 -69 14 -105t34 -85q24 -46 26 -65.5t-17 -32.5q-29 -19 -69 2t-62 67q-18 36 -34 114t-20 154q-3 49 -0.5 77.5t15.5 88.5q16 76 25 98.5
t11 30.5q4 18 28.5 52.5t33.5 34.5q10 0 25.5 16.5t15.5 26.5q0 12 41.5 48t55.5 36q13 0 25 12t35.5 24.5t63.5 12.5z" />
    <glyph glyph-name="parenright" unicode=")" horiz-adv-x="558" 
d="M331 725l-2 -2q8 13 15 15t27 -1q25 -4 43 -14.5t30 -30t19.5 -37.5t18.5 -48t21 -50q15 -32 15 -42q0 -6 14.5 -51t13.5 -112q-2 -57 -11.5 -111.5t-20.5 -67.5q-9 -11 -9 -18q0 -12 -62 -69t-98 -77q-54 -31 -145.5 -73.5t-113.5 -46.5q-24 -4 -49 13q-18 12 -21.5 21
t-5.5 43q-2 32 0.5 40t13.5 12q24 9 62.5 25t125 64t134.5 95q35 34 48 62.5t25 95.5q15 86 -74 251q-9 17 -19 58q-5 25 -4 34.5t9 21.5z" />
    <glyph glyph-name="asterisk" unicode="*" horiz-adv-x="498" 
d="M219 777l1 -3q4 10 11 13t26 3t28 -5t23 -22q10 -12 19 -24.5t11.5 -16.5t9 -8.5t14 -5t22.5 -0.5q27 0 35 -4t23 -26l21 -30l-35 -37l18 -15q30 -26 39 -49.5t-4.5 -36t-45.5 -8.5t-32 0t32 -43q26 -32 28 -47.5t-17 -35.5q-14 -15 -42 -6t-50 36q-24 29 -33 29t-25 -42
q-15 -41 -24.5 -48.5t-29.5 2.5q-11 6 -19.5 18t-12 23t-7.5 18.5t-9 6.5q-8 -2 -46 -49q-25 -31 -35.5 -39t-25.5 -8q-24 0 -48 21t-28 45q-3 18 6.5 32.5t66.5 77.5l21 23l-19 15q-19 15 -32 37t-13 40q0 17 16.5 30t35.5 11q13 -1 14 6t-6 53q-3 18 0 24t19 14
q23 12 49 4q27 -10 35 -16q4 -3 9 0t6 9t-2 12q-4 5 2 22z" />
    <glyph glyph-name="plus" unicode="+" horiz-adv-x="651" 
d="M341 734v-6q19 14 66 -9q19 -10 25.5 -17.5t8 -29.5t-5.5 -61l-17 -143h82q82 0 89 -10q7 -11 24 -13t24 -19.5t-2 -35.5q-9 -20 -17 -24q-10 -6 -75.5 -15t-99.5 -9q-15 0 -22 -1t-15 -2t-10.5 -7t-6 -12t-5.5 -21t-4.5 -30t-6.5 -43t-9 -55q-5 -25 -16.5 -47t-20.5 -22
q-28 0 -54 30.5t-26 62.5q0 22 8 38t12 45l5 38l-50 -4q-27 -2 -62.5 -7.5t-48 -7.5t-35.5 0q-38 8 -59 52.5t6 61.5q10 6 27.5 9.5t58 8t72.5 9.5q12 2 43.5 6t42.5 6l35 5l9 82q4 36 9 89q7 65 10 83.5t11 24.5z" />
    <glyph glyph-name="comma" unicode="," horiz-adv-x="321" 
d="M144 179h1q15 22 30 59t29.5 47.5t49.5 6.5q28 -3 36 -7.5t8 -17.5t7 -17q9 -5 7.5 -32.5t-11.5 -35.5q-9 -8 -41.5 -55.5t-32.5 -53.5q0 -5 -33 -47q-66 -84 -92 -103.5t-53 -3.5q-22 12 -32 45q-7 22 -6 29t13 20q23 23 120 166z" />
    <glyph glyph-name="hyphen" unicode="-" horiz-adv-x="432" 
d="M111 397l1 1q41 -1 91.5 4.5t82 10.5t60.5 3t43 -16q64 -64 6 -106q-14 -11 -91 -24t-169 -20q-53 -5 -75.5 4.5t-38.5 40.5q-9 18 -10 28t3 29q8 29 25.5 37.5t71.5 7.5z" />
    <glyph glyph-name="period" unicode="." horiz-adv-x="171" 
d="M40 246l-1 1q13 8 21.5 10t22.5 -1.5t19 -3.5q16 -1 35.5 -29t21.5 -51t-6 -37.5t-34 -31.5q-20 -14 -33 -12t-47 26q-19 13 -23.5 21.5t-5.5 32.5q-1 34 5 48t25 27z" />
    <glyph glyph-name="slash" unicode="/" horiz-adv-x="480" 
d="M194 187l-3 2q0 -2 -32 -51t-32 -55q0 -9 -16.5 -24.5t-26.5 -15.5q-15 0 -35 11.5t-20 19.5q0 10 -11 19q-10 8 -10 31.5t10 31.5q11 9 11 16t20 32q21 28 84.5 135.5t75.5 135.5q10 23 23.5 48t21.5 39t8 17q0 2 12 19.5t25.5 39t16.5 31.5q3 12 10.5 21.5t11.5 35.5
q5 32 28 46q24 14 30 14q11 1 32 -15t21 -26q0 -12 10.5 -25t9.5 -31.5t-24 -54.5q-18 -29 -29 -50t-31 -52q-27 -41 -92.5 -164.5t-81.5 -149.5q-17 -28 -17 -31z" />
    <glyph glyph-name="zero" unicode="0" horiz-adv-x="722" 
d="M318 660v-4q27 16 64 33.5t89 32.5t74 3l84 -48l26 -27q27 -28 38.5 -54t17.5 -73q6 -46 -2.5 -104.5t-27.5 -99.5q-10 -22 -87.5 -97t-108.5 -93q-61 -35 -142 -55t-137 -15q-41 4 -52 11t-17 7q-17 1 -62.5 49t-45.5 66q0 10 -9 19q-10 10 -10.5 77t8.5 101
q7 30 34 69.5t54 60.5q93 73 212 141zM591 571l2 -1q-11 13 -22 11q-116 -10 -143 -15.5t-82 -32.5q-136 -66 -193 -148q-19 -28 -22.5 -42t-3.5 -60q0 -47 2.5 -58t18.5 -25q28 -25 67.5 -26t107.5 22q83 28 156.5 81.5t96.5 103.5q26 55 30 111t-15 79z" />
    <glyph glyph-name="one" unicode="1" horiz-adv-x="683" 
d="M359 630l2 -5q-3 0 -28.5 -17.5t-33.5 -17.5q-12 0 -23 -13q-14 -16 -43 -14t-48 19q-14 14 -27 35.5t-13 31.5q0 9 16.5 25t25.5 16q13 0 64 23t96 49l57 33l83 1q62 1 73 -1t12 -14q3 -43 -15 -68q-26 -37 -68 -149t-43 -148q-2 -37 -14 -83.5t-20.5 -74t-3.5 -30.5
q7 -5 76 4q71 9 104.5 3t59.5 -32q42 -42 16 -61q-24 -17 -123 -31q-85 -12 -182 -27.5t-145 -22t-79 -6.5q-26 0 -59 12t-43 25q-6 8 -16 35q-6 17 -5.5 25t7.5 19q11 17 24 21t39 -2q29 -7 73 -7t59 7q20 9 42 61.5t25 97.5q3 44 16 87.5t24.5 70t11.5 29.5q0 8 11 25
q5 9 10 26t6.5 29t-1.5 14z" />
    <glyph glyph-name="two" unicode="2" horiz-adv-x="650" 
d="M317 781l1 -1q19 4 43.5 4t27.5 -4t11.5 -6t26 -10.5t38.5 -28.5q20 -19 28 -32.5t13 -35.5q8 -42 8 -54q0 -38 -38.5 -109t-83.5 -115q-24 -23 -43 -52.5t-58 -67.5q-47 -45 -47 -51q0 -5 62 -2t108 11q126 20 166 7q25 -8 42.5 -30.5t17.5 -45.5q0 -15 -4.5 -23
t-20.5 -12t-34 -5.5t-57.5 -6t-78.5 -10.5q-58 -9 -211.5 -21.5t-166.5 -2.5q-11 9 -21 11q-21 3 -31 31.5t-3 66.5q4 21 24 37.5t36 11.5q20 -6 124.5 113t130.5 166q20 36 29 51q13 19 17 52.5t-6 37.5q-16 7 -56 -17.5t-78 -65.5q-28 -30 -38 -36t-25 -3q-18 4 -44 21.5
t-30 29.5q-15 39 46 89q116 94 175 108z" />
    <glyph glyph-name="three" unicode="3" horiz-adv-x="568" 
d="M190 722l-1 2q17 0 56.5 18t106.5 32q84 18 140 3q12 -3 39 -41q19 -26 23 -39.5t4 -54.5q0 -46 -10 -74.5t-40 -69.5q-17 -23 -40.5 -44t-31.5 -22q-5 0 -26 -17l-21 -17l21 -11q43 -22 78.5 -83.5t11.5 -93.5q-10 -13 -42.5 -30.5t-48.5 -17.5q-20 0 -106 -33.5
t-133 -59.5q-7 -4 -29 -5.5t-48.5 0.5t-49.5 17t-29 40q-4 18 -2 27.5t14 28.5q12 17 17.5 20.5t12.5 -1.5q16 -13 64.5 1.5t109 41.5t76.5 31q23 7 23 12q0 9 -58.5 23t-72.5 9q-24 -10 -62 22t-31 72q5 27 15 36t35 9q67 0 150 51.5t114 112.5q13 26 11 28q-7 7 -60.5 -8
t-93.5 -35q-3 -1 -16.5 -8.5t-16 -8.5t-13.5 -5t-15 -3t-13.5 1t-15.5 4.5t-15 10.5t-18 16q-29 31 -15.5 72t52.5 41z" />
    <glyph glyph-name="four" unicode="4" horiz-adv-x="612" 
d="M350 658l-2 2q4 0 30 14t49 13q17 0 25 -5t20 -24q16 -25 18 -50t-5 -41t-15 -31t-8 -20q0 -7 -22 -44q-19 -31 -33.5 -79.5t-7.5 -55.5t60 2q65 11 95.5 -2t43.5 -56q8 -26 -4 -44q-11 -17 -31.5 -21.5t-105.5 -8.5q-68 -4 -81.5 -7t-18.5 -16q-4 -18 -3.5 -37t3.5 -35
t-7 -26.5t-35 -10.5q-26 0 -57 22l-30 22l5 38q3 28 1.5 34.5t-14.5 11.5q-16 6 -77 12q-49 4 -70.5 12.5t-44.5 32.5q-14 14 -16.5 23t0.5 29q3 19 9.5 30t15 16.5t23 24t29.5 48.5q17 35 128 131t133 96zM220 383l-1 1q0 -6 -8.5 -17.5t-14 -19.5t1 -14t32.5 -6
q22 0 32.5 7.5t13.5 18t10.5 39t18.5 54.5q7 16 7 19t-9 3t-46 -37.5t-37 -47.5z" />
    <glyph glyph-name="five" unicode="5" horiz-adv-x="515" 
d="M416 767l-1 1q14 3 39 -0.5t37 -10.5q13 -7 13 -34.5t-13 -41.5q-19 -22 -123.5 -35t-164.5 -15l-27 -1v-39q0 -39 5 -42q6 -4 34 7q53 19 127 -2.5t112 -66.5q20 -24 26.5 -46t6.5 -68q0 -38 -8.5 -64t-32.5 -63q-40 -61 -124 -104t-169.5 -41.5t-120.5 61.5
q-15 26 -21.5 61t2.5 41q10 7 34 -3.5t36 -27.5q10 -13 18.5 -17t28.5 -4q22 0 70 15t82 32q29 15 60 49t38 59q15 50 3 65t-67 15q-29 0 -46.5 -4.5t-47.5 -20.5q-58 -30 -87 -21.5t-43 60.5q-4 13 -8.5 22t-6.5 10.5t-3 6t3 7.5q5 9 -0.5 85.5t-11.5 82.5q-7 7 -2.5 33
t14.5 37q9 11 30.5 11t40.5 -11q17 -9 106 -1.5t162 23.5z" />
    <glyph glyph-name="six" unicode="6" horiz-adv-x="469" 
d="M309 780v-1q29 20 64 20q24 0 33.5 -5.5t29.5 -30.5q29 -36 21 -49q-9 -16 -28 -29t-27 -8q-15 8 -37 -2.5t-65 -48.5q-42 -36 -87.5 -93t-37.5 -65q5 -5 27 4q21 9 69 0q71 -13 111.5 -43.5t64.5 -91.5q7 -19 7.5 -30t-4.5 -29q-13 -44 -72 -108.5t-108 -87.5
q-29 -14 -65.5 -19t-41.5 4q-5 7 -18 7q-14 0 -57 41t-47 57q-6 21 -10 27q-15 21 -19.5 90.5t6.5 105.5q11 38 47 106t64 106q30 40 85.5 93.5t94.5 79.5zM308 349l2 1q-30 15 -70 17t-74 -10q-32 -11 -43.5 -25t-11.5 -41q0 -71 45 -90q22 -9 40.5 -10t23.5 6q4 7 15 7
q9 0 40 23.5t53 46.5q16 18 16 37q0 13 -6.5 20t-29.5 18z" />
    <glyph glyph-name="seven" unicode="7" horiz-adv-x="553" 
d="M305 733l2 2q54 7 88 18.5t43.5 20.5t16 15t14.5 5t31 -11q27 -13 37 -38q13 -35 2.5 -67t-64.5 -121q-26 -43 -26 -48t-38 -65l-46 -73q-4 -7 -21 -39t-38 -67q-24 -40 -47.5 -92.5t-23.5 -65.5q0 -25 -28.5 -35.5t-54.5 5.5q-16 10 -20 17.5t-4 26.5q0 55 30 119
q15 32 57.5 103.5t60.5 94.5q16 21 58 100t39 83q-3 3 -41 -4q-114 -22 -205 -6.5t-111 60.5q-10 23 -7.5 48t16.5 40q22 16 54 10t45 -18q39 -38 181 -18z" />
    <glyph glyph-name="eight" unicode="8" horiz-adv-x="512" 
d="M43 679l1 -1q4 0 31 18t64 41t60 32q38 14 93 11q86 -5 109 -11t38 -26q18 -23 18 -43q-1 -28 -13.5 -52.5t-46 -63t-33.5 -39.5q-16 -20 -17.5 -26t6.5 -9q48 -16 96 -51q22 -16 30 -27.5t16 -36.5q12 -41 5.5 -73t-34.5 -75q-30 -46 -55 -69q-24 -23 -65 -48.5
t-53 -25.5q-7 0 -21 -8.5t-54 -11.5q-76 -6 -121 32.5t-54 117.5q-6 52 5.5 91.5t48.5 90.5l23 33l-38 27q-32 23 -50 52.5t-20 55t2 47.5t13 35t16 13zM292 652q0 20 -48 6q-44 -13 -76 -40t-32 -37q0 -9 31.5 -20.5t44.5 -7.5t46.5 46t33.5 53zM375 375v1q-3 9 -50.5 21.5
t-66.5 12.5q-14 0 -35.5 -25t-60.5 -90q-10 -16 -12 -44t6 -40q7 -10 48 -7q26 2 41 8t40 24q39 29 58 51q16 19 26.5 47.5t5.5 40.5z" />
    <glyph glyph-name="nine" unicode="9" horiz-adv-x="567" 
d="M204 772h2q13 8 80 17t141 8l83 -1l25 -25q19 -19 21 -27t-3 -36q-25 -137 -47 -241.5t-32 -145t-17 -76t-8 -71.5q-2 -45 -10.5 -62.5t-33.5 -23.5q-41 -10 -60.5 26.5t-19.5 72.5q0 29 18.5 108t35.5 144t15 67q-3 3 -52 -40q-71 -63 -121 -86t-97 -14q-32 6 -53 26
t-41 63q-14 29 -17.5 47.5t-3.5 59.5q0 46 3.5 59t21.5 36q42 52 74 74t59 28.5t37 12.5zM386 682v-1q-5 5 -39.5 2.5t-75.5 -12.5q-78 -17 -113.5 -47.5t-36.5 -82.5q-1 -36 7.5 -48t31.5 -8q23 5 39 14t50 37q23 18 57.5 52.5t58.5 62.5t21 31z" />
    <glyph glyph-name="colon" unicode=":" horiz-adv-x="280" 
d="M26 219l-1 1q13 14 49.5 14t46.5 -14q7 -10 18.5 -17.5t17 -12.5t6 -22.5t-9.5 -48.5q-7 -22 -13 -27.5t-25 -10.5q-44 -10 -76.5 19t-28.5 74q4 31 16 45zM152 546h-2q28 11 58 1.5t45 -34.5q22 -36 11.5 -65t-47.5 -35q-41 -7 -61 9t-28 63q-5 29 -0.5 41t24.5 20z" />
    <glyph glyph-name="semicolon" unicode=";" horiz-adv-x="352" 
d="M129 211l-2 -1q22 29 55 18t56 -55q6 -12 4.5 -21.5t-13.5 -36.5q-18 -40 -18 -44q0 -2 -18.5 -34t-39.5 -68t-24 -45q-7 -19 -22.5 -33t-30.5 -14q-16 0 -24 7t-16 6q-6 -2 -11 6t-10 29q-9 35 0.5 60.5t31 55.5t30.5 56q6 19 16.5 34.5t14.5 34.5q6 25 21 45zM207 541
v1q49 39 106 -21q20 -21 24 -29.5t-1 -22.5q-12 -43 -44.5 -56t-60.5 13q-20 18 -33 59l-12 39z" />
    <glyph glyph-name="less" unicode="&#x3c;" horiz-adv-x="672" 
d="M148 261l1 3q-8 0 -16 7t-26 7q-36 0 -61 26.5t-34 73.5q-3 18 0.5 25.5t20.5 21.5q24 19 62.5 25.5t44.5 11.5q7 6 136 73t169 97q39 30 52.5 33.5t39.5 -11.5q18 -10 31.5 -34t14.5 -46q0 -15 -13.5 -28.5t-29.5 -13.5q-14 0 -80 -37t-76 -41q-14 -5 -21 -9
t-27.5 -15.5t-55.5 -28.5q-59 -28 -59 -33q0 -7 32 -19t74 -26t54 -20q20 -11 31 -11q6 0 32.5 -8.5t63 -19.5t60.5 -16q54 -10 77.5 -38t14.5 -70q-7 -32 -28 -44q-14 -8 -20.5 -7.5t-19.5 10.5q-19 14 -25 14q-3 0 -8.5 3.5t-14 9t-30 14t-51.5 15.5q-81 21 -156 48
t-113.5 42.5t-45.5 15.5z" />
    <glyph glyph-name="equal" unicode="=" horiz-adv-x="540" 
d="M95 370h2q13 5 22 3.5t47 -19.5q32 -15 59 -19.5t86 -7.5t116 -10q41 -5 54.5 -10t28.5 -21q14 -14 17.5 -22.5t0.5 -21.5q-5 -23 -13.5 -31t-37.5 -11.5t-85 1.5q-109 5 -170.5 10.5t-91.5 15.5t-37 17t-16 26q-18 37 -13 65.5t31 34.5zM13 495l-3 -2q3 13 8 23t9 15.5
t12 9.5t11 5t11.5 2.5t9.5 1.5q5 2 47 -9q42 -12 202 -16q119 -3 142.5 -6t40.5 -16q23 -19 23 -44q0 -24 -13 -41q-10 -12 -26 -14t-99 -1q-91 1 -118.5 5t-103.5 5l-97 1l-30 31q-19 19 -24 29t-2 21z" />
    <glyph glyph-name="greater" unicode="&#x3e;" horiz-adv-x="613" 
d="M262 474l1 1q-5 0 -64 39t-66 39q-21 0 -35 49.5t-3 83.5q5 15 31 15q62 0 79 -35q10 -21 51.5 -48t82 -46t87.5 -38l47 -20q15 -7 32 -3q29 8 63.5 -24t34.5 -66q0 -19 -17.5 -42.5t-35.5 -28.5q-56 -17 -216.5 -97.5t-194.5 -113.5q-19 -19 -35 -24.5t-23 -3t-20 12
t-18 11.5q-15 8 -26 34q-7 16 -6.5 25t7.5 26t20.5 28t52.5 32l108 58q89 49 144 70q9 3 10.5 4.5t1.5 4.5q0 5 -42.5 31t-50.5 26z" />
    <glyph glyph-name="question" unicode="?" horiz-adv-x="444" 
d="M24 131h1q11 11 19 13.5t29 -0.5q31 -4 55 -30q17 -18 20 -28t1 -36q-4 -48 -29 -63.5t-60 8.5q-22 15 -32 32.5t-15 51.5q-4 22 -2 31t13 21zM435 637q0 -36 -18 -76.5t-43 -72.5t-51.5 -58.5t-44.5 -41t-21 -14.5q-8 0 -26.5 -18t-26.5 -35q-8 -15 -13 -47
q-4 -28 -23 -52.5t-36 -24.5t-37.5 25.5t-24.5 51.5q-5 31 10.5 79.5t40.5 84.5t45 36q9 0 46 32.5t54 55.5l33 43q20 26 25.5 45.5t-5 28t-34.5 4.5q-65 -13 -127 -97q-25 -34 -34.5 -41.5t-24.5 -6.5q-14 2 -21 8.5t-17 25.5q-16 32 -16 45q0 12 22 54.5t33 52.5
q16 14 53.5 39t49.5 30q18 6 78 6h62l34 -34q33 -33 45.5 -60.5t12.5 -67.5z" />
    <glyph glyph-name="at" unicode="@" horiz-adv-x="850" 
d="M184 722h2q7 0 14 6t16 15t39 22t75 25q37 10 98 9.5t85 -10.5q26 -10 94 -12q51 -1 73.5 -7t48.5 -24l43 -28q40 -25 55 -64t12 -70.5t-11 -77.5t-8 -67q0 -50 -20 -100.5t-51 -78.5q-29 -26 -55 -37.5t-72 -18.5q-34 -5 -46.5 -3.5t-38.5 15.5q-20 10 -41 24
q-15 10 -20 8.5t-26 -21.5q-5 -4 -7 -6q-20 -19 -35.5 -31t-28 -20.5t-25 -10t-20.5 -1.5t-21.5 6.5t-21.5 11.5t-26 17t-30 19q-38 24 -38 32q0 10 -9 17q-10 8 -11 64t9 80q18 43 93.5 95t120.5 52q26 0 44 18q14 13 22.5 14.5t34.5 -2.5t34 -9.5t17 -24.5q10 -19 10 -33
t-9 -64t-9 -63t9 -28q34 -52 52 -52q11 0 33 17.5t30 33.5q16 31 27 132t2 133q-8 27 -28.5 36t-84.5 13q-73 3 -94 12q-14 7 -72.5 1t-69.5 -15l-33 -14q-33 -14 -70 -46q-24 -21 -74 -104q-13 -22 -19.5 -72.5t-7.5 -91t-1 -119.5v-22q0 -45 40 -88.5t68 -50.5
q18 -4 25 -9q8 -6 119 -25q70 -13 100 -2q25 8 72.5 52.5t60.5 70.5q19 41 69 3q42 -32 32 -81q-6 -31 -58.5 -81.5t-101.5 -72.5q-39 -18 -118.5 -22.5t-106.5 9.5q-5 3 -47 19.5t-93 46.5q-61 35 -66 35q-12 1 -66.5 60.5t-54.5 87.5q0 13 -6.5 30t0.5 26q4 11 7.5 127
t11.5 152q6 29 11 47.5t10.5 31.5t8.5 18.5t11.5 17t12.5 17.5q17 26 54 63.5t46 37.5zM410 417l-1 -1q-3 51 -51 7q-7 -6 -15 -14q-25 -26 -30.5 -37.5t-7.5 -43.5q-2 -44 10 -54q8 -7 14.5 -3.5t22.5 22.5q61 71 58 124z" />
    <glyph glyph-name="A" unicode="A" horiz-adv-x="625" 
d="M415 634q71 89 124 111q21 -1 39 -17.5t26 -32.5l7 -16l-5 -122q-3 -76 -11.5 -196.5t-11.5 -203.5q-2 -72 -6 -99t-14 -36.5t-35 -9.5q-22 0 -27 4.5t-13 29.5q-9 33 -5 99t10 105t-2 55q-4 3 -23 -3t-48 -14t-51 -8q-28 0 -38.5 -5.5t-34.5 -2.5l-30 4l-44 -59
q-20 -27 -45 -62.5t-34.5 -48t-23.5 -27.5t-26 -20t-29 -7q-37 -5 -46 8q-12 16 -8.5 35t20.5 32q13 10 22 21t23.5 32t24.5 34q7 9 58 82t68 92q20 23 77 96.5t66 89.5q6 13 46 60zM512 573q-5 20 -18 6q-5 -6 -14 -19q-7 -10 -89 -115q-48 -61 -36 -62q4 0 13 5q8 4 33 7
t38 11q13 7 35 10t28 10q6 8 10 69t0 78z" />
    <glyph glyph-name="B" unicode="B" horiz-adv-x="620" 
d="M196 778l9 25l345 1l18 -20q34 -37 40 -68.5t-9 -93.5q-7 -29 -16 -44.5t-32 -38.5q-44 -45 -126 -73q-7 -2 -9.5 -5t-1.5 -6.5t6 -7.5t15 -10q28 -16 54.5 -42.5t34.5 -46.5q19 -46 -3.5 -110t-66.5 -87q-34 -18 -99.5 -33t-82.5 -9q-12 4 -45 -1q-21 -3 -29.5 -8
t-13.5 -16q-13 -27 -49 -20.5t-48 37.5q-8 17 -31 26q-26 11 -37 31t-7.5 37t14.5 24q10 7 27.5 5t28.5 -10q14 -10 23 -2.5t9 28.5q0 16 14.5 94t20.5 132q3 27 6.5 51t5.5 38.5t4.5 27.5t3.5 20t1.5 12.5t-1.5 8.5t-4 5.5t-7 5.5q-17 10 -15 26t11.5 28.5t20 28t10.5 24.5
q0 16 11 36zM499 719h-1q-10 9 -44 11.5t-59 -3.5q-21 -5 -56.5 -22t-51.5 -29q-17 -13 -30 -117q-3 -26 -1 -31.5t13 -5.5q15 0 65.5 15t80.5 29q24 10 52 38t36 49q7 20 6 39t-10 27zM303 395l-2 -1q-36 10 -45 11t-17 -4q-10 -7 -23.5 -98t-6.5 -100q8 -10 40 -10t56 10
q14 6 27.5 8.5t23.5 8t29 21.5q21 18 26.5 28t6.5 31q1 22 -4.5 30.5t-31.5 26.5q-35 25 -79 38z" />
    <glyph glyph-name="C" unicode="C" horiz-adv-x="527" 
d="M276 776l-2 1q32 16 49.5 19.5t70.5 3.5q51 0 65.5 -2.5t25.5 -12.5q28 -27 3 -57q-9 -11 -19 -13.5t-44 -0.5q-12 2 -26 0.5t-18.5 -1t-14 -3t-12.5 -5l-14 -7l-19 -9.5q-30 -14 -87 -70t-85 -99q-26 -40 -35 -77t-9 -100q0 -74 38 -129q10 -15 19 -17t47 1
q49 4 112.5 30t68.5 28q19 6 25 12q9 8 47 10t46 -5q10 -8 8 -28t-15 -32q-15 -14 -79.5 -44.5t-117.5 -48.5q-46 -15 -106.5 -18.5t-72.5 8.5q-9 9 -20 9t-33 24t-33 47q-19 44 -24 76t-5 108v17q0 45 1 63.5t11.5 47.5t29.5 57t58 78q26 34 78.5 78t87.5 61z" />
    <glyph glyph-name="D" unicode="D" horiz-adv-x="599" 
d="M155 646l1 39l3 20q6 40 43 54t88.5 3.5t106 -32t99.5 -50t65 -52.5q25 -30 27.5 -99t-31.5 -177q-25 -69 -128.5 -175t-210.5 -125q-32 -5 -44.5 -10.5t-21.5 -18.5q-13 -20 -36 -20q-18 0 -36 10t-18 20q0 7 -25 45l-26 37l15 29q14 29 32 29t25 14q17 33 45 209
t27 250zM455 621q-1 1 -8.5 8t-10 8.5t-10 8t-11 8.5t-11.5 7t-13.5 6.5t-13.5 4t-15.5 2.5t-16 -1t-17.5 -3q-27 -7 -43.5 -17.5t-22.5 -25t-7.5 -24t-0.5 -28t1 -23.5q0 -17 -5 -46.5t-13 -71.5t-12 -71q-22 -156 -36 -179q-8 -14 -4 -25q3 -11 18 -6.5t72 32.5
q36 17 86 62.5t64 73.5q8 17 17 31q6 7 17.5 38.5t22.5 74.5t5.5 87.5t-32.5 68.5z" />
    <glyph glyph-name="E" unicode="E" horiz-adv-x="753" 
d="M287 716l1 -1q10 8 105.5 24t196 19.5t150.5 -26.5l4 -3l-71 -24q-48 -16 -87 -26t-52.5 -13.5t-20.5 -9.5q-11 -9 -58 -20q-57 -14 -71.5 -23t-26.5 -37q-15 -34 -15 -47q0 -8 -6 -27.5t-11 -34.5t-2 -18q14 -14 129 41q61 29 85 24q23 -4 29 -20t-7.5 -38t-41.5 -43
q-29 -22 -76.5 -46t-74.5 -31q-12 -3 -26 -10t-22.5 -11t-15.5 -1q-25 10 -61 -50q-64 -105 -58 -111q4 -3 20 2.5t73 23t130 33.5l89 20q58 13 80.5 10t33.5 -25q8 -15 7.5 -21t-9.5 -19q-14 -18 -55.5 -32.5t-108 -29.5t-94.5 -24l-113 -35q-32 -10 -71 -23.5t-53 -18
t-32.5 -7t-28.5 3t-22 17.5q-15 15 -17.5 28t1.5 21.5t21.5 35t29.5 49.5q14 26 49.5 85t57.5 109t48 136q4 14 13 35.5t13 33t2.5 26t-12.5 26.5q-15 16 -10 40q4 19 15.5 34t21.5 15q9 0 25 14z" />
    <glyph glyph-name="F" unicode="F" horiz-adv-x="693" 
d="M217 792h4q9 9 56 9q34 0 41 -2.5t10 -16.5t8 -16t27 1q15 2 58 14.5t140 16.5q86 3 106 -2.5t20 -31.5q0 -21 -21 -35t-52 -14q-98 0 -267 -67q-28 -11 -36.5 -20t-21.5 -41q-18 -45 -16 -49t32.5 1.5t70 15t50.5 10.5q27 4 30 10q5 8 50 6.5t58 -10.5q33 -23 1 -54
q-27 -24 -78 -35q-39 -9 -60 -18q-23 -10 -90.5 -28t-81.5 -18q-17 0 -28.5 -20t-25 -66t-21.5 -66q-2 -5 -14.5 -46t-42.5 -116q-13 -33 -13 -51q0 -21 -18.5 -38t-36.5 -12t-28.5 13.5t-13.5 22t-1.5 28.5t8 35.5t13 39t15.5 45t15 47.5q8 29 27 74.5t31 79.5q8 22 7 31
t-11 31q-14 29 -10.5 51.5t23.5 29.5q25 9 33.5 17.5t14.5 29.5q5 19 3.5 26.5t-12.5 21.5q-17 20 -12 35q13 44 43 55q13 5 15 11t-1 27q-5 30 3 38z" />
    <glyph glyph-name="G" unicode="G" horiz-adv-x="600" 
d="M400 794v2q19 11 41 0t35 -39q10 -21 10 -28t-10 -23q-13 -22 -29 -26.5t-57 2.5q-30 5 -43 3.5t-41 -14.5q-42 -20 -96 -71.5t-75 -92.5q-16 -31 -19 -49t-3 -79q0 -55 2.5 -74t11.5 -34t17.5 -22.5t23 -8t31.5 6t46 24.5t63.5 42.5t86.5 64.5q24 18 31 28t-2.5 13.5
t-35.5 0.5q-43 -4 -53 -7q-18 -6 -53 15.5t-28 61.5q5 25 16.5 33t38.5 4q34 -4 90.5 9.5t77.5 31.5q9 7 26 12.5t41 -1t37 -32.5q9 -18 7 -30t-22 -63q-18 -45 -32.5 -77.5t-21 -46.5t-10.5 -27q0 -1 -5 -14t-12.5 -33t-16.5 -46.5t-20 -63.5t-21 -75q-16 -59 -70 -46
q-37 8 -41 37.5t21 97.5q20 51 16 55t-31 -18q-125 -99 -219.5 -48t-94.5 217q0 141 58 218q78 102 206 182q16 10 68.5 17t59.5 11z" />
    <glyph glyph-name="H" unicode="H" horiz-adv-x="710" 
d="M233 800l1 -5q22 0 31 -3.5t16 -14.5q10 -15 11 -33.5t-4 -63.5q-7 -60 -17 -82.5t-13 -36.5q-1 -7 -3 -15l-3 -12t-2 -8.5t-0.5 -6.5l1 -4t3.5 -2.5l6 -1t9 -0.5q19 0 71 11t68 18q5 2 35 10.5t56 24.5q22 14 30 28t27 73q28 90 31 101q3 14 11 17t45 3q51 0 55 -11
q7 -9 4 -25t-7.5 -25t-14 -34t-16.5 -53q-17 -65 -39.5 -124t-25.5 -76q-3 -16 -45 -137t-43 -139q0 -11 -20 -31q-14 -13 -22 -15.5t-26 0.5q-27 5 -39 27q-9 16 -7.5 29.5t19.5 67.5q64 191 57 196q-2 2 -31.5 -6t-85.5 -22.5t-105 -22.5q-27 -5 -41 -11q-17 -8 -75 -186
q-27 -85 -46 -99q-14 -10 -20 -10.5t-24 8.5q-29 14 -33.5 40.5t6.5 46.5l10 20q7 7 7 21q0 7 8 27.5t20 48.5t18 44l12 34l-19 22q-16 19 -17.5 25.5t6.5 29.5q7 23 26 27q16 4 22.5 5.5t11 7t5 10t5 19t11.5 29.5q24 56 31 110t4 79t8 40.5t46 15.5z" />
    <glyph glyph-name="I" unicode="I" horiz-adv-x="772" 
d="M438 684l-2 -3q4 22 31 33.5t62 -9.5q23 -15 55.5 -11.5t61.5 15t58 7.5t44 -33q10 -19 11 -26t-7 -19q-10 -15 -31.5 -23.5t-96.5 -26.5q-81 -20 -89 -28q-6 -6 -24.5 -52.5t-43 -111.5t-38.5 -96q-22 -48 -38 -92l-16 -45l30 5q42 7 105 33.5t87 48.5q20 18 35.5 18.5
t32.5 -15.5q24 -22 21.5 -44t-32.5 -50q-71 -65 -297 -121q-65 -16 -178 -16q-92 0 -118 6.5t-45 35.5q-8 12 -7 19t11 28q11 22 17 25.5t28 0.5q181 -27 181 12q0 12 18 44.5t18 41.5t10 30t35 77t52 127q25 69 24 72q-2 3 -70 5q-62 1 -90.5 11t-40.5 36q-13 28 -6 52.5
t32 36.5q20 10 27 9t30 -14q44 -26 122 -12q28 5 31 19z" />
    <glyph glyph-name="J" unicode="J" horiz-adv-x="857" 
d="M239 681l-3 4q11 -1 30.5 7.5t49 20.5t112 22.5t202.5 10.5q223 1 223 -47q0 -13 -22 -41q-8 -10 -26.5 -15t-74.5 -13q-61 -8 -114.5 -14t-72 -8t-25.5 -6q-11 -5 -18 -33l-26 -87q-8 -28 -22.5 -84.5t-25.5 -93.5t-19 -51q-15 -24 -15 -36q0 -30 -58 -100
q-26 -31 -72 -54t-91 -28q-80 -7 -135 52q-22 25 -25.5 34.5t-0.5 43.5q4 45 9 52q5 5 15 2t22.5 -14t18.5 -23q13 -25 30.5 -32.5t50.5 -2.5q47 7 88.5 49.5t64.5 105.5q29 82 54 175.5t20 98.5q-6 6 -71 -7q-46 -9 -59 -9.5t-29 7.5q-68 33 -30 95q10 16 17 19t28 0z" />
    <glyph glyph-name="K" unicode="K" horiz-adv-x="624" 
d="M196 722l-7 4q2 8 3.5 12.5t3 7.5t6.5 5t8 3t12.5 3t16.5 4q4 0 27 -25q18 -19 20.5 -28.5t-1.5 -43.5q-6 -49 -9 -64q-2 -11 0.5 -13t13.5 1q14 4 60 33t53 33q31 16 96 61q27 19 37 21.5t26 -2.5q52 -18 47 -70q-2 -25 -26.5 -43.5t-88 -50.5t-108.5 -62
q-13 -9 -30 -19.5t-25.5 -16t-17 -11.5t-11.5 -10.5t-3 -9.5q0 -13 84 -104q122 -131 122 -167q0 -14 -10.5 -31t-18.5 -17q-18 0 -79.5 62.5t-114 124t-52.5 63.5q-9 13 -15 9q-4 -2 -14.5 -28.5t-22.5 -58t-13 -34.5q-15 -34 -32 -80t-17 -53q0 -11 -17 -28
q-28 -26 -68 11q-22 21 -23 40t17 53q22 40 22 49q0 8 22 56l22 47l-18 24q-16 19 -13 33q5 21 39 44q33 22 51 70.5t46 195.5z" />
    <glyph glyph-name="L" unicode="L" horiz-adv-x="637" 
d="M220 764l2 1q16 13 24.5 13.5t27.5 -10.5q42 -23 42 -62q0 -31 -20.5 -90t-46 -119.5t-29.5 -72.5q-3 -10 -25.5 -59.5t-39 -90.5t-10.5 -44q7 -4 72.5 6.5t156.5 25t138 17.5q52 4 64.5 2t29.5 -17q35 -29 11 -74q-9 -17 -29 -21.5t-133 -14.5q-46 -4 -61.5 -6t-37.5 -7
t-55 -10q-199 -32 -224 -15q-15 11 -25 11q-11 0 -27 28t-16 48q0 6 1 12.5t3 12t7 17.5t9 21.5t14.5 31.5t18.5 41q12 26 23.5 50.5t17.5 37t11 23.5t7 17t2 10q0 13 7 23q20 37 45.5 119t25.5 111q0 20 19 34z" />
    <glyph glyph-name="M" unicode="M" horiz-adv-x="821" 
d="M688 768l12 31l44 -2q32 -1 40 -5t16 -22q7 -24 8 -39t-6.5 -46.5t-16.5 -58t-21.5 -73t-20.5 -91.5q-4 -21 -17 -83t-22 -119t-15 -125q-6 -69 -30.5 -84.5t-65.5 24.5q-13 12 -18 17t-7 14.5t-1 13.5t4.5 22.5t6.5 34.5q29 175 36 202q11 43 20 93.5t6 53.5t-20 -13
t-40 -43.5t-42 -54.5q-26 -37 -82.5 -99.5t-76.5 -90.5q-27 -36 -46 -37.5t-51 29.5q-28 28 -31.5 43.5t12.5 49.5q18 38 18 55q0 10 -3 10q-3 -1 -22 -22q-27 -30 -109 -153q-31 -45 -56 -49.5t-59 29.5q-28 28 -23 48t49 62q35 33 72.5 80t61.5 82t51.5 77t33.5 51
q17 24 20 54t13 42q8 11 16 13t29 -1q54 -8 68 -56q7 -27 -9 -163l-4 -35l215 246q49 57 63 88z" />
    <glyph glyph-name="N" unicode="N" horiz-adv-x="737" 
d="M419 300l-2 1q0 8 25 64t25 58q0 5 19 45.5t45.5 96t38.5 84.5q47 115 62 125q7 5 36.5 1t37.5 -11q9 -7 16 -33q5 -18 1 -33.5t-29 -63.5t-45 -81.5t-26.5 -43t-6.5 -14.5q0 -3 -25 -63t-25 -68q0 -4 -5 -11.5t-17 -29.5t-24 -57q-17 -49 -38 -89.5t-32 -59.5t-11 -28
q0 -10 -16.5 -21t-30.5 -11q-15 0 -39 11q-9 4 -14.5 8.5t-9.5 13.5t-5.5 18t-3.5 28t-3 38.5t-3.5 54t-6.5 68.5q-3 27 -7.5 87t-8 96.5t-6.5 36.5q-5 0 -24.5 -43t-40.5 -91.5t-26 -56.5q-17 -26 -34.5 -63t-17.5 -47q0 -14 -18.5 -40.5t-28.5 -26.5q-20 0 -49.5 25.5
t-34.5 47.5q-4 14 5.5 30t28.5 41t30 47q5 10 19.5 32t30.5 62q17 42 64 132t52 100q32 70 40 79.5t35 8.5q21 -1 30 -5t19 -17q16 -20 16 -38q5 -157 13.5 -236t9.5 -125q0 -44 8 -44q7 0 7 11z" />
    <glyph glyph-name="O" unicode="O" horiz-adv-x="705" 
d="M411 700l1 -1q36 5 50 14q6 4 51 -7q9 -2 15 -3q39 -9 55 -18.5t48 -44.5q74 -81 63 -163q-10 -81 -34.5 -131.5t-78.5 -106.5q-76 -78 -166 -144t-121 -66q-13 0 -20 -7q-11 -10 -60 -5.5t-76 18.5q-40 21 -62.5 43.5t-42.5 63.5q-19 38 -21.5 54t0.5 62q4 54 20 96
t55 100q22 32 75.5 88t62.5 56q3 0 26.5 22t66.5 47.5t93 32.5zM572 563l-1 -1q-8 13 -12.5 17t-8 0t-8.5 -17q-7 -20 -29 -26q-16 -4 -28.5 3t-22 16.5t-23 16t-39 -1t-62.5 -32.5q-29 -20 -35 -20q-12 0 -88 -85t-77 -114q0 -10 -9 -23q-19 -32 -14 -69.5t33.5 -68
t63.5 -30.5q59 0 182 88t157 155q61 123 21 192z" />
    <glyph glyph-name="P" unicode="P" horiz-adv-x="603" 
d="M301 783l1 4q27 3 42 4.5t28 1.5t18 -0.5t21.5 -3t29.5 -3.5q31 -3 57 -14t36 -11q15 0 32.5 -20t24.5 -45q15 -55 -49 -127q-20 -23 -65.5 -61t-52.5 -38q-3 0 -29 -15.5t-78.5 -37.5t-112.5 -33l-46 -9l-21 -68q-12 -38 -18 -68.5t-6.5 -41t-5 -18.5t-15.5 -17l-20 -15
l-26 14q-25 13 -31.5 30t0 52.5t32.5 120.5q18 61 18 84q0 22 14 40q17 21 41 102t18 96q-3 8 15 29.5t28 21.5q8 0 27 19q13 13 29 17.5t64 9.5zM428 676h1q-32 7 -50.5 6.5t-64.5 -8.5q-43 -8 -55.5 -17.5t-16.5 -38.5q-4 -22 -15.5 -45t-12.5 -40q-2 -15 1 -20t13 -6
q11 -2 72 26t87 47q21 15 48.5 43t27.5 35q0 10 -35 18z" />
    <glyph glyph-name="Q" unicode="Q" horiz-adv-x="625" 
d="M375 759v-1q88 7 133 -20t80 -108q16 -38 20.5 -58.5t5.5 -61.5q1 -40 -2 -57.5t-14 -39.5q-22 -46 -47.5 -77t-83.5 -86q-54 -50 -61 -61q-12 -19 2 -53q1 -4 25 -55q20 -45 24 -59.5t-1 -25.5q-13 -25 -24 -32.5t-28 -3.5q-18 4 -39.5 22t-21.5 29q0 7 -9 26
t-21.5 44.5t-18.5 40.5q-4 12 -9 15t-14 0q-17 -5 -70.5 9t-80.5 31t-52 50t-44 79t-12 106t46 118q28 41 71.5 89.5t60.5 56.5q20 10 36 24q17 14 71 36t78 23zM490 624l-2 1q-8 19 -19 25t-18 -5q-3 -7 -57 -7q-35 0 -51.5 -4t-43.5 -19q-38 -20 -81 -61t-70 -82
q-17 -26 -22.5 -42t-8.5 -46q-4 -48 8 -71t38 -41.5t47 -19.5q16 -1 20.5 2t5.5 16q4 32 32 40.5t60 -11.5q12 -8 20.5 -5.5t23.5 17.5l10 7q9 8 21 18t28 26t30 32t27 37t19 41q8 26 3 71.5t-20 80.5z" />
    <glyph glyph-name="R" unicode="R" horiz-adv-x="631" 
d="M305 756l-1 -4q0 34 34 42.5t55 -13.5q16 -16 74 -18q54 -1 78 -14t49 -53q14 -23 15.5 -53.5t-10.5 -55.5t-66.5 -70t-97.5 -65q-23 -11 -28 -19q-4 -7 75 -84.5t79 -80.5l20 -30q20 -31 34 -65t2 -48q-6 -7 -3.5 -15t-10.5 -21q-32 -35 -76 2q-14 12 -18 21t-4 28
q0 31 -23 64.5t-78 83.5q-93 83 -122 83q-11 0 -57 -92l-20 -39q-5 -9 -20 -41t-21 -40q-13 -21 -27.5 -51t-14.5 -37q0 -22 -42 -30q-14 -3 -23 1t-25 20q-23 23 -21.5 41.5t32.5 67.5q21 34 40.5 73t36.5 68q34 59 43.5 83t10.5 55q1 26 5.5 37t21.5 29q19 20 37.5 54
t18.5 50q0 12 -3 23.5t-3.5 16.5t5 15.5t20.5 28.5q29 34 29 52zM476 643l-1 -1q-5 5 -31.5 1.5t-49.5 -12.5q-18 -7 -27 -35.5t-14 -31.5q-7 -4 -7 -17.5t7 -13.5t48 27q31 20 56.5 48t18.5 35z" />
    <glyph glyph-name="S" unicode="S" horiz-adv-x="605" 
d="M171 703h-2q26 30 127.5 57.5t195.5 10.5q53 -10 67 -16.5t25 -28.5q23 -43 -19 -71q-17 -11 -45.5 -6t-65 13t-104.5 -5q-71 -14 -102 -51q-18 -22 20.5 -69.5t100.5 -65.5q127 -37 159.5 -55t39.5 -56q13 -67 -8 -129q-51 -150 -224 -125q-42 6 -119.5 24.5t-84.5 24.5
q-6 5 -27 8t-44 14.5t-39 37.5q-14 22 -13.5 37.5t14.5 32.5q36 42 64 12q6 -6 17.5 -12.5t29 -13t32 -11t38.5 -12t38 -12.5q34 -11 93 -15q45 -3 56 -0.5t30 18.5q22 19 33 45t2 37q-8 10 -72 26q-101 25 -169 92.5t-81 156.5q-5 33 10 64q16 30 27 43z" />
    <glyph glyph-name="T" unicode="T" horiz-adv-x="517" 
d="M30 712v1q29 26 44 11q9 -9 95.5 -12t144.5 4l104 12q60 7 82 -46q7 -17 6 -25t-14 -27q-5 -7 -8 -11l-6 -8t-8 -5.5t-9 -3t-14 -1.5t-17 -0.5t-24.5 -1t-31.5 -0.5q-55 -2 -60 -7q-3 -3 -5.5 -52.5t-5.5 -107.5t-8 -76q-9 -35 -18 -72.5t-14 -61.5t-11 -48.5t-10 -39
t-9 -29t-9.5 -21.5t-11 -13t-13.5 -8t-17 -2q-19 0 -42 29l-23 29l19 76q10 40 23.5 89t18.5 68.5t10 50t7 67.5q3 51 1.5 68t-9.5 30l-13 20l-121 -9l-21 22q-14 14 -18 25t-4 33q0 23 3.5 32.5t16.5 20.5z" />
    <glyph glyph-name="U" unicode="U" horiz-adv-x="592" 
d="M142 746l-2 -2q17 8 42 2t38 -20q14 -16 14.5 -29t-13.5 -47q-32 -81 -69 -288.5t-27 -232.5q13 -33 79 -18q23 5 38.5 15.5t44.5 40.5q24 25 39 46t22 34t22 47t27 60q11 22 28 151t13 152q-11 61 50 61q39 0 53 -11.5t23 -50.5q8 -35 -35 -223.5t-74 -234.5
q0 -1 -16 -25.5t-24.5 -37t-27.5 -37.5t-34 -39.5t-35.5 -30t-39.5 -22.5q-37 -14 -89 -10.5t-86 21.5q-24 13 -52 40t-36 46q-12 28 12.5 197.5t64.5 321.5q23 85 29.5 101.5t20.5 22.5z" />
    <glyph glyph-name="V" unicode="V" horiz-adv-x="550" 
d="M171 311l2 -1q0 7 25 44t25 41t45 68t69 95l7 10q16 32 45.5 62t60.5 47q43 16 70.5 -7t17.5 -57q9 -6 -7 -28q-11 -16 -20 -16q-13 0 -67 -67l-9 -12q-94 -120 -165 -244q-9 -16 -54 -87.5t-64 -109.5q-22 -44 -39 -50.5t-56 15.5q-32 18 -40.5 33.5t-3.5 50.5
q7 54 8 177.5t-5 190.5q-7 78 -1 97.5t37 24.5q28 5 55 -15l27 -19l1 -135q0 -134 4 -138t18 9.5t14 20.5z" />
    <glyph glyph-name="W" unicode="W" horiz-adv-x="652" 
d="M586 482l-1 4q0 -4 -49.5 -106.5t-49.5 -108.5q0 -5 -20 -38.5t-50 -85t-47 -85.5q-24 -48 -45 -62q-14 -10 -22 -11t-26 5q-34 11 -46 26.5t-12 47.5q0 39 7 72q15 70 8 114q-3 25 -12 -12q-3 -12 -18.5 -37t-38.5 -84q-28 -70 -38 -82q-11 -14 -36 -11.5t-50 18.5
l-29 19l5 39q13 101 15 107q8 20 11 160t-3 191q-4 28 2 43q8 23 43.5 21.5t59.5 -25.5q14 -13 15.5 -27t-0.5 -85q-4 -94 0 -94q16 0 70 110q28 56 40.5 66.5t44.5 4.5q56 -11 50 -93q-11 -139 -15 -175q-3 -28 7 -28q5 0 9 13q3 10 16 31t21 42q5 15 14 30.5t15 25t6 14.5
q0 4 16 38.5t34.5 76t23.5 59.5q11 42 49 53t66 -27q18 -27 15.5 -52t-27.5 -58q-28 -39 -28 -44z" />
    <glyph glyph-name="X" unicode="X" horiz-adv-x="563" 
d="M485 472l1 -2q0 -7 -11.5 -15.5t-30 -18.5t-48 -38.5t-58.5 -67.5l-16 -22l16 -41q12 -30 35 -62.5t40 -53.5t17 -28q0 -9 9 -29.5t9 -27.5q0 -2 -1 -5t-1 -4q0 -4 6 -11t6 -12q0 -10 -19 -28.5t-40 -18.5q-8 0 -16 7t-17 7q-25 0 -53.5 38.5t-50 77.5t-29.5 39
q-7 0 -31.5 -37.5t-29.5 -55.5q-4 -16 -21.5 -33.5t-30.5 -17.5q-34 0 -64.5 26t-30.5 54q0 19 20 56.5t58 75.5q33 33 45.5 53.5t14.5 31t11 19.5l16 16l-16 21q-16 21 -23 37q-20 48 -55.5 104.5t-55.5 96t-20 72.5q0 21 19.5 35t45.5 14q21 0 41.5 -13.5t20.5 -23.5
q0 -8 47.5 -116t58.5 -124l12 -16l26 28q1 1 38.5 37t64 68.5t34.5 56.5l10 30q6 19 21.5 29.5t32.5 11.5q43 0 60 -53l1 -12q0 -1 0.5 -4t0.5 -5q0 -20 -14 -52t-27.5 -53.5t-16.5 -23.5q-11 -7 -11 -17z" />
    <glyph glyph-name="Y" unicode="Y" horiz-adv-x="553" 
d="M457 780l4 6q26 8 42 4t29 -20q34 -40 -12 -94q-25 -30 -46.5 -60t-21.5 -36q0 -4 -11 -15t-34 -36.5t-44 -56.5q-15 -22 -38.5 -54.5t-33 -47t-9.5 -23.5q0 -10 -18.5 -66.5t-24.5 -84.5q-4 -18 -5 -23.5t-4 -13.5t-6 -14t-13 -28.5t-22 -53.5q-31 -78 -38 -87t-45 -9
q-26 0 -34 3.5t-18 19.5q-25 42 3 77q12 14 29 52t17 50q0 14 6.5 32.5t12.5 32t5 31t-14 31.5l-7.5 9t-5 6.5t-3.5 7t-2.5 6.5t-1.5 9.5t-0.5 11.5t-1 17t-0.5 22q-2 52 -13.5 130t-19.5 92q-6 12 -28 38q-30 35 -13.5 68t63.5 33q32 0 50.5 -28t28 -66.5t13.5 -43.5
q7 -10 18 -113q3 -28 7.5 -30.5t18.5 15.5q6 7 28 31.5t46 53.5t45 59q67 97 89 125t33 31z" />
    <glyph glyph-name="Z" unicode="Z" horiz-adv-x="653" 
d="M101 171l-2 -4q0 4 85 96.5t85 99.5q0 9 15 22q14 12 90 147.5t76 142.5q0 4 -35 4t-85.5 -1.5t-66.5 -1.5q-28 1 -57.5 13t-34.5 26q-6 16 -4 42t10 38q11 16 14 16t49 -11q33 -8 82.5 -7.5t170.5 8.5q67 5 82.5 3.5t31.5 -13.5q17 -12 20 -46q4 -71 -193 -359
q-33 -49 -141 -164q-58 -63 -47 -65q3 -1 9 1q10 3 118.5 5.5t137.5 8.5l62 13l28 -18q57 -38 18 -86q-15 -19 -36.5 -26t-35 -4.5t-17.5 5.5q-13 6 -20.5 4t-28.5 -6.5t-38 -4.5q-13 0 -21.5 -2.5t-26 -8t-43.5 -10.5q-28 -5 -60.5 -6t-57.5 1.5t-46 5t-32.5 2.5t-11.5 -5
q0 -17 -30 -24t-63 6.5t-39 45.5q-5 26 6 44.5t45 41.5q38 25 38 31z" />
    <glyph glyph-name="bracketleft" unicode="[" horiz-adv-x="412" 
d="M64 788v-2q7 8 33.5 10t128.5 2h151l15 -24q15 -24 8 -37q-12 -23 -32 -30t-84 -9q-84 -3 -94 -12q-24 -20 -24.5 -110.5t10.5 -239t11 -220.5v-19q0 -78 9 -90t64 -7q9 1 14 1l59 5l29 -26q49 -45 19 -86q-7 -9 -24.5 -11.5t-79.5 -3.5q-78 -1 -121.5 -9t-58.5 -8
q-19 0 -28.5 5.5t-28.5 28.5q-28 34 -30 67q-3 33 12 46t15 29t11 36q11 16 10 93.5t-7 156t-12 163t-4 114.5q5 109 10 139.5t19 47.5z" />
    <glyph glyph-name="backslash" unicode="\" horiz-adv-x="318" 
d="M12 599h1q6 33 16.5 40.5t47.5 12.5q9 2 31 -18q16 -14 22.5 -36.5t7.5 -49t16 -81t45 -119.5q17 -37 32 -79t28 -70q38 -83 46.5 -116t-2.5 -58q-8 -17 -14 -21t-25 -4q-18 0 -27 5t-24 24q-18 22 -24.5 46t-22.5 78t-50 128q-17 37 -41 109t-29 99q-4 25 -11 33.5
t-7 20.5q0 13 -10 24t-6 32z" />
    <glyph glyph-name="bracketright" unicode="]" horiz-adv-x="417" 
d="M88 757l-3 1q18 5 40 -7q24 -14 63.5 -19.5t68.5 0.5q54 11 75 12t35 -8q18 -11 18 -21t11 -19q7 -6 9 -34t-0.5 -72.5t-5.5 -84t-8 -89t-6 -67.5q-3 -33 -16 -129.5t-14 -222.5q-1 -41 -4 -57t-14 -31q-13 -19 -32 -23t-32 9q-10 10 -114 10h-104l-23 30
q-18 23 -22 44.5t7 32.5q8 8 98 3l91 -4l11 21q5 10 10 33.5t10.5 64.5t10.5 81.5t12.5 106t14.5 117.5q16 128 12 191q0 5 -25 6.5t-59.5 3.5t-51.5 10q-73 33 -87 56q-8 13 0 32t24 23z" />
    <glyph glyph-name="grave" unicode="`" horiz-adv-x="304" 
d="M37 662v1h1q-27 28 -10.5 62t62.5 36q41 -10 106 -59q4 -3 15.5 -6.5t18 -7t2.5 -6.5q32 -12 41.5 -39t-5.5 -48q-8 -42 -55 -44t-88 39q-15 15 -37 32.5t-36.5 28t-14.5 11.5z" />
    <glyph glyph-name="a" unicode="a" 
d="M419 400l2 -3q9 15 15 23t15 12t12.5 5t17.5 3q19 0 43 -24.5t24 -42.5q0 -35 -46.5 -100.5t-53.5 -82.5q-20 -43 -20 -110q0 -25 8 -25q6 0 52 13.5t59 13.5q35 0 35 -45q0 -19 -46 -54t-86 -35q-36 0 -78 32q-20 14 -33.5 43t-20 50t-11.5 21q-7 0 -24 -17
q-78 -74 -154 -74q-16 0 -31.5 11t-64.5 56q-22 19 -22 51q0 61 46.5 128.5t121.5 114t148 46.5q18 0 40 -22t23 -22q9 0 29 34zM371 313q0 7 -14 7q-28 0 -70 -21q-49 -24 -102 -81t-53 -90q0 -6 5 -6q17 0 118 73q32 23 74 65.5t42 52.5z" />
    <glyph glyph-name="b" unicode="b" horiz-adv-x="520" 
d="M99 288q0 3 28.5 65t38.5 81q0 36 22 78q-1 5 -1 17q0 27 15 78t18 65l-2 11h4q0 28 21 45t41 17q23 0 40 -18t17 -49q0 -39 -21.5 -136t-33.5 -107q-2 -24 -20 -46.5t-18 -32.5q0 -2 2 -2q3 0 77 32.5t88 32.5q22 0 40 -19q32 -33 42 -52.5t10 -49.5q0 -57 -74 -169
q-41 -63 -72.5 -86t-74.5 -23q-36 0 -63 16.5t-41.5 33t-19.5 16.5q-9 0 -16.5 -14t-13 -30.5t-17 -30.5t-26.5 -14q-22 0 -42 24t-29 46t-9 28q0 10 10 24.5t13 24.5q4 13 21 48t31.5 64t14.5 32zM363 238v-1q18 27 18 34q0 2 -2 2q-19 0 -87 -50t-68 -64q0 -5 7.5 -11.5
t17.5 -6.5q21 0 53 27t61 70z" />
    <glyph glyph-name="c" unicode="c" horiz-adv-x="456" 
d="M253 521l-2 1q22 7 61 3.5t50 -13.5q24 -21 29 -83l2 -28h-53q-48 0 -72 -6t-47 -25l-45 -36q-34 -26 -53.5 -89.5t3.5 -72.5q26 -10 104.5 10t142.5 54q43 22 53 16.5t18 -56.5q3 -17 0 -26t-17 -25q-28 -32 -101 -64t-131 -37q-62 -6 -99.5 14.5t-62.5 73.5
q-40 88 -9 168.5t95 139.5t134 81z" />
    <glyph glyph-name="d" unicode="d" horiz-adv-x="614" 
d="M439 461q27 53 43 115q-3 12 -3 14q1 15 7 45q0 5 2 15q0 1 0.5 3.5t0.5 3.5q8 40 38 53.5t56 -6.5t24 -62q-2 -22 -4 -31v-16q0 -25 -17 -80l-30 -96q-2 -7 -23.5 -62.5t-47.5 -139.5t-50 -193q-13 -55 -25 -76q-14 -22 -33.5 -22.5t-39.5 20.5q-18 19 -19 46.5t14 82.5
q14 52 12 57q-1 1 -24.5 -18t-58 -45.5t-57.5 -38.5q-24 -12 -54.5 -16t-50.5 3q-19 6 -46.5 36t-36.5 54q-12 32 5.5 76t54.5 78q72 65 154.5 100.5t143.5 27.5q20 -3 26 0.5t15 22.5zM277 248q0 19 -72 -36q-66 -49 -69 -65q-1 -2 0 -3q7 -7 55 21q15 8 50.5 42.5
t35.5 40.5z" />
    <glyph glyph-name="e" unicode="e" horiz-adv-x="463" 
d="M264 530v3q25 10 45 6t48 -24q32 -23 43.5 -35.5t25.5 -39.5q13 -24 13.5 -58t-10.5 -59q-11 -24 -41 -50t-64 -41q-26 -12 -95 -22.5t-84 -5.5q-12 4 -17 -17q-8 -37 8 -67q3 -7 8 -11q14 -13 56 -9.5t63 19.5t30 16t20 9q16 13 59 29.5t52 12.5q13 -5 22.5 -27t5.5 -39
q-7 -29 -82.5 -75.5t-131.5 -55.5q-26 -4 -68 8t-72 32q-29 20 -51.5 46t-22.5 39t-8 19q-7 5 -4 50.5t12 65.5q6 13 35 65.5t35 66.5q15 34 71 83t99 66zM315 399q10 24 -5 22q-10 -1 -30 -14q-24 -16 -52 -46.5t-23 -35.5q4 -4 30 4q22 6 47 28t33 42z" />
    <glyph glyph-name="f" unicode="f" horiz-adv-x="638" 
d="M433 452l-1 -1q0 -9 7 -16.5t7 -21.5q0 -11 -5.5 -16t-24.5 -10q-23 -6 -79 -17t-71 -17q-16 -6 -21 -36.5t-7 -130.5q-1 -49 -2.5 -76t-5.5 -43.5t-10 -20t-16 -0.5q-25 7 -47 26t-26 36q-6 27 -5 94.5t8 92.5q9 30 5 38q-3 7 -36 7q-21 0 -30.5 4.5t-25.5 21.5
q-29 31 -34.5 49.5t7.5 36.5q10 13 21 16t56 5q63 2 72 9q7 6 19.5 43t27.5 78.5t58 93t105 86.5q31 17 85 17q37 0 51 -3.5t36 -17.5q33 -23 55 -59q16 -25 20 -39t4 -44q0 -33 -3 -39.5t-17 -8.5q-22 -2 -34.5 9t-24.5 44q-9 26 -15.5 34.5t-20.5 12.5q-42 12 -108 -34
q-26 -19 -56.5 -57.5t-30.5 -53.5q0 -9 -10 -23q-14 -19 -7 -24.5t44 -5.5q39 0 62.5 -10.5t23.5 -28.5z" />
    <glyph glyph-name="g" unicode="g" horiz-adv-x="633" 
d="M519 548h3q10 10 42.5 -2.5t46.5 -31.5q14 -18 14.5 -37.5t-9.5 -45t-23.5 -53.5t-30 -74.5t-25.5 -96.5q-8 -40 -24 -78t-66 -131q-12 -22 -56 -61.5t-69 -50.5q-21 -9 -60.5 -21.5t-46.5 -16.5q-4 -2 -31 -6.5t-61 -6t-53 9.5q-58 36 -58 65q0 15 14.5 23.5t32.5 4.5
q19 -5 75 8.5t90 30.5q28 14 68.5 47t62.5 59q10 13 22.5 36t19.5 42.5t3 20.5q-8 2 -48 -29q-83 -65 -140 -77t-109 23q-33 22 -45.5 45t-7.5 52q7 44 58 128.5t95 124.5q29 26 65 47t51 21q10 0 19 5.5t34 12t74 7.5q69 2 73 6zM463 432l-2 -2q-9 16 -61 -5.5t-75 -35.5
q-21 -16 -27 -16q-10 0 -66.5 -76.5t-56.5 -90.5q0 -1 4.5 -1.5t17.5 3t32 13t54 33t78 57.5q36 29 71.5 71t30.5 50z" />
    <glyph glyph-name="h" unicode="h" horiz-adv-x="522" 
d="M190 781l-1 2q22 9 33.5 7t31.5 -18t26.5 -37.5t4.5 -39t-10 -52.5t-11 -58q-3 -22 -17.5 -92t-17.5 -91l-5 -34l37 36q40 38 75 63q24 18 37 23t38 5t35 -4t25 -20q19 -21 30.5 -63.5t10.5 -92.5q-1 -58 -23.5 -149t-41.5 -112q-15 -17 -46.5 -4t-47.5 44q-5 10 1 45
t16 55q9 17 17 55.5t9.5 66t-4.5 31.5q-14 0 -72.5 -64t-88.5 -113q-24 -39 -42 -63.5t-27 -38t-22 -39.5q-23 -47 -34.5 -52.5t-48.5 12.5q-27 14 -34.5 21.5t-11.5 26.5q-3 19 1 35t13 34.5t27 72.5t36 128l24 96q55 212 48 298q-4 41 1.5 55.5t28.5 24.5z" />
    <glyph glyph-name="i" unicode="i" horiz-adv-x="272" 
d="M101 557l-1 1q19 29 70 -10q15 -11 19 -19.5t4 -29.5q0 -33 -14 -72q-16 -44 -32.5 -123.5t-20.5 -126.5q-7 -86 -32 -100q-11 -6 -19.5 -2.5t-37.5 26.5q-19 14 -23 23t-4 34q1 54 37 212.5t54 186.5zM146 757v1q18 20 51.5 14.5t53.5 -31.5q13 -17 8.5 -47t-21.5 -47
q-11 -11 -19 -13t-25 1q-23 4 -44.5 19t-26.5 30q-5 13 2 35t21 38z" />
    <glyph glyph-name="j" unicode="j" horiz-adv-x="450" 
d="M316 545v-3q45 19 77 -12q12 -12 15 -20t3 -66.5t-9 -182.5q-7 -82 -13 -118t-22 -84q-23 -71 -39 -104q-19 -36 -61 -77.5t-78 -58.5q-43 -20 -69 -13.5t-66 46.5q-31 31 -40 55.5t-3 59.5q6 37 25.5 68.5t32.5 23.5q5 -3 16 -36t19 -71q6 -26 18.5 -28.5t35.5 17.5
q21 18 51.5 60.5t35.5 61.5q6 18 16 33q16 25 31.5 162t-0.5 207q-8 26 -1 49t25 31zM314 769v-1q10 10 18.5 12t29.5 -1q49 -7 70.5 -47.5t-9.5 -69.5q-30 -26 -57.5 -18t-47 26.5t-20.5 30.5q-4 48 16 68z" />
    <glyph glyph-name="k" unicode="k" horiz-adv-x="509" 
d="M123 756h3q4 8 15.5 7t26.5 -11.5t22 -24.5q12 -24 13 -43.5t-7 -53.5q-7 -32 -4 -51t-6 -28q-11 -20 -9 -24q7 -7 155 103q47 35 61.5 41.5t34.5 3.5q44 -7 64 -47q8 -14 7.5 -20t-8.5 -16q-14 -16 -41 -33q-26 -18 -126.5 -89t-107.5 -77q-6 -5 15 -28q30 -33 87 -121
l51 -76q26 -39 28 -60q2 -15 -2 -18.5t-23 -4.5q-51 -5 -98 60q-78 105 -102 133.5t-31 21.5t-18 -74.5t-11 -101.5q0 -35 -8 -48.5t-30 -13.5q-48 0 -60.5 58.5t13.5 157.5q14 51 37 168t40.5 212.5t18.5 97.5z" />
    <glyph glyph-name="l" unicode="l" horiz-adv-x="253" 
d="M144 773l1 -1q13 9 40.5 -7t44.5 -43q12 -19 13.5 -38t-2.5 -99q-6 -118 -28 -204.5t-40.5 -135t-17.5 -82.5q1 -46 -27 -61t-75 5q-22 10 -31 30t-11 63q-1 30 2.5 40.5t22.5 31.5q22 24 33 57t30 127q19 98 23.5 142.5t-0.5 86.5q-5 40 -0.5 58t22.5 30z" />
    <glyph glyph-name="m" unicode="m" horiz-adv-x="725" 
d="M595 596l4 1q14 14 19.5 15.5t19.5 -5.5q23 -12 47.5 -42t28.5 -52q5 -26 3.5 -91t-8.5 -91q-5 -20 -18 -66.5t-19 -72t-6 -37.5q0 -19 -10.5 -39.5t-21.5 -25.5q-34 -13 -66 14q-16 13 -19 22.5t-3 44.5q0 47 6 61q13 26 24.5 68.5t15 71t-2.5 32.5q-9 0 -13 -11
t-56 -70t-70 -87q-29 -43 -44 -55.5t-43 -15.5q-26 -3 -33.5 -0.5t-21.5 19.5q-13 16 -15.5 26.5t-0.5 42.5q3 45 15 58q17 18 10 27q-2 2 -5 2q-4 0 -31 -31t-37 -48q-22 -38 -60.5 -89t-49.5 -71q-18 -32 -37 -40t-45 6q-26 15 -33 32q-7 16 -7 54t7 51q33 65 54.5 148.5
t30.5 140t12 61.5q5 7 25.5 4.5t37.5 -13.5q11 -7 18.5 -17t10 -17t7 -24t7.5 -26q3 -10 54 44q49 52 71 55.5t58 -33.5q32 -33 37 -55q11 -42 38 -4q28 41 115 128z" />
    <glyph glyph-name="n" unicode="n" horiz-adv-x="527" 
d="M403 503h1q17 7 30 3.5t37 -21.5q32 -24 36 -50q4 -24 -2.5 -117.5t-13.5 -108.5q-8 -19 -26 -88t-18 -82q0 -21 -21.5 -34t-48.5 -5.5t-40 39.5q-9 22 -10.5 54.5t6.5 46.5q7 12 24 65.5t22 76.5q4 20 -1 20q-7 1 -33 -31q-15 -18 -63.5 -73.5t-87.5 -101.5t-46 -61
q-10 -20 -32.5 -33t-41.5 -10q-17 2 -35 22t-18 36q0 17 -5.5 32.5t-5.5 21.5t10 34q33 68 45.5 143.5t13 125.5t5.5 58q12 23 42 19.5t53 -29.5q12 -13 20 -44.5t4 -50.5q-5 -25 2 -28t26 16q46 46 105 99t67 56z" />
    <glyph glyph-name="o" unicode="o" horiz-adv-x="478" 
d="M222 440l1 1q22 11 57 8t55 -17q9 -6 35 -19t41 -24t32 -42t24 -77q5 -28 -14 -62q-15 -27 -75.5 -90t-82.5 -74q-23 -11 -70 -17t-73 0q-68 15 -110 80t-29 135q5 28 68.5 95.5t100.5 83.5zM326 301l1 1q-3 8 -14.5 8.5t-51.5 -7.5q-26 -5 -37.5 -13t-39.5 -42
q-60 -75 -49 -93q5 -8 26.5 -6t45.5 13q43 20 85 69t34 70z" />
    <glyph glyph-name="p" unicode="p" horiz-adv-x="473" 
d="M145 612l-2 -1q21 25 67.5 -2.5t46.5 -75.5q0 -26 5 -24q9 4 29 14t28 13.5t23.5 8.5t23 3.5t20.5 -4.5t21.5 -13t19.5 -26t22 -39q33 -70 -14 -173q-42 -92 -161 -92q-43 0 -52.5 -6.5t-19.5 -43.5q-47 -181 -59 -257q-7 -45 -18.5 -55.5t-49.5 -8.5q-23 1 -30.5 6
t-18.5 26l-16 29l22 66q18 53 44.5 160t26.5 141q0 35 6 43q9 10 19 88t9 136q-1 76 8 87zM301 317q23 -4 43 33.5t10 53.5q-5 8 -39.5 8t-43.5 -12q-19 -23 -13.5 -49.5t43.5 -33.5z" />
    <glyph glyph-name="q" unicode="q" horiz-adv-x="513" 
d="M387 600l-2 -1q7 11 14.5 13t29.5 0q47 -5 64.5 -45.5t-2.5 -97.5q-1 -2 -21 -68t-42 -144t-25 -100q-4 -29 -20.5 -70t-16.5 -47q0 -11 -10 -25q-9 -12 -10.5 -29t6.5 -21q7 -3 7 -28q0 -24 -21 -38q-20 -14 -30.5 -14t-18 7t-15.5 7q-13 0 -35 24q-15 16 -19 26.5
t-4 35.5q0 40 19.5 107t40.5 107q24 46 17.5 52t-47.5 -26q-34 -25 -47 -30.5t-42 -6.5q-38 -1 -61 9.5t-49 39.5q-47 53 -34 107q7 29 26 61.5t34 40.5q11 6 31 22t35.5 28.5t19.5 12.5q7 0 17 10q24 21 86 29.5t78 -6.5q9 -9 15 -9t9.5 7t6 16.5t6.5 22t10 21.5zM253 410
v1q1 22 -64 -36q-49 -44 -49 -53q0 -8 28 11t56.5 44t28.5 33z" />
    <glyph glyph-name="r" unicode="r" horiz-adv-x="558" 
d="M498 573v-1q-15 0 -37.5 -9.5t-36.5 -17t-14 -3.5q0 3 -34 -28.5t-67.5 -66.5t-33.5 -40q0 -4 -8 -13t-18.5 -24t-16.5 -30q-5 -11 -40 -74t-47 -114q-11 -48 -22.5 -58t-35.5 -7q-53 6 -73 81q-6 22 -4 38t16 59l46 145q42 138 56 155q7 9 29.5 7.5t39.5 -11.5l20 -12
l40 37q48 44 73 60.5t64 29.5q42 15 55 16t27 -9q15 -11 27 -11q9 0 23 -16.5t21 -34.5q5 -16 -11.5 -32t-37.5 -16z" />
    <glyph glyph-name="s" unicode="s" horiz-adv-x="500" 
d="M275 616v-3q15 3 35 8.5t29.5 7.5t22.5 3.5t24 -0.5t24 -8q31 -13 41 -46.5t-9 -57.5q-12 -16 -74 -25q-93 -13 -108 -31q-3 -3 -1 -6q3 -6 45 -19q63 -19 87 -31t52 -40q61 -60 35 -120q-10 -25 -38.5 -37t-152.5 -44q-21 -6 -58.5 -20.5t-62 -24t-59.5 -16t-51 4.5
q-34 14 -46 49t10 54q14 12 52 14q24 1 95.5 22t105.5 37q10 5 22.5 9t18.5 6.5t6 5.5t-26 14t-55 23t-34 18q-8 10 -16 10q-9 0 -36 27t-33 43q-15 38 1.5 76t55.5 56l48 23q22 11 50 18z" />
    <glyph glyph-name="t" unicode="t" horiz-adv-x="576" 
d="M349 767l-2 1q18 23 34.5 25t46.5 -15q71 -40 0 -124q-22 -26 -19.5 -35t31.5 -9q19 0 26 -2.5t16 -11t21 -15.5q21 -12 23 -17q6 -17 -46.5 -50.5t-106.5 -46.5q-13 -3 -21.5 -7t-16 -12t-11.5 -14.5t-10 -23t-9 -28t-10.5 -39t-13.5 -47.5q-7 -25 -11 -47t-3 -35.5
t6 -13.5q3 0 10 7t18.5 16.5t22.5 15.5q8 4 60.5 46.5t87.5 55.5l41 15l25 -19q36 -27 17.5 -55.5t-142.5 -138.5q-75 -67 -110 -77q-25 -8 -35 -7.5t-32 9.5q-44 20 -66 66.5t-15 107.5q5 38 22 106q21 81 16 84q-1 1 -6 0q-21 -5 -65 -5t-57 5q-20 8 -37.5 32.5
t-19.5 46.5q-2 36 22 46t120 14q80 3 94.5 6t14.5 16q0 23 31 77l23 43q16 29 36 54z" />
    <glyph glyph-name="u" unicode="u" horiz-adv-x="661" 
d="M652 223h2q0 -7 -35.5 -50.5t-35.5 -46.5q0 -11 -24.5 -48.5t-68.5 -75t-85 -37.5q-22 0 -69 23q-26 13 -36 49.5t-11 66.5t-6 30q-6 1 -47.5 -48t-41.5 -57q0 -9 -34 -29t-45 -20q-32 0 -65.5 45t-33.5 90q0 58 17.5 139.5t19.5 106.5q2 32 11 58t15 65q7 50 14 59
q7 11 73 11q45 0 45 -12q0 -1 4 -11.5t4 -20.5q0 -23 -22 -50q-53 -199 -53 -272q0 -38 16 -38q23 0 76 70.5t120 170t100 136.5q1 2 5 2q13 0 38 -31t25 -43q0 -21 -36.5 -134.5t-62.5 -175.5q-11 -25 -11 -37q0 -9 6 -9q14 0 38.5 34t52.5 92q12 25 30 40.5t34 15.5
q12 0 44.5 -23.5t32.5 -34.5z" />
    <glyph glyph-name="v" unicode="v" horiz-adv-x="613" 
d="M474 618l-1 1q14 15 23 15.5t49 -12.5q21 -7 39 -21t18 -24q0 -14 -22 -46t-61.5 -84t-63.5 -91q-15 -23 -42 -59t-33 -45q-2 -3 -39 -59.5t-68 -108t-35 -68.5q-5 -21 -24 -35.5t-38 -12.5q-14 1 -25.5 7.5t-17.5 10t-11 0.5q-4 -1 -6.5 -1t-5 9t-4.5 23t-5 40
q-27 215 -41 297t-30 115q-17 36 -18.5 55t11.5 36q10 13 17 15.5t23 -0.5q50 -9 68 -49q9 -20 24 -99.5t26.5 -150t13.5 -72.5q1 -1 5.5 4.5t11.5 15t15.5 21t18 25t18 26t16 24t11.5 18.5q10 17 83 118.5t76 118.5q6 25 24 43z" />
    <glyph glyph-name="w" unicode="w" horiz-adv-x="780" 
d="M624 585l-1 -3q31 61 49 69t62 -16q26 -14 31 -20.5t5 -30.5q0 -20 -5.5 -33.5t-22.5 -36.5q-47 -63 -69 -100t-36 -68.5t-31 -58.5q-24 -41 -24 -46q0 -2 -5 -8.5t-19.5 -28t-31.5 -53.5q-24 -45 -37.5 -56.5t-40.5 -10.5q-34 1 -54 31.5t-42 116.5q-20 74 -25 81
q-3 3 -12 -6.5t-17.5 -25t-11.5 -28.5q-2 -9 -13.5 -30t-29.5 -73q-24 -64 -34 -76q-17 -19 -57.5 -8.5t-53.5 37.5q-5 11 -12.5 45t-15.5 76.5t-12 60.5q-9 34 -26.5 118.5t-20.5 105.5q-6 40 33.5 51t71.5 -21q13 -13 18.5 -26.5t7 -27t6 -45.5t12.5 -67q2 -9 3.5 -17
t2.5 -14t1.5 -11t0.5 -8v-5.5t0.5 -4t0.5 -2.5t1 -1.5t2 -0.5h4q11 0 11 7q0 15 55 114l44 83q15 29 22 36.5t21 7.5q32 0 75 -38q16 -13 16 -37q0 -23 15 -95.5t21 -79.5q9 -9 21.5 9t39 71t47.5 88q34 58 60 110z" />
    <glyph glyph-name="x" unicode="x" horiz-adv-x="541" 
d="M231 417l-5 -1q7 0 99.5 91.5t106.5 92.5q29 2 61.5 -27.5t32.5 -58.5q0 -11 -58 -60q-54 -46 -107.5 -102.5t-53.5 -67.5t14 -30q28 -39 50 -98t22 -94q0 -32 -41 -46t-65 10q-11 11 -15.5 26t-8.5 53q-2 27 -18.5 63t-24.5 33q-7 -2 -42 -48q-42 -56 -59.5 -73
t-32.5 -17t-44 20q-25 16 -29.5 24t-3.5 32q1 23 7.5 35t31.5 39q14 15 32 33t28.5 28t20 21t14 18.5t4.5 12.5q0 15 -42 75q-41 58 -52.5 84.5t-7.5 48.5q5 23 16.5 31.5t34.5 4.5q32 -5 55 -28t45 -69q26 -56 35 -56z" />
    <glyph glyph-name="y" unicode="y" horiz-adv-x="538" 
d="M463 400l3 2q0 -4 -25 -39.5t-25 -39.5q0 -3 -12.5 -22.5t-31 -49t-28.5 -50.5q-28 -57 -60.5 -109t-49.5 -76.5t-17 -30.5q0 -4 -9.5 -22.5t-23 -46t-21.5 -49.5q-14 -39 -28.5 -53.5t-42.5 -14.5q-20 0 -30 4.5t-26 20.5q-11 11 -16 19.5t-8 14.5t1 17t6.5 18t13 27.5
t17.5 34.5q24 52 50.5 92.5t39 58t12.5 26.5q0 10 9 25t8 37t-21 60q-12 23 -36 74.5t-24 55.5q0 5 -22 38t-37 69.5t-3 55.5q11 16 28.5 20.5t36.5 -3.5t37 -23.5t33 -39.5t21 -51q5 -21 34.5 -80t34.5 -59q3 0 14 20.5t34 61.5t49 77q43 60 40 70q-3 11 20 25
q30 15 39.5 14t17.5 -10.5t14 -9.5q7 0 28 -16q24 -18 21.5 -40.5t-32.5 -58.5q-33 -38 -33 -44z" />
    <glyph glyph-name="z" unicode="z" horiz-adv-x="608" 
d="M81 154l1 6q16 0 36.5 14t22.5 14q4 0 34 30l64 61q33 31 33 38q-4 4 -30.5 3.5t-63.5 -4t-55 -8.5q-28 -8 -62 9t-42 29q-10 13 -10 35.5t9 39.5q7 13 15.5 15t61.5 4q24 1 40 2t48.5 2.5t66.5 3.5q141 9 161 4q16 -4 40 -25q21 -19 27 -29t6 -26q0 -17 -8.5 -31
t-39.5 -48q-99 -110 -128 -127q-23 -13 14 -13q19 1 51 4q67 7 115 7q34 0 44.5 -4.5t33.5 -27.5q20 -20 26 -30.5t6 -26.5t-4 -23.5t-31.5 -15t-83.5 -7.5q-61 -1 -145 -11t-165 -15q-58 -4 -95.5 24t-35.5 72q3 55 43 55z" />
    <glyph glyph-name="braceleft" unicode="{" horiz-adv-x="433" 
d="M278 849q19 1 34 -8t20 -19l6 -10l4 -30q1 -5 1 -15q0 -30 -14.5 -54t-35.5 -24q-8 0 -36.5 9t-53.5 9q-18 0 -23.5 -9.5t-0.5 -25.5t13 -33t17 -37t12 -32q5 -21 10.5 -46t6.5 -30.5t3 -20t2 -24.5v-34q0 -47 -12 -83l-14 -42l17 -11q18 -12 39 -19q21 -8 30 -33t9 -44
q0 -18 -8.5 -42t-9.5 -45q-1 -20 -18.5 -65.5t-17.5 -91.5q0 -11 11 -15.5t43 -4.5q7 0 27 0.5t33 0.5q12 0 18 -7.5t6 -30.5q-2 -18 -19 -45l-22 -34h-169l-26 30q-25 23 -42 57l-16 33l20 38q14 25 26.5 93.5t17.5 81.5q1 2 1 6q0 14 -17.5 26t-38.5 12q-4 0 -11 -0.5
t-9 -0.5q-14 0 -22.5 9t-15.5 9q-10 0 -27.5 19.5t-17.5 36.5q0 37 17.5 64.5t38.5 39.5t38.5 26t17.5 28q-3 11 -8 29t-15.5 69.5t-16.5 97.5t-4.5 98.5t14.5 86.5q2 2 6 5.5t19.5 13t35 17t53.5 14t74 7.5z" />
    <glyph glyph-name="bar" unicode="|" horiz-adv-x="868" 
d="M857 -194q-3 -9 -4 2q1 10 4 11q4 -4 0 -13zM853 -146h-1q1 12 4 12q5 -11 0 -23q-2 6 -3 11zM853 -40v-1q0 39 2 36l1 -5q4 -34 -1 -62q-1 -4 -1 1q-1 8 -1 31zM856 39q-3 -9 -4 2q1 10 4 11q4 -4 0 -13zM852 235h-1q1 12 4 12q5 -11 0 -23q-2 6 -3 11zM13 729h1
q5 10 12 11.5t28 -1.5q38 -5 51.5 -25.5t14.5 -71.5q1 -92 25 -258q13 -85 14 -335l1 -250h-129l-4 40q-7 67 16 205q10 60 6 200.5t-17 214.5q-3 13 -11.5 106.5t-11.5 118.5q-4 30 4 45z" />
    <glyph glyph-name="braceright" unicode="}" horiz-adv-x="433" 
d="M126 849q63 -2 110 -16t62 -27l16 -14q20 -67 13 -152t-25 -157l-18 -72q0 -14 17.5 -28t38.5 -26t38.5 -39.5t17.5 -64.5q0 -17 -17.5 -36.5t-27.5 -19.5q-7 0 -15.5 -9t-22.5 -9q-2 0 -9 0.5t-11 0.5q-21 0 -38.5 -12t-17.5 -26q0 -4 1 -6q5 -13 17.5 -81.5t26.5 -93.5
l20 -38l-16 -33q-17 -34 -42 -57l-26 -30h-169l-22 34q-17 27 -19 45q0 23 6 30.5t18 7.5q13 0 33 -0.5t27 -0.5q32 0 43 4.5t11 15.5q0 46 -17.5 91.5t-18.5 65.5q-1 21 -9.5 45t-8.5 42q0 19 9 44t30 33q21 7 39 19l17 11l-14 42q-12 36 -12 83v34t2 24.5t3 20t6.5 30.5
t10.5 46q3 12 12 32t17 37t13 33t-0.5 25.5t-23.5 9.5q-25 0 -53.5 -9t-36.5 -9q-21 0 -35.5 24t-14.5 54q0 10 1 15l4 30q2 4 6 11t19.5 17t34.5 9z" />
    <glyph glyph-name="asciitilde" unicode="~" horiz-adv-x="740" 
d="M533 431h1q5 0 62.5 56t67.5 57q19 1 35.5 -9.5t24.5 -28.5q8 -17 7 -25.5t-17 -36.5q-22 -39 -74 -79q-161 -125 -221 -125q-23 0 -59.5 25t-58.5 55q-20 27 -26.5 30t-31.5 -6q-63 -23 -109 -88q-21 -30 -34.5 -35t-42.5 7q-36 15 -44.5 52.5t19.5 59.5q93 73 142 99.5
t92 26.5q61 0 104 -66q22 -33 32 -37q12 -5 71 31.5t60 36.5z" />
    <glyph glyph-name="cent" unicode="&#xa2;" horiz-adv-x="476" 
d="M299 785h-1q0 11 10 13t56 2h66l-9 -35q-8 -29 -28 -80q-23 -55 -22 -65.5t32 -14.5t46.5 -17.5t15.5 -29.5t-4.5 -29t-11.5 -22q-10 -12 -40 -12t-46 11q-14 10 -20.5 4.5t-15.5 -33.5q-9 -30 -14 -36q-7 -10 -32 -89t-22 -82t43 32t48 48q7 12 29.5 14.5t33.5 -7.5
q12 -11 9 -28.5t-23 -56.5q-31 -61 -74.5 -97.5t-90.5 -43.5q-29 -4 -42 -19t-21 -40t-18 -37q-6 -7 -14 -37.5t-23 -47.5q-11 -13 -20.5 -17t-28.5 -4q-31 0 -41 15q-13 18 -9 38.5t30 75.5q34 72 36.5 96t-23.5 59q-28 37 -41 84q-8 30 -8.5 45t5.5 39q11 44 60 89
t100.5 79t56.5 41q4 6 10.5 25.5l17.5 52.5t21 59q17 45 17 58zM177 399l-1 1q2 5 4.5 14t4.5 14t3 10.5t-0.5 6.5t-5 0t-11.5 -8.5t-20 -19.5q-19 -20 -23 -30t-2 -38q6 -123 51 50z" />
    <glyph glyph-name="sterling" unicode="&#xa3;" horiz-adv-x="622" 
d="M542 789l-4 -7q26 10 32 9.5t18 -14.5q13 -15 18.5 -42.5t-2.5 -44.5t-33 -17q-45 -1 -93 -18t-69 -39q-25 -28 -40 -72t-5 -63q6 -11 17.5 -12.5t63.5 1.5q48 3 64 1.5t31 -10.5q51 -31 30 -68t-89 -38q-37 0 -65 -5l-32 -5l-9 -49q-5 -27 -13 -54t-12.5 -39t-2.5 -14
t42 3.5t87 11t61 2.5q23 -4 44 -28.5t16 -41.5q-5 -20 -19 -34.5t-28 -13.5q-56 2 -88.5 -1.5t-75 -12.5t-89.5 -14q-92 -10 -180 -27q-42 -8 -51.5 -5.5t-24.5 23.5q-2 2 -3 3.5t-2.5 3.5t-2.5 4q-18 25 -22.5 36.5t-1.5 25.5q4 23 26.5 39t55.5 21q22 3 38 9t38 19t32 18
q31 16 58.5 52t21.5 52q-3 9 -106 15l-103 5l-17 22q-16 22 -20 50q-3 18 -0.5 26.5t14.5 21.5q32 33 59 9q11 -9 88 -12l77 -2l-2 30q-4 50 23 125.5t59 105.5q17 15 64.5 31.5t75.5 16.5q22 0 51 11z" />
    <glyph glyph-name="yen" unicode="&#xa5;" horiz-adv-x="680" 
d="M93 791l-2 2q-3 5 7 7t44 2h57l45 -65q71 -105 83 -131q6 -14 12 -18t14 0.5t20 18.5q21 25 119 172l14 23h163l-75 -113q-81 -125 -120 -167q-23 -26 -26.5 -33.5t4.5 -15.5q11 -11 22 -7q14 5 55.5 -6t51.5 -23q13 -14 18 -38q3 -15 0 -23t-16 -21q-16 -16 -30.5 -19
t-80.5 -5l-35 -1l-4 -62l45 5q68 8 87.5 5t56.5 -27q22 -14 27 -23.5t5 -32.5q0 -20 -9.5 -32t-30.5 -16.5t-42 -6t-56 -2.5t-60 -4q-28 -3 -34.5 -7t-10.5 -22q-13 -51 -19 -65.5t-19 -22.5q-46 -30 -81 22q-12 18 -17.5 34.5t-5 24.5t-3.5 13.5t-15 5.5q-18 1 -41 1.5
t-31 0.5t-20.5 1.5t-15.5 2.5t-11 5t-12 8l-12 12q-19 19 -23.5 29.5t-4.5 33.5q0 36 12 47q14 12 40 12.5t50 -10.5q26 -11 69 -10q33 2 39.5 5t10.5 21q7 25 -3 30.5t-53 -1.5q-120 -19 -144.5 -20.5t-42.5 9.5q-17 11 -33 36.5t-16 43.5q0 14 14 30q9 10 20.5 13t45.5 4
q58 2 116.5 7.5t68.5 10.5q13 7 11 18.5t-23 54.5q-27 55 -58.5 107t-64.5 101t-46 71z" />
    <glyph glyph-name="brokenbar" unicode="&#xa6;" horiz-adv-x="189" 
d="M15 -117v1q5 84 9 191q2 86 8 104.5t33 18.5q41 0 71 -34q11 -13 13 -19q3 -17 -6 -234q-1 -7 -1 -13l-4 -98h-128zM86 748q22 9 29 9q10 1 29.5 -23t20.5 -38t4.5 -165t7.5 -189q3 -31 -6 -55t-26 -29q-30 -8 -62.5 20t-31.5 61q0 11 2.5 75t3 102t-2.5 115
q-5 72 -0.5 88.5t32.5 28.5z" />
    <glyph glyph-name="section" unicode="&#xa7;" horiz-adv-x="521" 
d="M241 715l-2 3q22 7 62 7q45 0 61 -9q16 -8 40 -18t33 -15t16.5 -20t7.5 -40q0 -13 -22 -35l-26 -25l-36 14q-19 8 -32 15.5t-19.5 10.5t-18.5 3q-33 0 -72 -17.5t-39 -43.5q0 -17 9.5 -31.5t23.5 -14.5q6 0 25.5 -9t49.5 -23t54 -22q67 -22 94 -51t27 -72
q0 -33 -16.5 -61t-45.5 -42q-30 -15 -30 -20q0 -6 20 -15q29 -15 63.5 -63.5t34.5 -67.5q0 -43 -81 -114q-58 -51 -100.5 -67.5t-135.5 -16.5q-66 0 -106.5 17.5t-40.5 46.5q0 17 31 30.5t82 17.5q79 7 138 38t59 62q0 14 -60 17q-51 2 -89.5 14t-61 31.5t-36 36t-23 35.5
t-12.5 23q-2 2 -4 12.5t-4 29t-2 37.5q0 91 44 109q22 9 22 18l-21 32q-39 69 -39 117q0 21 8 39.5t22.5 31.5t29.5 23t35.5 17.5t33.5 11.5t30 8t19 5zM340 326l1 1q-55 53 -84 53t-56.5 -36.5t-27.5 -48.5q0 -3 21 -26t28 -23q22 0 42.5 8t34 19t23.5 22.5t15 19t5 8.5
t-2 3z" />
    <glyph glyph-name="dieresis" unicode="&#xa8;" horiz-adv-x="410" 
d="M35 570q-7 10 -7 16q-15 22 -9 57q11 30 48 41h17q21 1 37 -10.5t21 -31.5q13 -29 -4 -54q4 -2 4 -3q0 -10 -34 -21q-12 -4 -18 -5h-18q-30 -3 -37 11zM331 557q-18 0 -40 14q-39 17 -36.5 55t47.5 56q6 1 9 1q46 10 67.5 -25t-7.5 -68q-13 -33 -40 -33z" />
    <glyph glyph-name="guillemotleft" unicode="&#xab;" horiz-adv-x="655" 
d="M328 652l-1 4q19 -20 19 -41q0 -15 -10 -31q-1 -1 -14 -25t-21.5 -38t-24 -36t-32.5 -38.5t-35 -26.5q-26 -16 -26 -23q0 -25 32.5 -57.5t71 -58.5t70.5 -48t32 -28q0 -14 -14 -37t-16 -32q-3 -17 -25 -17q-20 0 -54 24.5t-36 24.5q-5 0 -46.5 36.5t-50.5 39.5
q-6 2 -22 20.5t-37 43t-33 35.5q-23 21 -23 50q0 20 10 44q8 17 35.5 39.5t41.5 22.5q9 0 54 51.5t77 93.5q20 25 43 25q20 0 35 -17zM568 652l-1 4q19 -20 19 -41q0 -15 -10 -31q-1 -1 -14 -25t-21.5 -38t-24 -36t-32.5 -38.5t-35 -26.5q-26 -16 -26 -23q0 -25 32.5 -57.5
t71 -58.5t70.5 -48t32 -28q0 -14 -14 -37t-16 -32q-3 -17 -25 -17q-20 0 -54 24.5t-36 24.5q-5 0 -46.5 36.5t-50.5 39.5q-6 2 -22 20.5t-37 43t-33 35.5q-23 21 -23 50q0 20 10 44q8 17 35.5 39.5t41.5 22.5q9 0 54 51.5t77 93.5q20 25 43 25q20 0 35 -17z" />
    <glyph glyph-name="acute" unicode="&#xb4;" horiz-adv-x="383" 
d="M44 635h-1q2 4 17.5 14.5t30.5 16.5q4 1 9 1q11 2 16 7q13 14 35 32q22 19 68 19q42 21 60 21q28 0 48.5 -14.5t20.5 -38.5q0 -6 -6 -12t-14.5 -13t-12.5 -12l1 -1q-4 -7 -39 -23l-103 -53q-68 -35 -83 -35q-26 0 -41.5 20.5t-15.5 47.5q0 8 10 23z" />
    <glyph glyph-name="periodcentered" unicode="&#xb7;" horiz-adv-x="215" 
d="M68 387l-1 1q13 8 21.5 10t22.5 -1.5t19 -3.5q16 -1 35.5 -29t21.5 -51t-6 -37.5t-34 -31.5q-20 -14 -33 -12t-47 26q-19 13 -23.5 21.5t-5.5 32.5q-1 34 5 48t25 27z" />
    <glyph glyph-name="cedilla" unicode="&#xb8;" horiz-adv-x="349" 
d="M211 -66q-28 -12 -46.5 4t-11.5 42q-11 14 -7 33v1q0 2 1 3v2q1 4 2 10t1 7q8 29 31 40q30 7 45.5 -13.5t2.5 -44.5q29 -5 48.5 -35t23 -65t-13.5 -67.5t-52 -42.5q-33 -9 -70 -4q-26 3 -66 28q-34 23 -47 91q0 37 31 43.5t47 -25.5q7 -38 29 -53t60 1q1 2 1 4
q0 3 -2.5 19t-3.5 24q-1 0 -3 -2zM230 29q-1 -1 -1 -2q0 1 1 2z" />
    <glyph glyph-name="guillemotright" unicode="&#xbb;" horiz-adv-x="655" 
d="M94 656l-1 -4q15 17 35 17q23 0 43 -25q32 -42 77 -93.5t54 -51.5q14 0 41.5 -22.5t35.5 -39.5q10 -24 10 -44q0 -29 -23 -50q-12 -11 -33 -35.5t-37 -43t-22 -20.5q-9 -3 -50.5 -39.5t-46.5 -36.5q-2 0 -36 -24.5t-54 -24.5q-22 0 -25 17q-2 9 -16 32t-14 37q0 6 32 28
t70.5 48t71 58.5t32.5 57.5q0 7 -26 23q-18 10 -35 26.5t-32.5 38.5t-24 36t-21.5 38t-14 25q-10 16 -10 31q0 21 19 41zM334 656l-1 -4q15 17 35 17q23 0 43 -25q32 -42 77 -93.5t54 -51.5q14 0 41.5 -22.5t35.5 -39.5q10 -24 10 -44q0 -29 -23 -50q-12 -11 -33 -35.5
t-37 -43t-22 -20.5q-9 -3 -50.5 -39.5t-46.5 -36.5q-2 0 -36 -24.5t-54 -24.5q-22 0 -25 17q-2 9 -16 32t-14 37q0 6 32 28t70.5 48t71 58.5t32.5 57.5q0 7 -26 23q-18 10 -35 26.5t-32.5 38.5t-24 36t-21.5 38t-14 25q-10 16 -10 31q0 21 19 41z" />
    <glyph glyph-name="Agrave" unicode="&#xc0;" horiz-adv-x="702" 
d="M415 634q71 89 124 111q21 -1 39 -17.5t26 -32.5l7 -16l-5 -122q-3 -76 -11.5 -196.5t-11.5 -203.5q-2 -72 -6 -99t-14 -36.5t-35 -9.5q-22 0 -27 4.5t-13 29.5q-9 33 -5 99t10 105t-2 55q-4 3 -23 -3t-48 -14t-51 -8q-28 0 -38.5 -5.5t-34.5 -2.5l-30 4l-44 -59
q-20 -27 -45 -62.5t-34.5 -48t-23.5 -27.5t-26 -20t-29 -7q-37 -5 -46 8q-12 16 -8.5 35t20.5 32q13 10 22 21t23.5 32t24.5 34q7 9 58 82t68 92q20 23 77 96.5t66 89.5q6 13 46 60zM512 573q-5 20 -18 6q-5 -6 -14 -19q-7 -10 -89 -115q-48 -61 -36 -62q4 0 13 5q8 4 33 7
t38 11q13 7 35 10t28 10q6 8 10 69t0 78zM419 872v1h1q-27 28 -10.5 62t62.5 36q41 -10 106 -59q4 -3 15.5 -6.5t18 -7t2.5 -6.5q32 -12 41.5 -39t-5.5 -48q-8 -42 -55 -44t-88 39q-15 15 -37 32.5t-36.5 28t-14.5 11.5z" />
    <glyph glyph-name="Aacute" unicode="&#xc1;" horiz-adv-x="673" 
d="M415 634q71 89 124 111q21 -1 39 -17.5t26 -32.5l7 -16l-5 -122q-3 -76 -11.5 -196.5t-11.5 -203.5q-2 -72 -6 -99t-14 -36.5t-35 -9.5q-22 0 -27 4.5t-13 29.5q-9 33 -5 99t10 105t-2 55q-4 3 -23 -3t-48 -14t-51 -8q-28 0 -38.5 -5.5t-34.5 -2.5l-30 4l-44 -59
q-20 -27 -45 -62.5t-34.5 -48t-23.5 -27.5t-26 -20t-29 -7q-37 -5 -46 8q-12 16 -8.5 35t20.5 32q13 10 22 21t23.5 32t24.5 34q7 9 58 82t68 92q20 23 77 96.5t66 89.5q6 13 46 60zM512 573q-5 20 -18 6q-5 -6 -14 -19q-7 -10 -89 -115q-48 -61 -36 -62q4 0 13 5q8 4 33 7
t38 11q13 7 35 10t28 10q6 8 10 69t0 78zM358 830h-1q2 4 17.5 14.5t30.5 16.5q20 3 23 6q18 18 35 32l2 2q22 19 68 19q42 21 60 21q28 0 48.5 -14.5t20.5 -38.5q0 -6 -6 -12t-14.5 -13t-12.5 -12l1 -1q-4 -7 -39 -23l-103 -53q-68 -35 -83 -35q-26 0 -41.5 20.5
t-15.5 47.5q0 8 10 23z" />
    <glyph glyph-name="Acircumflex" unicode="&#xc2;" horiz-adv-x="710" 
d="M415 634q71 89 124 111q21 -1 39 -17.5t26 -32.5l7 -16l-5 -122q-3 -76 -11.5 -196.5t-11.5 -203.5q-2 -72 -6 -99t-14 -36.5t-35 -9.5q-22 0 -27 4.5t-13 29.5q-9 33 -5 99t10 105t-2 55q-4 3 -23 -3t-48 -14t-51 -8q-28 0 -38.5 -5.5t-34.5 -2.5l-30 4l-44 -59
q-20 -27 -45 -62.5t-34.5 -48t-23.5 -27.5t-26 -20t-29 -7q-37 -5 -46 8q-12 16 -8.5 35t20.5 32q13 10 22 21t23.5 32t24.5 34q7 9 58 82t68 92q20 23 77 96.5t66 89.5q6 13 46 60zM512 573q-5 20 -18 6q-5 -6 -14 -19q-7 -10 -89 -115q-48 -61 -36 -62q4 0 13 5q8 4 33 7
t38 11q13 7 35 10t28 10q6 8 10 69t0 78zM413 774q-10 11 -10 26t8 21q0 2 -0.5 5.5t-0.5 4.5q0 15 12.5 26.5t29.5 12.5l2 2q3 5 6 9t8 7.5t7.5 5t9.5 5l9 4.5q33 39 63 39q25 0 57 -32q2 -2 13.5 -15t20.5 -20t18 -11q23 -18 23 -40q-1 -25 -11 -42.5t-21 -21t-20 3.5
q-31 35 -59 62l-20 22q-6 -7 -20 -17h7l-37 -35q-26 -25 -35 -30t-26 -5q-25 0 -34 13z" />
    <glyph glyph-name="Atilde" unicode="&#xc3;" horiz-adv-x="782" 
d="M415 634q71 89 124 111q21 -1 39 -17.5t26 -32.5l7 -16l-5 -122q-3 -76 -11.5 -196.5t-11.5 -203.5q-2 -72 -6 -99t-14 -36.5t-35 -9.5q-22 0 -27 4.5t-13 29.5q-9 33 -5 99t10 105t-2 55q-4 3 -23 -3t-48 -14t-51 -8q-28 0 -38.5 -5.5t-34.5 -2.5l-30 4l-44 -59
q-20 -27 -45 -62.5t-34.5 -48t-23.5 -27.5t-26 -20t-29 -7q-37 -5 -46 8q-12 16 -8.5 35t20.5 32q13 10 22 21t23.5 32t24.5 34q7 9 58 82t68 92q20 23 77 96.5t66 89.5q6 13 46 60zM512 573q-5 20 -18 6q-5 -6 -14 -19q-7 -10 -89 -115q-48 -61 -36 -62q4 0 13 5q8 4 33 7
t38 11q13 7 35 10t28 10q6 8 10 69t0 78zM316 859l4 5q17 34 66 69q29 22 37 25q17 5 47 -4q18 0 34 -8t24.5 -15.5t24.5 -26t21 -23.5q4 -3 15 -3h6q6 0 12 2t11 3.5t11.5 6t10 7t10.5 8.5t9 8t9.5 9t8.5 8q25 20 49 13.5t28.5 -28.5t-13.5 -49l-5 -5q-10 -18 -33.5 -41.5
t-40.5 -32.5q-11 -6 -59 -8q-31 0 -42.5 2t-25.5 11q-11 7 -29.5 24t-33 28t-25.5 11q-8 0 -45 -39l-7 -6q-10 -20 -28 -26q-17 -12 -26 -10t-23 17q-31 39 -2 68z" />
    <glyph glyph-name="Adieresis" unicode="&#xc4;" horiz-adv-x="625" 
d="M415 634q71 89 124 111q21 -1 39 -17.5t26 -32.5l7 -16l-5 -122q-3 -76 -11.5 -196.5t-11.5 -203.5q-2 -72 -6 -99t-14 -36.5t-35 -9.5q-22 0 -27 4.5t-13 29.5q-9 33 -5 99t10 105t-2 55q-4 3 -23 -3t-48 -14t-51 -8q-28 0 -38.5 -5.5t-34.5 -2.5l-30 4l-44 -59
q-20 -27 -45 -62.5t-34.5 -48t-23.5 -27.5t-26 -20t-29 -7q-37 -5 -46 8q-12 16 -8.5 35t20.5 32q13 10 22 21t23.5 32t24.5 34q7 9 58 82t68 92q20 23 77 96.5t66 89.5q6 13 46 60zM512 573q-5 20 -18 6q-5 -6 -14 -19q-7 -10 -89 -115q-48 -61 -36 -62q4 0 13 5q8 4 33 7
t38 11q13 7 35 10t28 10q6 8 10 69t0 78zM136 770q-7 10 -7 16q-15 22 -9 57q11 30 48 41h17q21 1 37 -10.5t21 -31.5q13 -29 -4 -54q4 -2 4 -3q0 -10 -34 -21q-12 -4 -18 -5h-18q-30 -3 -37 11zM432 757q-18 0 -40 14q-39 17 -36.5 55t47.5 56q6 1 9 1q46 10 67.5 -25
t-7.5 -68q-13 -33 -40 -33z" />
    <glyph glyph-name="Aring" unicode="&#xc5;" horiz-adv-x="704" 
d="M415 634q71 89 124 111q21 -1 39 -17.5t26 -32.5l7 -16l-5 -122q-3 -76 -11.5 -196.5t-11.5 -203.5q-2 -72 -6 -99t-14 -36.5t-35 -9.5q-22 0 -27 4.5t-13 29.5q-9 33 -5 99t10 105t-2 55q-4 3 -23 -3t-48 -14t-51 -8q-28 0 -38.5 -5.5t-34.5 -2.5l-30 4l-44 -59
q-20 -27 -45 -62.5t-34.5 -48t-23.5 -27.5t-26 -20t-29 -7q-37 -5 -46 8q-12 16 -8.5 35t20.5 32q13 10 22 21t23.5 32t24.5 34q7 9 58 82t68 92q20 23 77 96.5t66 89.5q6 13 46 60zM512 573q-5 20 -18 6q-5 -6 -14 -19q-7 -10 -89 -115q-48 -61 -36 -62q4 0 13 5q8 4 33 7
t38 11q13 7 35 10t28 10q6 8 10 69t0 78zM441 822q0 48 34 82t82 34t82 -34t34 -82t-34 -82t-82 -34t-82 34t-34 82zM481 822q0 -32 22.5 -54t53.5 -22t53.5 22t22.5 54t-22.5 54t-53.5 22t-53.5 -22t-22.5 -54z" />
    <glyph glyph-name="AE" unicode="&#xc6;" horiz-adv-x="1112" 
d="M435 636q71 89 124 111q16 -2 28 -9q56 17 126.5 31t156.5 19.5t124 -17.5l5 -3l-61 -29q-42 -19 -77 -32t-47 -17.5t-17 -10.5q-7 -9 -50 -24q-52 -18 -62.5 -28t-11.5 -39q-2 -35 3 -48q3 -8 5 -27.5t3.5 -35t4.5 -18.5q19 -12 113 50q31 20 45.5 26t29.5 4
q39 -4 45 -35.5t-25 -66.5q-20 -24 -58 -51.5t-62 -36.5q-11 -4 -22 -12t-18.5 -12t-14.5 -2q-16 4 -25.5 -8.5t-16.5 -46.5q-22 -109 -14 -115q5 -3 19 4t64 28t117 43l81 26q52 17 76 15.5t44 -22.5q13 -14 15.5 -20.5t-1.5 -19.5q-7 -19 -43 -36.5t-96.5 -37.5t-84.5 -30
l-99 -43q-28 -12 -61 -27.5t-45.5 -20.5t-29.5 -9.5t-28.5 -1t-27.5 13.5q-5 -1 -18 -1q-22 0 -27 4t-13 30q-9 33 -5 99t10 105t-2 55q-4 3 -23 -3t-48 -14t-51 -8q-28 0 -38.5 -5.5t-34.5 -2.5l-30 4l-44 -59q-20 -27 -45 -62.5t-34.5 -48t-23.5 -27.5t-26 -20t-29 -7
q-37 -5 -46 8q-12 16 -8.5 35t20.5 32q13 10 22 21t23.5 32t24.5 34q7 9 58 82t68 92q20 23 77 96.5t66 89.5q6 13 46 60zM532 575q-5 20 -18 6q-5 -6 -14 -19q-7 -10 -89 -115q-48 -61 -36 -62q4 0 13 5q8 4 33 7t38 11q13 7 35 10t28 10q6 8 10 69t0 78z" />
    <glyph glyph-name="Ccedilla" unicode="&#xc7;" horiz-adv-x="527" 
d="M284 693l-2 1q32 16 49.5 19.5t70.5 3.5q51 0 65.5 -2.5t25.5 -12.5q28 -27 3 -57q-9 -11 -19 -13.5t-44 -0.5q-12 2 -26 0.5t-18.5 -1t-14 -3t-12.5 -5l-14 -7l-19 -9.5q-30 -14 -87 -70t-85 -99q-26 -40 -35 -77t-9 -100q0 -74 38 -129q10 -15 19 -17t47 1
q49 4 112.5 30t68.5 28q19 6 25 12q9 8 47 10t46 -5q10 -8 8 -28t-15 -32q-15 -14 -79.5 -44.5t-117.5 -48.5q-46 -15 -106.5 -18.5t-72.5 8.5q-9 9 -20 9t-33 24t-33 47q-19 44 -24 76t-5 108v17q0 45 1 63.5t11.5 47.5t29.5 57t58 78q26 34 78.5 78t87.5 61zM281 -66
q-28 -12 -46.5 4t-11.5 42q-11 14 -7 33v1q0 2 1 3v2q1 4 2 10t1 7q8 29 31 40q30 7 45.5 -13.5t2.5 -44.5q29 -5 48.5 -35t23 -65t-13.5 -67.5t-52 -42.5q-33 -9 -70 -4q-26 3 -66 28q-34 23 -47 91q0 37 31 43.5t47 -25.5q7 -38 29 -53t60 1q1 2 1 4q0 3 -2.5 19t-3.5 24
q-1 0 -3 -2zM300 29q-1 -1 -1 -2q0 1 1 2z" />
    <glyph glyph-name="Egrave" unicode="&#xc8;" horiz-adv-x="753" 
d="M287 716l1 -1q10 8 105.5 24t196 19.5t150.5 -26.5l4 -3l-71 -24q-48 -16 -87 -26t-52.5 -13.5t-20.5 -9.5q-11 -9 -58 -20q-57 -14 -71.5 -23t-26.5 -37q-15 -34 -15 -47q0 -8 -6 -27.5t-11 -34.5t-2 -18q14 -14 129 41q61 29 85 24q23 -4 29 -20t-7.5 -38t-41.5 -43
q-29 -22 -76.5 -46t-74.5 -31q-12 -3 -26 -10t-22.5 -11t-15.5 -1q-25 10 -61 -50q-64 -105 -58 -111q4 -3 20 2.5t73 23t130 33.5l89 20q58 13 80.5 10t33.5 -25q8 -15 7.5 -21t-9.5 -19q-14 -18 -55.5 -32.5t-108 -29.5t-94.5 -24l-113 -35q-32 -10 -71 -23.5t-53 -18
t-32.5 -7t-28.5 3t-22 17.5q-15 15 -17.5 28t1.5 21.5t21.5 35t29.5 49.5q14 26 49.5 85t57.5 109t48 136q4 14 13 35.5t13 33t2.5 26t-12.5 26.5q-15 16 -10 40q4 19 15.5 34t21.5 15q9 0 25 14zM268 862v1h1q-27 28 -10.5 62t62.5 36q41 -10 106 -59q4 -3 15.5 -6.5t18 -7
t2.5 -6.5q32 -12 41.5 -39t-5.5 -48q-8 -42 -55 -44t-88 39q-15 15 -37 32.5t-36.5 28t-14.5 11.5z" />
    <glyph glyph-name="Eacute" unicode="&#xc9;" horiz-adv-x="753" 
d="M287 716l1 -1q10 8 105.5 24t196 19.5t150.5 -26.5l4 -3l-71 -24q-48 -16 -87 -26t-52.5 -13.5t-20.5 -9.5q-11 -9 -58 -20q-57 -14 -71.5 -23t-26.5 -37q-15 -34 -15 -47q0 -8 -6 -27.5t-11 -34.5t-2 -18q14 -14 129 41q61 29 85 24q23 -4 29 -20t-7.5 -38t-41.5 -43
q-29 -22 -76.5 -46t-74.5 -31q-12 -3 -26 -10t-22.5 -11t-15.5 -1q-25 10 -61 -50q-64 -105 -58 -111q4 -3 20 2.5t73 23t130 33.5l89 20q58 13 80.5 10t33.5 -25q8 -15 7.5 -21t-9.5 -19q-14 -18 -55.5 -32.5t-108 -29.5t-94.5 -24l-113 -35q-32 -10 -71 -23.5t-53 -18
t-32.5 -7t-28.5 3t-22 17.5q-15 15 -17.5 28t1.5 21.5t21.5 35t29.5 49.5q14 26 49.5 85t57.5 109t48 136q4 14 13 35.5t13 33t2.5 26t-12.5 26.5q-15 16 -10 40q4 19 15.5 34t21.5 15q9 0 25 14zM229 835h-1q2 4 17.5 14.5t30.5 16.5q20 3 23 6q18 18 35 32l2 2
q22 19 68 19q42 21 60 21q28 0 48.5 -14.5t20.5 -38.5q0 -6 -6 -12t-14.5 -13t-12.5 -12l1 -1q-4 -7 -39 -23l-103 -53q-68 -35 -83 -35q-26 0 -41.5 20.5t-15.5 47.5q0 8 10 23z" />
    <glyph glyph-name="Ecircumflex" unicode="&#xca;" horiz-adv-x="753" 
d="M287 716l1 -1q10 8 105.5 24t196 19.5t150.5 -26.5l4 -3l-71 -24q-48 -16 -87 -26t-52.5 -13.5t-20.5 -9.5q-11 -9 -58 -20q-57 -14 -71.5 -23t-26.5 -37q-15 -34 -15 -47q0 -8 -6 -27.5t-11 -34.5t-2 -18q14 -14 129 41q61 29 85 24q23 -4 29 -20t-7.5 -38t-41.5 -43
q-29 -22 -76.5 -46t-74.5 -31q-12 -3 -26 -10t-22.5 -11t-15.5 -1q-25 10 -61 -50q-64 -105 -58 -111q4 -3 20 2.5t73 23t130 33.5l89 20q58 13 80.5 10t33.5 -25q8 -15 7.5 -21t-9.5 -19q-14 -18 -55.5 -32.5t-108 -29.5t-94.5 -24l-113 -35q-32 -10 -71 -23.5t-53 -18
t-32.5 -7t-28.5 3t-22 17.5q-15 15 -17.5 28t1.5 21.5t21.5 35t29.5 49.5q14 26 49.5 85t57.5 109t48 136q4 14 13 35.5t13 33t2.5 26t-12.5 26.5q-15 16 -10 40q4 19 15.5 34t21.5 15q9 0 25 14zM243 774q-10 11 -10 26t8 21q0 2 -0.5 5.5t-0.5 4.5q0 15 12.5 26.5
t29.5 12.5l2 2q3 5 6 9t8 7.5t7.5 5t9.5 5l9 4.5q33 39 63 39q25 0 57 -32q2 -2 13.5 -15t20.5 -20t18 -11q23 -18 23 -40q-1 -25 -11 -42.5t-21 -21t-20 3.5q-31 35 -59 62l-20 22q-6 -7 -20 -17h7l-37 -35q-26 -25 -35 -30t-26 -5q-25 0 -34 13z" />
    <glyph glyph-name="Edieresis" unicode="&#xcb;" horiz-adv-x="753" 
d="M287 716l1 -1q10 8 105.5 24t196 19.5t150.5 -26.5l4 -3l-71 -24q-48 -16 -87 -26t-52.5 -13.5t-20.5 -9.5q-11 -9 -58 -20q-57 -14 -71.5 -23t-26.5 -37q-15 -34 -15 -47q0 -8 -6 -27.5t-11 -34.5t-2 -18q14 -14 129 41q61 29 85 24q23 -4 29 -20t-7.5 -38t-41.5 -43
q-29 -22 -76.5 -46t-74.5 -31q-12 -3 -26 -10t-22.5 -11t-15.5 -1q-25 10 -61 -50q-64 -105 -58 -111q4 -3 20 2.5t73 23t130 33.5l89 20q58 13 80.5 10t33.5 -25q8 -15 7.5 -21t-9.5 -19q-14 -18 -55.5 -32.5t-108 -29.5t-94.5 -24l-113 -35q-32 -10 -71 -23.5t-53 -18
t-32.5 -7t-28.5 3t-22 17.5q-15 15 -17.5 28t1.5 21.5t21.5 35t29.5 49.5q14 26 49.5 85t57.5 109t48 136q4 14 13 35.5t13 33t2.5 26t-12.5 26.5q-15 16 -10 40q4 19 15.5 34t21.5 15q9 0 25 14zM200 770q-7 10 -7 16q-15 22 -9 57q11 30 48 41h17q21 1 37 -10.5t21 -31.5
q13 -29 -4 -54q4 -2 4 -3q0 -10 -34 -21q-12 -4 -18 -5h-18q-30 -3 -37 11zM496 757q-18 0 -40 14q-39 17 -36.5 55t47.5 56q6 1 9 1q46 10 67.5 -25t-7.5 -68q-13 -33 -40 -33z" />
    <glyph glyph-name="Igrave" unicode="&#xcc;" horiz-adv-x="772" 
d="M438 684l-2 -3q4 22 31 33.5t62 -9.5q23 -15 55.5 -11.5t61.5 15t58 7.5t44 -33q10 -19 11 -26t-7 -19q-10 -15 -31.5 -23.5t-96.5 -26.5q-81 -20 -89 -28q-6 -6 -24.5 -52.5t-43 -111.5t-38.5 -96q-22 -48 -38 -92l-16 -45l30 5q42 7 105 33.5t87 48.5q20 18 35.5 18.5
t32.5 -15.5q24 -22 21.5 -44t-32.5 -50q-71 -65 -297 -121q-65 -16 -178 -16q-92 0 -118 6.5t-45 35.5q-8 12 -7 19t11 28q11 22 17 25.5t28 0.5q181 -27 181 12q0 12 18 44.5t18 41.5t10 30t35 77t52 127q25 69 24 72q-2 3 -70 5q-62 1 -90.5 11t-40.5 36q-13 28 -6 52.5
t32 36.5q20 10 27 9t30 -14q44 -26 122 -12q28 5 31 19zM278 862v1h1q-27 28 -10.5 62t62.5 36q41 -10 106 -59q4 -3 15.5 -6.5t18 -7t2.5 -6.5q32 -12 41.5 -39t-5.5 -48q-8 -42 -55 -44t-88 39q-15 15 -37 32.5t-36.5 28t-14.5 11.5z" />
    <glyph glyph-name="Iacute" unicode="&#xcd;" horiz-adv-x="772" 
d="M438 684l-2 -3q4 22 31 33.5t62 -9.5q23 -15 55.5 -11.5t61.5 15t58 7.5t44 -33q10 -19 11 -26t-7 -19q-10 -15 -31.5 -23.5t-96.5 -26.5q-81 -20 -89 -28q-6 -6 -24.5 -52.5t-43 -111.5t-38.5 -96q-22 -48 -38 -92l-16 -45l30 5q42 7 105 33.5t87 48.5q20 18 35.5 18.5
t32.5 -15.5q24 -22 21.5 -44t-32.5 -50q-71 -65 -297 -121q-65 -16 -178 -16q-92 0 -118 6.5t-45 35.5q-8 12 -7 19t11 28q11 22 17 25.5t28 0.5q181 -27 181 12q0 12 18 44.5t18 41.5t10 30t35 77t52 127q25 69 24 72q-2 3 -70 5q-62 1 -90.5 11t-40.5 36q-13 28 -6 52.5
t32 36.5q20 10 27 9t30 -14q44 -26 122 -12q28 5 31 19zM239 835h-1q2 4 17.5 14.5t30.5 16.5q20 3 23 6q18 18 35 32l2 2q22 19 68 19q42 21 60 21q28 0 48.5 -14.5t20.5 -38.5q0 -6 -6 -12t-14.5 -13t-12.5 -12l1 -1q-4 -7 -39 -23l-103 -53q-68 -35 -83 -35
q-26 0 -41.5 20.5t-15.5 47.5q0 8 10 23z" />
    <glyph glyph-name="Icircumflex" unicode="&#xce;" horiz-adv-x="772" 
d="M438 684l-2 -3q4 22 31 33.5t62 -9.5q23 -15 55.5 -11.5t61.5 15t58 7.5t44 -33q10 -19 11 -26t-7 -19q-10 -15 -31.5 -23.5t-96.5 -26.5q-81 -20 -89 -28q-6 -6 -24.5 -52.5t-43 -111.5t-38.5 -96q-22 -48 -38 -92l-16 -45l30 5q42 7 105 33.5t87 48.5q20 18 35.5 18.5
t32.5 -15.5q24 -22 21.5 -44t-32.5 -50q-71 -65 -297 -121q-65 -16 -178 -16q-92 0 -118 6.5t-45 35.5q-8 12 -7 19t11 28q11 22 17 25.5t28 0.5q181 -27 181 12q0 12 18 44.5t18 41.5t10 30t35 77t52 127q25 69 24 72q-2 3 -70 5q-62 1 -90.5 11t-40.5 36q-13 28 -6 52.5
t32 36.5q20 10 27 9t30 -14q44 -26 122 -12q28 5 31 19zM253 774q-10 11 -10 26t8 21q0 2 -0.5 5.5t-0.5 4.5q0 15 12.5 26.5t29.5 12.5l2 2q3 5 6 9t8 7.5t7.5 5t9.5 5l9 4.5q33 39 63 39q25 0 57 -32q2 -2 13.5 -15t20.5 -20t18 -11q23 -18 23 -40q-1 -25 -11 -42.5
t-21 -21t-20 3.5q-31 35 -59 62l-20 22q-6 -7 -20 -17h7l-37 -35q-26 -25 -35 -30t-26 -5q-25 0 -34 13z" />
    <glyph glyph-name="Idieresis" unicode="&#xcf;" horiz-adv-x="772" 
d="M438 684l-2 -3q4 22 31 33.5t62 -9.5q23 -15 55.5 -11.5t61.5 15t58 7.5t44 -33q10 -19 11 -26t-7 -19q-10 -15 -31.5 -23.5t-96.5 -26.5q-81 -20 -89 -28q-6 -6 -24.5 -52.5t-43 -111.5t-38.5 -96q-22 -48 -38 -92l-16 -45l30 5q42 7 105 33.5t87 48.5q20 18 35.5 18.5
t32.5 -15.5q24 -22 21.5 -44t-32.5 -50q-71 -65 -297 -121q-65 -16 -178 -16q-92 0 -118 6.5t-45 35.5q-8 12 -7 19t11 28q11 22 17 25.5t28 0.5q181 -27 181 12q0 12 18 44.5t18 41.5t10 30t35 77t52 127q25 69 24 72q-2 3 -70 5q-62 1 -90.5 11t-40.5 36q-13 28 -6 52.5
t32 36.5q20 10 27 9t30 -14q44 -26 122 -12q28 5 31 19zM209 770q-7 10 -7 16q-15 22 -9 57q11 30 48 41h5.5h6.5h5q21 1 37 -10.5t21 -31.5q13 -29 -4 -54q4 -2 4 -3q0 -10 -34 -21q-12 -4 -18 -5h-18q-30 -3 -37 11zM505 757q-18 0 -40 14q-39 17 -36.5 55t47.5 56
q6 1 9 1q46 10 67.5 -25t-7.5 -68q-13 -33 -40 -33z" />
    <glyph glyph-name="Eth" unicode="&#xd0;" horiz-adv-x="599" 
d="M67 368h-4q-19 0 -29.5 12t-10.5 28q0 15 10 27t28 13l75 5q17 110 19 193l1 39l3 20q8 61 89 61q74 0 175 -46.5t138 -91.5q27 -34 27 -112q0 -79 -31 -164q-10 -27 -41 -71.5t-76 -93t-105 -87.5t-117 -48q-34 -6 -51.5 -18.5t-26.5 -21.5t-24 -9q-20 0 -31.5 5.5
t-16 13t-13 25t-18.5 31.5l-26 37l15 29q14 29 32 29q23 0 35 41.5t31 157.5zM455 621q-2 2 -9 8.5t-10.5 9t-11 8.5t-12 8.5t-12 7t-14 6.5t-14.5 3.5t-16 1.5q-15 0 -28 -4q-44 -12 -59.5 -32t-15.5 -47q0 -7 1 -19t1 -17q0 -23 -13 -95l80 6h4q18 0 29 -12t11 -28
q0 -15 -10 -27t-28 -13l-101 -7l-2 -16q-10 -68 -20 -116t-15 -65l-6 -17q0 -14 10 -14t81 34q36 17 86 62.5t64 73.5q8 17 17 31q5 6 15.5 31t21 67.5t10.5 77.5q0 63 -34 93z" />
    <glyph glyph-name="Ntilde" unicode="&#xd1;" horiz-adv-x="737" 
d="M419 300l-2 1q0 8 25 64t25 58q0 5 19 45.5t45.5 96t38.5 84.5q47 115 62 125q7 5 36.5 1t37.5 -11q9 -7 16 -33q5 -18 1 -33.5t-29 -63.5t-45 -81.5t-26.5 -43t-6.5 -14.5q0 -3 -25 -63t-25 -68q0 -4 -5 -11.5t-17 -29.5t-24 -57q-17 -49 -38 -89.5t-32 -59.5t-11 -28
q0 -10 -16.5 -21t-30.5 -11q-15 0 -39 11q-9 4 -14.5 8.5t-9.5 13.5t-5.5 18t-3.5 28t-3 38.5t-3.5 54t-6.5 68.5q-3 27 -7.5 87t-8 96.5t-6.5 36.5q-5 0 -24.5 -43t-40.5 -91.5t-26 -56.5q-17 -26 -34.5 -63t-17.5 -47q0 -14 -18.5 -40.5t-28.5 -26.5q-20 0 -49.5 25.5
t-34.5 47.5q-4 14 5.5 30t28.5 41t30 47q5 10 19.5 32t30.5 62q17 42 64 132t52 100q32 70 40 79.5t35 8.5q21 -1 30 -5t19 -17q16 -20 16 -38q5 -157 13.5 -236t9.5 -125q0 -44 8 -44q7 0 7 11zM145 837l4 5q17 34 66 69q29 22 37 25q17 5 47 -4q18 0 34 -8t24.5 -15.5
t24.5 -26t21 -23.5q4 -3 15 -3h6q6 0 12 2t11 3.5t11.5 6t10 7t10.5 8.5t9 8t9.5 9t8.5 8q25 20 49 13.5t28.5 -28.5t-13.5 -49l-5 -5q-10 -18 -33.5 -41.5t-40.5 -32.5q-11 -6 -59 -8q-31 0 -42.5 2t-25.5 11q-11 7 -29.5 24t-33 28t-25.5 11q-8 0 -45 -39l-7 -6
q-10 -20 -28 -26q-17 -12 -26 -10t-23 17q-31 39 -2 68z" />
    <glyph glyph-name="Ograve" unicode="&#xd2;" horiz-adv-x="705" 
d="M411 700l1 -1q36 5 50 14q6 4 51 -7q9 -2 15 -3q39 -9 55 -18.5t48 -44.5q74 -81 63 -163q-10 -81 -34.5 -131.5t-78.5 -106.5q-76 -78 -166 -144t-121 -66q-13 0 -20 -7q-11 -10 -60 -5.5t-76 18.5q-40 21 -62.5 43.5t-42.5 63.5q-19 38 -21.5 54t0.5 62q4 54 20 96
t55 100q22 32 75.5 88t62.5 56q3 0 26.5 22t66.5 47.5t93 32.5zM572 563l-1 -1q-8 13 -12.5 17t-8 0t-8.5 -17q-7 -20 -29 -26q-16 -4 -28.5 3t-22 16.5t-23 16t-39 -1t-62.5 -32.5q-29 -20 -35 -20q-12 0 -88 -85t-77 -114q0 -10 -9 -23q-19 -32 -14 -69.5t33.5 -68
t63.5 -30.5q59 0 182 88t157 155q61 123 21 192zM244 862v1h1q-27 28 -10.5 62t62.5 36q41 -10 106 -59q4 -3 15.5 -6.5t18 -7t2.5 -6.5q32 -12 41.5 -39t-5.5 -48q-8 -42 -55 -44t-88 39q-15 15 -37 32.5t-36.5 28t-14.5 11.5z" />
    <glyph glyph-name="Oacute" unicode="&#xd3;" horiz-adv-x="705" 
d="M411 700l1 -1q36 5 50 14q6 4 51 -7q9 -2 15 -3q39 -9 55 -18.5t48 -44.5q74 -81 63 -163q-10 -81 -34.5 -131.5t-78.5 -106.5q-76 -78 -166 -144t-121 -66q-13 0 -20 -7q-11 -10 -60 -5.5t-76 18.5q-40 21 -62.5 43.5t-42.5 63.5q-19 38 -21.5 54t0.5 62q4 54 20 96
t55 100q22 32 75.5 88t62.5 56q3 0 26.5 22t66.5 47.5t93 32.5zM572 563l-1 -1q-8 13 -12.5 17t-8 0t-8.5 -17q-7 -20 -29 -26q-16 -4 -28.5 3t-22 16.5t-23 16t-39 -1t-62.5 -32.5q-29 -20 -35 -20q-12 0 -88 -85t-77 -114q0 -10 -9 -23q-19 -32 -14 -69.5t33.5 -68
t63.5 -30.5q59 0 182 88t157 155q61 123 21 192zM205 835h-1q2 4 17.5 14.5t30.5 16.5q20 3 23 6q18 18 35 32l2 2q22 19 68 19q42 21 60 21q28 0 48.5 -14.5t20.5 -38.5q0 -6 -6 -12t-14.5 -13t-12.5 -12l1 -1q-4 -7 -39 -23l-103 -53q-68 -35 -83 -35q-26 0 -41.5 20.5
t-15.5 47.5q0 8 10 23z" />
    <glyph glyph-name="Ocircumflex" unicode="&#xd4;" horiz-adv-x="705" 
d="M411 700l1 -1q36 5 50 14q6 4 51 -7q9 -2 15 -3q39 -9 55 -18.5t48 -44.5q74 -81 63 -163q-10 -81 -34.5 -131.5t-78.5 -106.5q-76 -78 -166 -144t-121 -66q-13 0 -20 -7q-11 -10 -60 -5.5t-76 18.5q-40 21 -62.5 43.5t-42.5 63.5q-19 38 -21.5 54t0.5 62q4 54 20 96
t55 100q22 32 75.5 88t62.5 56q3 0 26.5 22t66.5 47.5t93 32.5zM572 563l-1 -1q-8 13 -12.5 17t-8 0t-8.5 -17q-7 -20 -29 -26q-16 -4 -28.5 3t-22 16.5t-23 16t-39 -1t-62.5 -32.5q-29 -20 -35 -20q-12 0 -88 -85t-77 -114q0 -10 -9 -23q-19 -32 -14 -69.5t33.5 -68
t63.5 -30.5q59 0 182 88t157 155q61 123 21 192zM219 774q-10 11 -10 26t8 21q0 2 -0.5 5.5t-0.5 4.5q0 15 12.5 26.5t29.5 12.5l2 2q3 5 6 9t8 7.5t7.5 5t9.5 5l9 4.5q33 39 63 39q25 0 57 -32q2 -2 13.5 -15t20.5 -20t18 -11q23 -18 23 -40q-1 -25 -11 -42.5t-21 -21
t-20 3.5q-32 35 -59 62l-20 22q-6 -7 -20 -17h7l-37 -35q-26 -25 -35 -30t-26 -5q-25 0 -34 13z" />
    <glyph glyph-name="Otilde" unicode="&#xd5;" horiz-adv-x="705" 
d="M411 700l1 -1q36 5 50 14q6 4 51 -7q9 -2 15 -3q39 -9 55 -18.5t48 -44.5q74 -81 63 -163q-10 -81 -34.5 -131.5t-78.5 -106.5q-76 -78 -166 -144t-121 -66q-13 0 -20 -7q-11 -10 -60 -5.5t-76 18.5q-40 21 -62.5 43.5t-42.5 63.5q-19 38 -21.5 54t0.5 62q4 54 20 96
t55 100q22 32 75.5 88t62.5 56q3 0 26.5 22t66.5 47.5t93 32.5zM572 563l-1 -1q-8 13 -12.5 17t-8 0t-8.5 -17q-7 -20 -29 -26q-16 -4 -28.5 3t-22 16.5t-23 16t-39 -1t-62.5 -32.5q-29 -20 -35 -20q-12 0 -88 -85t-77 -114q0 -10 -9 -23q-19 -32 -14 -69.5t33.5 -68
t63.5 -30.5q59 0 182 88t157 155q61 123 21 192zM129 837l4 5q17 34 66 69q29 22 37 25q17 5 47 -4q18 0 34 -8t24.5 -15.5t24.5 -26t21 -23.5q4 -3 15 -3h6q6 0 12 2t11 3.5t11.5 6t10 7t10.5 8.5t9 8t9.5 9t8.5 8q25 20 49 13.5t28.5 -28.5t-13.5 -49l-5 -5
q-10 -18 -33.5 -41.5t-40.5 -32.5q-11 -6 -59 -8q-31 0 -42.5 2t-25.5 11q-11 7 -29.5 24t-33 28t-25.5 11q-8 0 -45 -39l-7 -6q-10 -20 -28 -26q-17 -12 -26 -10t-23 17q-31 39 -2 68z" />
    <glyph glyph-name="Odieresis" unicode="&#xd6;" horiz-adv-x="705" 
d="M411 700l1 -1q36 5 50 14q6 4 51 -7q9 -2 15 -3q39 -9 55 -18.5t48 -44.5q74 -81 63 -163q-10 -81 -34.5 -131.5t-78.5 -106.5q-76 -78 -166 -144t-121 -66q-13 0 -20 -7q-11 -10 -60 -5.5t-76 18.5q-40 21 -62.5 43.5t-42.5 63.5q-19 38 -21.5 54t0.5 62q4 54 20 96
t55 100q22 32 75.5 88t62.5 56q3 0 26.5 22t66.5 47.5t93 32.5zM572 563l-1 -1q-8 13 -12.5 17t-8 0t-8.5 -17q-7 -20 -29 -26q-16 -4 -28.5 3t-22 16.5t-23 16t-39 -1t-62.5 -32.5q-29 -20 -35 -20q-12 0 -88 -85t-77 -114q0 -10 -9 -23q-19 -32 -14 -69.5t33.5 -68
t63.5 -30.5q59 0 182 88t157 155q61 123 21 192zM176 770q-7 10 -7 16q-15 22 -9 57q11 30 48 41h17q21 1 37 -10.5t21 -31.5q13 -29 -4 -54q4 -2 4 -3q0 -10 -34 -21q-12 -4 -18 -5h-18q-30 -3 -37 11zM472 757q-18 0 -40 14q-39 17 -36.5 55t47.5 56q6 1 9 1
q46 10 67.5 -25t-7.5 -68q-13 -33 -40 -33z" />
    <glyph glyph-name="multiply" unicode="&#xd7;" horiz-adv-x="673" 
d="M63 651l2 3q-8 26 16.5 37.5t55.5 -3.5q18 -9 56 -60q41 -55 93 -114.5t60 -59.5q7 0 78 72t106 115q19 23 27 27.5t22 1.5q23 -5 52.5 -30t32.5 -42q3 -16 -8.5 -28.5t-93.5 -87.5q-66 -60 -97 -97l-31 -37l16 -24q17 -25 35 -48q28 -38 56 -101t28 -88q0 -31 -27 -41
t-59 5t-44 46q-12 27 -12 45q0 13 -27 65t-37 58q-5 3 -65 -54t-122 -117t-69 -63q-13 -5 -51 17q-39 22 -44 44q-3 16 15 37.5t113 114.5l133 130l-35 40q-69 79 -118 145.5t-57 91.5z" />
    <glyph glyph-name="_216" unicode="&#xd8;" horiz-adv-x="729" 
d="M503 822q9 25 31.5 28t37 -14t5.5 -42l-36 -94q29 -7 44.5 -17.5t45.5 -42.5q74 -81 63 -163q-10 -81 -34.5 -131.5t-78.5 -106.5q-76 -78 -166 -144t-121 -66q-2 0 -4.5 -0.5t-3.5 -0.5l-56 -147q-9 -25 -31.5 -28t-37 14t-5.5 42l41 109q-42 7 -59 17
q-40 21 -62.5 43.5t-42.5 63.5q-19 38 -21.5 54t0.5 62q4 54 20 96t55 100q22 32 75.5 88t62.5 56q3 0 26.5 22t66.5 47.5t93 32.5l1 -1q36 5 49 13zM212 128q11 0 29 5l167 439q-29 -7 -70 -34q-29 -20 -35 -20q-12 0 -88 -85t-77 -114q0 -10 -9 -23q-19 -32 -14 -69.5
t33.5 -68t63.5 -30.5zM572 563l-1 -1q-8 13 -12.5 17t-8 0t-8.5 -17q-7 -20 -29 -26q-20 -4 -32 5l-136 -358q67 42 126.5 95t79.5 93q61 123 21 192z" />
    <glyph glyph-name="Ugrave" unicode="&#xd9;" horiz-adv-x="592" 
d="M142 746l-2 -2q17 8 42 2t38 -20q14 -16 14.5 -29t-13.5 -47q-32 -81 -69 -288.5t-27 -232.5q13 -33 79 -18q23 5 38.5 15.5t44.5 40.5q24 25 39 46t22 34t22 47t27 60q11 22 28 151t13 152q-11 61 50 61q39 0 53 -11.5t23 -50.5q8 -35 -35 -223.5t-74 -234.5
q0 -1 -16 -25.5t-24.5 -37t-27.5 -37.5t-34 -39.5t-35.5 -30t-39.5 -22.5q-37 -14 -89 -10.5t-86 21.5q-24 13 -52 40t-36 46q-12 28 12.5 197.5t64.5 321.5q23 85 29.5 101.5t20.5 22.5zM188 862v1h1q-27 28 -10.5 62t62.5 36q41 -10 106 -59q4 -3 15.5 -6.5t18 -7
t2.5 -6.5q32 -12 41.5 -39t-5.5 -48q-8 -42 -55 -44t-88 39q-15 15 -37 32.5t-36.5 28t-14.5 11.5z" />
    <glyph glyph-name="Uacute" unicode="&#xda;" horiz-adv-x="592" 
d="M142 746l-2 -2q17 8 42 2t38 -20q14 -16 14.5 -29t-13.5 -47q-32 -81 -69 -288.5t-27 -232.5q13 -33 79 -18q23 5 38.5 15.5t44.5 40.5q24 25 39 46t22 34t22 47t27 60q11 22 28 151t13 152q-11 61 50 61q39 0 53 -11.5t23 -50.5q8 -35 -35 -223.5t-74 -234.5
q0 -1 -16 -25.5t-24.5 -37t-27.5 -37.5t-34 -39.5t-35.5 -30t-39.5 -22.5q-37 -14 -89 -10.5t-86 21.5q-24 13 -52 40t-36 46q-12 28 12.5 197.5t64.5 321.5q23 85 29.5 101.5t20.5 22.5zM234 835h-1q2 4 17.5 14.5t30.5 16.5q20 3 23 6q18 18 35 32l2 2q22 19 68 19
q42 21 60 21q28 0 48.5 -14.5t20.5 -38.5q0 -6 -6 -12t-14.5 -13t-12.5 -12l1 -1q-4 -7 -39 -23l-103 -53q-68 -35 -83 -35q-26 0 -41.5 20.5t-15.5 47.5q0 8 10 23z" />
    <glyph glyph-name="Ucircumflex" unicode="&#xdb;" horiz-adv-x="592" 
d="M142 746l-2 -2q17 8 42 2t38 -20q14 -16 14.5 -29t-13.5 -47q-32 -81 -69 -288.5t-27 -232.5q13 -33 79 -18q23 5 38.5 15.5t44.5 40.5q24 25 39 46t22 34t22 47t27 60q11 22 28 151t13 152q-11 61 50 61q39 0 53 -11.5t23 -50.5q8 -35 -35 -223.5t-74 -234.5
q0 -1 -16 -25.5t-24.5 -37t-27.5 -37.5t-34 -39.5t-35.5 -30t-39.5 -22.5q-37 -14 -89 -10.5t-86 21.5q-24 13 -52 40t-36 46q-12 28 12.5 197.5t64.5 321.5q23 85 29.5 101.5t20.5 22.5zM163 774q-10 11 -10 26t8 21q0 2 -0.5 5.5t-0.5 4.5q0 15 12.5 26.5t29.5 12.5l2 2
q3 5 6 9t8 7.5t7.5 5t9.5 5l9 4.5q33 39 63 39q25 0 57 -32q2 -2 13.5 -15t20.5 -20t18 -11q23 -18 23 -40q-1 -25 -11 -42.5t-21 -21t-20 3.5q-32 35 -59 62l-20 22q-6 -7 -20 -17h7l-37 -35q-26 -25 -35 -30t-26 -5q-25 0 -34 13z" />
    <glyph glyph-name="Udieresis" unicode="&#xdc;" horiz-adv-x="592" 
d="M142 746l-2 -2q17 8 42 2t38 -20q14 -16 14.5 -29t-13.5 -47q-32 -81 -69 -288.5t-27 -232.5q13 -33 79 -18q23 5 38.5 15.5t44.5 40.5q24 25 39 46t22 34t22 47t27 60q11 22 28 151t13 152q-11 61 50 61q39 0 53 -11.5t23 -50.5q8 -35 -35 -223.5t-74 -234.5
q0 -1 -16 -25.5t-24.5 -37t-27.5 -37.5t-34 -39.5t-35.5 -30t-39.5 -22.5q-37 -14 -89 -10.5t-86 21.5q-24 13 -52 40t-36 46q-12 28 12.5 197.5t64.5 321.5q23 85 29.5 101.5t20.5 22.5zM119 770q-7 10 -7 16q-15 22 -9 57q11 30 48 41h5.5h6.5h5q21 1 37 -10.5t21 -31.5
q13 -29 -4 -54q4 -2 4 -3q0 -10 -34 -21q-12 -4 -18 -5h-18q-30 -3 -37 11zM415 757q-18 0 -40 14q-39 17 -36.5 55t47.5 56q6 1 9 1q46 10 67.5 -25t-7.5 -68q-13 -33 -40 -33z" />
    <glyph glyph-name="Yacute" unicode="&#xdd;" horiz-adv-x="553" 
d="M457 780l4 6q26 8 42 4t29 -20q34 -40 -12 -94q-25 -30 -46.5 -60t-21.5 -36q0 -4 -11 -15t-34 -36.5t-44 -56.5q-15 -22 -38.5 -54.5t-33 -47t-9.5 -23.5q0 -10 -18.5 -66.5t-24.5 -84.5q-4 -18 -5 -23.5t-4 -13.5t-6 -14t-13 -28.5t-22 -53.5q-31 -78 -38 -87t-45 -9
q-26 0 -34 3.5t-18 19.5q-25 42 3 77q12 14 29 52t17 50q0 14 6.5 32.5t12.5 32t5 31t-14 31.5l-7.5 9t-5 6.5t-3.5 7t-2.5 6.5t-1.5 9.5t-0.5 11.5t-1 17t-0.5 22q-2 52 -13.5 130t-19.5 92q-6 12 -28 38q-30 35 -13.5 68t63.5 33q32 0 50.5 -28t28 -66.5t13.5 -43.5
q7 -10 18 -113q3 -28 7.5 -30.5t18.5 15.5q6 7 28 31.5t46 53.5t45 59q67 97 89 125t33 31zM129 835h-1q2 4 17.5 14.5t30.5 16.5q4 1 9 1q11 2 16 7q13 14 35 32q22 19 68 19q42 21 60 21q28 0 48.5 -14.5t20.5 -38.5q0 -6 -6 -12t-14.5 -13t-12.5 -12l1 -1q-4 -7 -39 -23
l-103 -53q-68 -35 -83 -35q-26 0 -41.5 20.5t-15.5 47.5q0 8 10 23z" />
    <glyph glyph-name="Thorn" unicode="&#xde;" horiz-adv-x="621" 
d="M50 777l1 1q44 47 91 -1q15 -16 20 -28t8 -41l4 -45l43 1q219 4 250.5 3t54.5 -13q20 -10 43 -35t37 -50q13 -23 9 -64.5t-21 -61.5q-6 -7 -28.5 -47t-45.5 -63q-18 -19 -40 -26.5t-44 -8.5t-73 -5t-106 -14q-62 -11 -75 -7t-17 -12q-5 -20 -15.5 -114t-10.5 -120
q0 -33 -14 -51.5t-34 -13.5q-22 5 -47 26.5t-29 38.5q-6 26 32 281q6 36 10 201q2 114 -1.5 157.5t-17.5 77.5q-5 11 16 34zM474 528v1q-3 11 -104 8t-162 -16q-21 -5 -25 -12t-8 -44q-3 -29 -1 -35.5t13 -11.5q21 -8 113 3t114 24q17 10 40 42t20 41z" />
    <glyph glyph-name="germandbls" unicode="&#xdf;" horiz-adv-x="766" 
d="M324 769l21 26l208 1l25 -28q47 -53 74 -158t15 -128q-6 -12 26 -48t32 -48q0 -15 7 -20q8 -5 5 -86l-3 -82l-38 -39q-17 -17 -29 -27.5t-17 -14t-19 -10.5t-21 -11q-26 -14 -66 -12.5t-74 17.5q-10 5 -80 -4q-23 -3 -30 -8t-15 -27q-11 -27 -59 -75.5t-77 -60.5
q-72 -30 -128 -5q-28 13 -39.5 28.5t-11.5 41.5q0 17 13 25.5t45 13.5q36 4 70.5 24t48.5 44q9 15 16 44t16 77.5t14 72.5q8 37 10.5 121.5t7.5 113.5q7 39 10.5 96t11.5 87.5t31 58.5zM494 675l-3 1q-13 14 -29.5 13.5t-26.5 -16.5q-7 -11 -19 -58t-12 -64q0 -3 7 -8
t25.5 -4t41.5 15l31 19l-1 44q-1 44 -14 58zM544 361l1 -1q-40 2 -69.5 8.5t-41 13t-20 12t-12.5 5.5q-8 0 -11 -14t0 -35q4 -31 -12 -104l-5 -22l40 2q27 1 44 -3.5t22 -9t13.5 -4.5t24.5 9q38 22 55.5 45.5t22.5 59.5q4 24 -5 30t-47 8z" />
    <glyph glyph-name="agrave" unicode="&#xe0;" 
d="M419 400l2 -3q9 15 15 23t15 12t12.5 5t17.5 3q19 0 43 -24.5t24 -42.5q0 -35 -46.5 -100.5t-53.5 -82.5q-20 -43 -20 -110q0 -25 8 -25q6 0 52 13.5t59 13.5q35 0 35 -45q0 -19 -46 -54t-86 -35q-36 0 -78 32q-20 14 -33.5 43t-20 50t-11.5 21q-7 0 -24 -17
q-78 -74 -154 -74q-16 0 -31.5 11t-64.5 56q-22 19 -22 51q0 61 46.5 128.5t121.5 114t148 46.5q18 0 40 -22t23 -22q9 0 29 34zM371 313q0 7 -14 7q-28 0 -70 -21q-49 -24 -102 -81t-53 -90q0 -6 5 -6q17 0 118 73q32 23 74 65.5t42 52.5zM187 662v1h1q-27 28 -10.5 62
t62.5 36q41 -10 106 -59q4 -3 15.5 -6.5t18 -7t2.5 -6.5q32 -12 41.5 -39t-5.5 -48q-8 -42 -55 -44t-88 39q-15 15 -37 32.5t-36.5 28t-14.5 11.5z" />
    <glyph glyph-name="aacute" unicode="&#xe1;" 
d="M419 400l2 -3q9 15 15 23t15 12t12.5 5t17.5 3q19 0 43 -24.5t24 -42.5q0 -35 -46.5 -100.5t-53.5 -82.5q-20 -43 -20 -110q0 -25 8 -25q6 0 52 13.5t59 13.5q35 0 35 -45q0 -19 -46 -54t-86 -35q-36 0 -78 32q-20 14 -33.5 43t-20 50t-11.5 21q-7 0 -24 -17
q-78 -74 -154 -74q-16 0 -31.5 11t-64.5 56q-22 19 -22 51q0 61 46.5 128.5t121.5 114t148 46.5q18 0 40 -22t23 -22q9 0 29 34zM371 313q0 7 -14 7q-28 0 -70 -21q-49 -24 -102 -81t-53 -90q0 -6 5 -6q17 0 118 73q32 23 74 65.5t42 52.5zM148 635h-1q2 4 17.5 14.5
t30.5 16.5q4 1 9 1q11 2 16 7q13 14 35 32q22 19 68 19q42 21 60 21q28 0 48.5 -14.5t20.5 -38.5q0 -6 -6 -12t-14.5 -13t-12.5 -12l1 -1q-4 -7 -39 -23l-103 -53q-68 -35 -83 -35q-26 0 -41.5 20.5t-15.5 47.5q0 8 10 23z" />
    <glyph glyph-name="acircumflex" unicode="&#xe2;" 
d="M419 400l2 -3q9 15 15 23t15 12t12.5 5t17.5 3q19 0 43 -24.5t24 -42.5q0 -35 -46.5 -100.5t-53.5 -82.5q-20 -43 -20 -110q0 -25 8 -25q6 0 52 13.5t59 13.5q35 0 35 -45q0 -19 -46 -54t-86 -35q-36 0 -78 32q-20 14 -33.5 43t-20 50t-11.5 21q-7 0 -24 -17
q-78 -74 -154 -74q-16 0 -31.5 11t-64.5 56q-22 19 -22 51q0 61 46.5 128.5t121.5 114t148 46.5q18 0 40 -22t23 -22q9 0 29 34zM371 313q0 7 -14 7q-28 0 -70 -21q-49 -24 -102 -81t-53 -90q0 -6 5 -6q17 0 118 73q32 23 74 65.5t42 52.5zM162 574q-10 11 -10 26t8 21
q0 2 -0.5 5.5t-0.5 4.5q0 15 12.5 26.5t29.5 12.5l2 2q3 5 6 9t8 7.5t7.5 5t9.5 5l9 4.5q33 39 63 39q25 0 57 -32q2 -2 13.5 -15t20.5 -20t18 -11q23 -18 23 -40q-1 -25 -11 -42.5t-21 -21t-20 3.5q-31 35 -59 62l-20 22q-6 -7 -20 -17h7l-37 -35q-26 -25 -35 -30t-26 -5
q-25 0 -34 13z" />
    <glyph glyph-name="atilde" unicode="&#xe3;" 
d="M419 400l2 -3q9 15 15 23t15 12t12.5 5t17.5 3q19 0 43 -24.5t24 -42.5q0 -35 -46.5 -100.5t-53.5 -82.5q-20 -43 -20 -110q0 -25 8 -25q6 0 52 13.5t59 13.5q35 0 35 -45q0 -19 -46 -54t-86 -35q-36 0 -78 32q-20 14 -33.5 43t-20 50t-11.5 21q-7 0 -24 -17
q-78 -74 -154 -74q-16 0 -31.5 11t-64.5 56q-22 19 -22 51q0 61 46.5 128.5t121.5 114t148 46.5q18 0 40 -22t23 -22q9 0 29 34zM371 313q0 7 -14 7q-28 0 -70 -21q-49 -24 -102 -81t-53 -90q0 -6 5 -6q17 0 118 73q32 23 74 65.5t42 52.5zM72 637l4 5q17 34 66 69
q29 22 37 25q17 5 47 -4q18 0 34 -8t24.5 -15.5t24.5 -26t21 -23.5q4 -3 15 -3h6q6 0 12 2t11 3.5t11.5 6t10 7t10.5 8.5t9 8t9.5 9t8.5 8q39 31 67 3t-3 -67l-5 -5q-10 -18 -33.5 -41.5t-40.5 -32.5q-11 -6 -59 -8q-31 0 -42.5 2t-25.5 11q-11 7 -29.5 24t-33 28t-25.5 11
q-8 0 -45 -39l-7 -6q-10 -20 -28 -26q-17 -12 -26 -10t-23 17q-31 39 -2 68z" />
    <glyph glyph-name="adieresis" unicode="&#xe4;" 
d="M419 400l2 -3q9 15 15 23t15 12t12.5 5t17.5 3q19 0 43 -24.5t24 -42.5q0 -35 -46.5 -100.5t-53.5 -82.5q-20 -43 -20 -110q0 -25 8 -25q6 0 52 13.5t59 13.5q35 0 35 -45q0 -19 -46 -54t-86 -35q-36 0 -78 32q-20 14 -33.5 43t-20 50t-11.5 21q-7 0 -24 -17
q-78 -74 -154 -74q-16 0 -31.5 11t-64.5 56q-22 19 -22 51q0 61 46.5 128.5t121.5 114t148 46.5q18 0 40 -22t23 -22q9 0 29 34zM371 313q0 7 -14 7q-28 0 -70 -21q-49 -24 -102 -81t-53 -90q0 -6 5 -6q17 0 118 73q32 23 74 65.5t42 52.5zM119 570q-7 10 -7 16
q-15 22 -9 57q11 30 48 41h5.5h6.5h5q21 1 37 -10.5t21 -31.5q13 -29 -4 -54q4 -2 4 -3q0 -10 -34 -21q-12 -4 -18 -5h-18q-30 -3 -37 11zM415 557q-18 0 -40 14q-39 17 -36.5 55t47.5 56q6 1 9 1q46 10 67.5 -25t-7.5 -68q-13 -33 -40 -33z" />
    <glyph glyph-name="aring" unicode="&#xe5;" 
d="M419 400l2 -3q9 15 15 23t15 12t12.5 5t17.5 3q19 0 43 -24.5t24 -42.5q0 -35 -46.5 -100.5t-53.5 -82.5q-20 -43 -20 -110q0 -25 8 -25q6 0 52 13.5t59 13.5q35 0 35 -45q0 -19 -46 -54t-86 -35q-36 0 -78 32q-20 14 -33.5 43t-20 50t-11.5 21q-7 0 -24 -17
q-78 -74 -154 -74q-16 0 -31.5 11t-64.5 56q-22 19 -22 51q0 61 46.5 128.5t121.5 114t148 46.5q18 0 40 -22t23 -22q9 0 29 34zM371 313q0 7 -14 7q-28 0 -70 -21q-49 -24 -102 -81t-53 -90q0 -6 5 -6q17 0 118 73q32 23 74 65.5t42 52.5zM195 581q0 48 34 82t82 34t82 -34
t34 -82t-34 -82t-82 -34t-82 34t-34 82zM235 581q0 -31 22.5 -53.5t53.5 -22.5t53.5 22.5t22.5 53.5t-22.5 53.5t-53.5 22.5t-53.5 -22.5t-22.5 -53.5z" />
    <glyph glyph-name="ae" unicode="&#xe6;" horiz-adv-x="793" 
d="M569 474v3q25 10 45 6t48 -24q32 -23 43.5 -35.5t25.5 -39.5q13 -24 13.5 -58t-10.5 -59q-11 -24 -41 -50t-64 -41q-26 -12 -95 -22.5t-84 -5.5q-7 2 -11.5 -3.5t-6.5 -16.5v-2q-1 -1 -1 -2q-6 -43 14 -68q11 3 25 3t30 -1.5t22 -1.5q5 0 18.5 5t21.5 8t13 -1
q16 11 23 11q9 0 20 9q16 13 59 29.5t52 12.5q13 -5 22.5 -27t5.5 -39q-7 -29 -82.5 -75.5t-131.5 -55.5q-34 -6 -90 15h-3q-36 0 -78 32q-20 14 -33.5 43t-20 50t-11.5 21q-7 0 -24 -17q-78 -74 -154 -74q-16 0 -31.5 11t-64.5 56q-22 19 -22 51q0 61 46.5 128.5t121.5 114
t148 46.5q18 0 40 -22t23 -22q9 0 29 34l2 -3q9 15 15 23t15 12t12.5 5t17.5 3q8 0 20 -7q39 30 68 41zM371 313q0 7 -14 7q-28 0 -70 -21q-49 -24 -102 -81t-53 -90q0 -6 5 -6q17 0 118 73q32 23 74 65.5t42 52.5zM620 343q10 24 -5 22q-10 -1 -30 -14q-24 -16 -52 -46.5
t-23 -35.5q4 -4 30 4q22 6 47 28t33 42z" />
    <glyph glyph-name="ccedilla" unicode="&#xe7;" horiz-adv-x="456" 
d="M253 521l-2 1q22 7 61 3.5t50 -13.5q24 -21 29 -83l2 -28h-53q-48 0 -72 -6t-47 -25l-45 -36q-34 -26 -53.5 -89.5t3.5 -72.5q26 -10 104.5 10t142.5 54q43 22 53 16.5t18 -56.5q3 -17 0 -26t-17 -25q-28 -32 -101 -64t-131 -37q-62 -6 -99.5 14.5t-62.5 73.5
q-40 88 -9 168.5t95 139.5t134 81zM245 -66q-28 -12 -46.5 4t-11.5 42q-11 14 -7 33v1q0 2 1 3v2q1 4 2 10t1 7q8 29 31 40q30 7 45.5 -13.5t2.5 -44.5q29 -5 48.5 -35t23 -65t-13.5 -67.5t-52 -42.5q-33 -9 -70 -4q-26 3 -66 28q-34 23 -47 91q0 37 31 43.5t47 -25.5
q7 -38 29 -53t60 1q1 2 1 4q0 3 -2.5 19t-3.5 24q-1 0 -3 -2zM264 29q-1 -1 -1 -2q0 1 1 2z" />
    <glyph glyph-name="egrave" unicode="&#xe8;" horiz-adv-x="463" 
d="M264 530v3q25 10 45 6t48 -24q32 -23 43.5 -35.5t25.5 -39.5q13 -24 13.5 -58t-10.5 -59q-11 -24 -41 -50t-64 -41q-26 -12 -95 -22.5t-84 -5.5q-12 4 -17 -17q-8 -37 8 -67q3 -7 8 -11q14 -13 56 -9.5t63 19.5t30 16t20 9q16 13 59 29.5t52 12.5q13 -5 22.5 -27t5.5 -39
q-7 -29 -82.5 -75.5t-131.5 -55.5q-26 -4 -68 8t-72 32q-29 20 -51.5 46t-22.5 39t-8 19q-7 5 -4 50.5t12 65.5q6 13 35 65.5t35 66.5q15 34 71 83t99 66zM315 399q10 24 -5 22q-10 -1 -30 -14q-24 -16 -52 -46.5t-23 -35.5q4 -4 30 4q22 6 47 28t33 42zM123 662v1h1
q-27 28 -10.5 62t62.5 36q41 -10 106 -59q4 -3 15.5 -6.5t18 -7t2.5 -6.5q32 -12 41.5 -39t-5.5 -48q-8 -42 -55 -44t-88 39q-15 15 -37 32.5t-36.5 28t-14.5 11.5z" />
    <glyph glyph-name="eacute" unicode="&#xe9;" horiz-adv-x="463" 
d="M264 530v3q25 10 45 6t48 -24q32 -23 43.5 -35.5t25.5 -39.5q13 -24 13.5 -58t-10.5 -59q-11 -24 -41 -50t-64 -41q-26 -12 -95 -22.5t-84 -5.5q-12 4 -17 -17q-8 -37 8 -67q3 -7 8 -11q14 -13 56 -9.5t63 19.5t30 16t20 9q16 13 59 29.5t52 12.5q13 -5 22.5 -27t5.5 -39
q-7 -29 -82.5 -75.5t-131.5 -55.5q-26 -4 -68 8t-72 32q-29 20 -51.5 46t-22.5 39t-8 19q-7 5 -4 50.5t12 65.5q6 13 35 65.5t35 66.5q15 34 71 83t99 66zM315 399q10 24 -5 22q-10 -1 -30 -14q-24 -16 -52 -46.5t-23 -35.5q4 -4 30 4q22 6 47 28t33 42zM84 635h-1
q2 4 17.5 14.5t30.5 16.5q4 1 9 1q11 2 16 7q13 14 35 32q22 19 68 19q42 21 60 21q28 0 48.5 -14.5t20.5 -38.5q0 -6 -6 -12t-14.5 -13t-12.5 -12l1 -1q-4 -7 -39 -23l-103 -53q-68 -35 -83 -35q-26 0 -41.5 20.5t-15.5 47.5q0 8 10 23z" />
    <glyph glyph-name="ecircumflex" unicode="&#xea;" horiz-adv-x="463" 
d="M264 530v3q25 10 45 6t48 -24q32 -23 43.5 -35.5t25.5 -39.5q13 -24 13.5 -58t-10.5 -59q-11 -24 -41 -50t-64 -41q-26 -12 -95 -22.5t-84 -5.5q-12 4 -17 -17q-8 -37 8 -67q3 -7 8 -11q14 -13 56 -9.5t63 19.5t30 16t20 9q16 13 59 29.5t52 12.5q13 -5 22.5 -27t5.5 -39
q-7 -29 -82.5 -75.5t-131.5 -55.5q-26 -4 -68 8t-72 32q-29 20 -51.5 46t-22.5 39t-8 19q-7 5 -4 50.5t12 65.5q6 13 35 65.5t35 66.5q15 34 71 83t99 66zM315 399q10 24 -5 22q-10 -1 -30 -14q-24 -16 -52 -46.5t-23 -35.5q4 -4 30 4q22 6 47 28t33 42zM98 574
q-10 11 -10 26t8 21q0 2 -0.5 5.5t-0.5 4.5q0 15 12.5 26.5t29.5 12.5l2 2q3 5 6 9t8 7.5t7.5 5t9.5 5l9 4.5q33 39 63 39q25 0 57 -32q2 -2 13.5 -15t20.5 -20t18 -11q23 -18 23 -40q-1 -25 -11 -42.5t-21 -21t-20 3.5q-31 35 -59 62l-20 22q-6 -7 -20 -17h7l-37 -35
q-26 -25 -35 -30t-26 -5q-25 0 -34 13z" />
    <glyph glyph-name="edieresis" unicode="&#xeb;" horiz-adv-x="463" 
d="M264 530v3q25 10 45 6t48 -24q32 -23 43.5 -35.5t25.5 -39.5q13 -24 13.5 -58t-10.5 -59q-11 -24 -41 -50t-64 -41q-26 -12 -95 -22.5t-84 -5.5q-12 4 -17 -17q-8 -37 8 -67q3 -7 8 -11q14 -13 56 -9.5t63 19.5t30 16t20 9q16 13 59 29.5t52 12.5q13 -5 22.5 -27t5.5 -39
q-7 -29 -82.5 -75.5t-131.5 -55.5q-26 -4 -68 8t-72 32q-29 20 -51.5 46t-22.5 39t-8 19q-7 5 -4 50.5t12 65.5q6 13 35 65.5t35 66.5q15 34 71 83t99 66zM315 399q10 24 -5 22q-10 -1 -30 -14q-24 -16 -52 -46.5t-23 -35.5q4 -4 30 4q22 6 47 28t33 42zM55 570q-7 10 -7 16
q-15 22 -9 57q11 30 48 41h17q21 1 37 -10.5t21 -31.5q13 -29 -4 -54q4 -2 4 -3q0 -10 -34 -21q-12 -4 -18 -5h-18q-30 -3 -37 11zM351 557q-18 0 -40 14q-39 17 -36.5 55t47.5 56q6 1 9 1q46 10 67.5 -25t-7.5 -68q-13 -33 -40 -33z" />
    <glyph glyph-name="igrave" unicode="&#xec;" horiz-adv-x="272" 
d="M121 490l-1 1q19 29 70 -10q15 -11 19 -19.5t4 -29.5q0 -34 -14 -72q-16 -44 -32.5 -123.5t-20.5 -126.5q-7 -86 -32 -100q-11 -6 -19.5 -2.5t-37.5 26.5q-19 14 -23 23t-4 34q1 54 37 212.5t54 186.5zM28 662v1h1q-27 28 -10.5 62t62.5 36q41 -10 106 -59
q4 -3 15.5 -6.5t18 -7t2.5 -6.5q32 -12 41.5 -39t-5.5 -48q-8 -42 -55 -44t-88 39q-15 15 -37 32.5t-36.5 28t-14.5 11.5z" />
    <glyph glyph-name="iacute" unicode="&#xed;" horiz-adv-x="272" 
d="M121 490l-1 1q19 29 70 -10q15 -11 19 -19.5t4 -29.5q0 -34 -14 -72q-16 -44 -32.5 -123.5t-20.5 -126.5q-7 -86 -32 -100q-11 -6 -19.5 -2.5t-37.5 26.5q-19 14 -23 23t-4 34q1 54 37 212.5t54 186.5zM-11 635h-1q2 4 17.5 14.5t30.5 16.5q20 3 23 6q18 18 35 32l2 2
q22 19 68 19q42 21 60 21q28 0 48.5 -14.5t20.5 -38.5q0 -6 -6 -12t-14.5 -13t-12.5 -12l1 -1q-4 -7 -39 -23l-103 -53q-68 -35 -83 -35q-26 0 -41.5 20.5t-15.5 47.5q0 8 10 23z" />
    <glyph glyph-name="icircumflex" unicode="&#xee;" horiz-adv-x="272" 
d="M121 490l-1 1q19 29 70 -10q15 -11 19 -19.5t4 -29.5q0 -34 -14 -72q-16 -44 -32.5 -123.5t-20.5 -126.5q-7 -86 -32 -100q-11 -6 -19.5 -2.5t-37.5 26.5q-19 14 -23 23t-4 34q1 54 37 212.5t54 186.5zM3 574q-10 11 -10 26t8 21q0 2 -0.5 5.5t-0.5 4.5q0 15 12.5 26.5
t29.5 12.5l2 2q3 5 6 9t8 7.5t7.5 5t9.5 5l9 4.5q33 39 63 39q25 0 57 -32q2 -2 13.5 -15t20.5 -20t18 -11q23 -18 23 -40q-1 -25 -11 -42.5t-21 -21t-20 3.5q-31 35 -59 62l-20 22q-6 -7 -20 -17h7l-37 -35q-26 -25 -35 -30t-26 -5q-25 0 -34 13z" />
    <glyph glyph-name="idieresis" unicode="&#xef;" horiz-adv-x="272" 
d="M121 490l-1 1q19 29 70 -10q15 -11 19 -19.5t4 -29.5q0 -34 -14 -72q-16 -44 -32.5 -123.5t-20.5 -126.5q-7 -86 -32 -100q-11 -6 -19.5 -2.5t-37.5 26.5q-19 14 -23 23t-4 34q1 54 37 212.5t54 186.5zM-40 570q-7 10 -7 16q-15 22 -9 57q11 30 48 41h17q21 1 37 -10.5
t21 -31.5q13 -29 -4 -54q4 -2 4 -3q0 -10 -34 -21q-12 -4 -18 -5h-18q-30 -3 -37 11zM256 557q-18 0 -40 14q-39 17 -36.5 55t47.5 56q6 1 9 1q46 10 67.5 -25t-7.5 -68q-13 -33 -40 -33z" />
    <glyph glyph-name="eth" unicode="&#xf0;" horiz-adv-x="465" 
d="M294 455q-1 0 -8 8t-13 8q-1 0 -2.5 -0.5t-2.5 -0.5q-2 1 -8 1q-3 0 -13 -2t-15.5 -2.5t-15.5 -2.5t-16 -3.5t-15 -4t-14.5 -5.5t-11.5 -6t-10 -7t-6 -9l-35 -18l-24 -2q-51 51 -51 75q0 19 33.5 40t72.5 36l39 16l18 14l-24 21q-10 9 -24.5 17.5t-21.5 13t-13 17.5
t-6 35q0 8 1 12l-3 1q34 8 63 8q6 0 17 -1.5t16 -1.5q3 0 9 2q3 -2 17 -10t22 -12t20.5 -10t23.5 -8.5t21 -2.5q1 0 8.5 5.5t20.5 10.5t28 5q34 0 58 -23t24 -62q0 -21 -11 -35.5t-24.5 -20.5t-26 -15t-14.5 -20l13 -46q19 -54 50 -93q13 -85 13 -108q0 -66 -25 -120.5
t-63 -86t-78 -48.5t-75 -17q-20 0 -38 3.5t-26 7.5l-9 3q-19 15 -52 32q-34 17 -56.5 71.5t-22.5 114.5v51l77 77l27 13q21 3 61.5 26.5t74.5 23.5q2 -1 6 -1q8 0 13 5q5 -3 10 -3q9 0 15.5 6t6.5 15q0 5 -5 13zM295 293l1 1q-14 0 -33 2l-19 3q-30 0 -70 -37.5t-40 -74.5
q0 -29 12.5 -47.5t28.5 -18.5q43 0 95.5 49t52.5 114q0 6 -5 7.5t-23 1.5z" />
    <glyph glyph-name="ntilde" unicode="&#xf1;" horiz-adv-x="527" 
d="M403 503h1q17 7 30 3.5t37 -21.5q32 -24 36 -50q4 -24 -2.5 -117.5t-13.5 -108.5q-8 -19 -26 -88t-18 -82q0 -21 -21.5 -34t-48.5 -5.5t-40 39.5q-9 22 -10.5 54.5t6.5 46.5q7 12 24 65.5t22 76.5q4 20 -1 20q-7 1 -33 -31q-15 -18 -63.5 -73.5t-87.5 -101.5t-46 -61
q-10 -20 -32.5 -33t-41.5 -10q-17 2 -35 22t-18 36q0 17 -5.5 32.5t-5.5 21.5t10 34q33 68 45.5 143.5t13 125.5t5.5 58q12 23 42 19.5t53 -29.5q12 -13 20 -44.5t4 -50.5q-5 -25 2 -28t26 16q46 46 105 99t67 56zM58 628l4 5q17 34 66 69q29 22 37 25q17 5 47 -4
q18 0 34 -8t24.5 -15.5t24.5 -26t21 -23.5q4 -3 15 -3h6q6 0 12 2t11 3.5t11.5 6t10 7t10.5 8.5t9 8t9.5 9t8.5 8q39 31 67 3t-3 -67l-5 -5q-10 -18 -33.5 -41.5t-40.5 -32.5q-11 -6 -59 -8q-31 0 -42.5 2t-25.5 11q-11 7 -29.5 24t-33 28t-25.5 11q-8 0 -45 -39l-7 -6
q-10 -20 -28 -26q-17 -12 -26 -10t-23 17q-31 39 -2 68z" />
    <glyph glyph-name="ograve" unicode="&#xf2;" horiz-adv-x="478" 
d="M222 440l1 1q22 11 57 8t55 -17q9 -6 35 -19t41 -24t32 -42t24 -77q5 -28 -14 -62q-15 -27 -75.5 -90t-82.5 -74q-23 -11 -70 -17t-73 0q-68 15 -110 80t-29 135q5 28 68.5 95.5t100.5 83.5zM326 301l1 1q-3 8 -14.5 8.5t-51.5 -7.5q-26 -5 -37.5 -13t-39.5 -42
q-60 -75 -49 -93q5 -8 26.5 -6t45.5 13q43 20 85 69t34 70zM131 662v1h1q-27 28 -10.5 62t62.5 36q41 -10 106 -59q4 -3 15.5 -6.5t18 -7t2.5 -6.5q32 -12 41.5 -39t-5.5 -48q-8 -42 -55 -44t-88 39q-15 15 -37 32.5t-36.5 28t-14.5 11.5z" />
    <glyph glyph-name="oacute" unicode="&#xf3;" horiz-adv-x="478" 
d="M222 440l1 1q22 11 57 8t55 -17q9 -6 35 -19t41 -24t32 -42t24 -77q5 -28 -14 -62q-15 -27 -75.5 -90t-82.5 -74q-23 -11 -70 -17t-73 0q-68 15 -110 80t-29 135q5 28 68.5 95.5t100.5 83.5zM326 301l1 1q-3 8 -14.5 8.5t-51.5 -7.5q-26 -5 -37.5 -13t-39.5 -42
q-60 -75 -49 -93q5 -8 26.5 -6t45.5 13q43 20 85 69t34 70zM92 635h-1q2 4 17.5 14.5t30.5 16.5q4 1 9 1q11 2 16 7q13 14 35 32q22 19 68 19q42 21 60 21q28 0 48.5 -14.5t20.5 -38.5q0 -6 -6 -12t-14.5 -13t-12.5 -12l1 -1q-4 -7 -39 -23l-103 -53q-68 -35 -83 -35
q-26 0 -41.5 20.5t-15.5 47.5q0 8 10 23z" />
    <glyph glyph-name="ocircumflex" unicode="&#xf4;" horiz-adv-x="478" 
d="M222 440l1 1q22 11 57 8t55 -17q9 -6 35 -19t41 -24t32 -42t24 -77q5 -28 -14 -62q-15 -27 -75.5 -90t-82.5 -74q-23 -11 -70 -17t-73 0q-68 15 -110 80t-29 135q5 28 68.5 95.5t100.5 83.5zM326 301l1 1q-3 8 -14.5 8.5t-51.5 -7.5q-26 -5 -37.5 -13t-39.5 -42
q-60 -75 -49 -93q5 -8 26.5 -6t45.5 13q43 20 85 69t34 70zM106 574q-10 11 -10 26t8 21q0 2 -0.5 5.5t-0.5 4.5q0 15 12.5 26.5t29.5 12.5l2 2q3 5 6 9t8 7.5t7.5 5t9.5 5l9 4.5q33 39 63 39q25 0 57 -32q2 -2 13.5 -15t20.5 -20t18 -11q23 -18 23 -40q-1 -25 -11 -42.5
t-21 -21t-20 3.5q-32 35 -59 62l-20 22q-6 -7 -20 -17h7l-37 -35q-26 -25 -35 -30t-26 -5q-25 0 -34 13z" />
    <glyph glyph-name="otilde" unicode="&#xf5;" horiz-adv-x="478" 
d="M222 440l1 1q22 11 57 8t55 -17q9 -6 35 -19t41 -24t32 -42t24 -77q5 -28 -14 -62q-15 -27 -75.5 -90t-82.5 -74q-23 -11 -70 -17t-73 0q-68 15 -110 80t-29 135q5 28 68.5 95.5t100.5 83.5zM326 301l1 1q-3 8 -14.5 8.5t-51.5 -7.5q-26 -5 -37.5 -13t-39.5 -42
q-60 -75 -49 -93q5 -8 26.5 -6t45.5 13q43 20 85 69t34 70zM16 637l4 5q17 34 66 69q29 22 37 25q17 5 47 -4q18 0 34 -8t24.5 -15.5t24.5 -26t21 -23.5q4 -3 15 -3h6q6 0 12 2t11 3.5t11.5 6t10 7t10.5 8.5t9 8t9.5 9t8.5 8q39 31 67 3t-3 -67l-5 -5q-10 -18 -33.5 -41.5
t-40.5 -32.5q-11 -6 -59 -8q-31 0 -42.5 2t-25.5 11q-11 7 -29.5 24t-33 28t-25.5 11q-8 0 -45 -39l-7 -6q-10 -20 -28 -26q-17 -12 -26 -10t-23 17q-31 39 -2 68z" />
    <glyph glyph-name="odieresis" unicode="&#xf6;" horiz-adv-x="478" 
d="M222 440l1 1q22 11 57 8t55 -17q9 -6 35 -19t41 -24t32 -42t24 -77q5 -28 -14 -62q-15 -27 -75.5 -90t-82.5 -74q-23 -11 -70 -17t-73 0q-68 15 -110 80t-29 135q5 28 68.5 95.5t100.5 83.5zM326 301l1 1q-3 8 -14.5 8.5t-51.5 -7.5q-26 -5 -37.5 -13t-39.5 -42
q-60 -75 -49 -93q5 -8 26.5 -6t45.5 13q43 20 85 69t34 70zM62 570q-7 10 -7 16q-15 22 -9 57q11 30 48 41h5.5h6.5h5q21 1 37 -10.5t21 -31.5q13 -29 -4 -54q4 -2 4 -3q0 -10 -34 -21q-12 -4 -18 -5h-18q-30 -3 -37 11zM358 557q-18 0 -40 14q-39 17 -36.5 55t47.5 56
q6 1 9 1q46 10 67.5 -25t-7.5 -68q-13 -33 -40 -33z" />
    <glyph glyph-name="divide" unicode="&#xf7;" horiz-adv-x="645" 
d="M181 143v1q11 41 30 48.5t51 -8.5q49 -20 63 -29t19 -24q11 -30 5 -60t-22 -30q-10 0 -19 -11t-39 -10t-44 12q-16 12 -34 47q-12 23 -13.5 34t3.5 30zM53 453l-1 -1q19 8 26.5 7t24.5 -14q18 -13 73 -14.5t115 3.5t133.5 9.5t113.5 2.5q51 -2 82 -46.5t3 -75.5
q-10 -10 -10 -23q0 -6 -3 -8t-18 -2t-45 2q-96 5 -189 8q-166 4 -230.5 13t-93.5 32q-14 11 -18.5 20t-4.5 27q0 23 9.5 36.5t32.5 23.5zM232 633l-1 1q4 10 37 10q22 0 33.5 -5.5t34.5 -27.5q41 -38 35.5 -62.5t-54.5 -28.5q-52 -5 -52 11q0 7 -15 19q-11 9 -17.5 38
t-0.5 45z" />
    <glyph glyph-name="oslash" unicode="&#xf8;" horiz-adv-x="478" 
d="M280 725q6 23 22.5 35t34.5 11t34 -9t23.5 -27t1.5 -42l-45 -164q4 -2 16.5 -8t17.5 -9t16.5 -10t17.5 -13.5t14.5 -18t14 -24t11 -30.5t8.5 -39q5 -28 -14 -62q-15 -27 -75.5 -90t-82.5 -74q-16 -9 -50 -14l-47 -176q-6 -23 -22.5 -35t-34.5 -11t-34 9t-23.5 27t-1.5 42
l41 150q-57 25 -89 84.5t-21 121.5q5 28 68.5 95.5t100.5 83.5l40 19l1 1l10 4zM135 262q3 -5 17 -11l50 186q-27 -18 -51 -47q-18 -23 -23 -52.5t-1.5 -48.5t8.5 -27zM365 388q3 11 -8 27t-29 28l-46 -171q37 30 63 65t20 51z" />
    <glyph glyph-name="ugrave" unicode="&#xf9;" horiz-adv-x="661" 
d="M652 223h2q0 -7 -35.5 -50.5t-35.5 -46.5q0 -11 -24.5 -48.5t-68.5 -75t-85 -37.5q-22 0 -69 23q-26 13 -36 49.5t-11 66.5t-6 30q-6 1 -47.5 -48t-41.5 -57q0 -9 -34 -29t-45 -20q-32 0 -65.5 45t-33.5 90q0 58 17.5 139.5t19.5 106.5q2 32 11 58t15 65q7 50 14 59
q7 11 73 11q45 0 45 -12q0 -1 4 -11.5t4 -20.5q0 -23 -22 -50q-53 -199 -53 -272q0 -38 16 -38q23 0 76 70.5t120 170t100 136.5q1 2 5 2q13 0 38 -31t25 -43q0 -21 -36.5 -134.5t-62.5 -175.5q-11 -25 -11 -37q0 -9 6 -9q14 0 38.5 34t52.5 92q12 25 30 40.5t34 15.5
q12 0 44.5 -23.5t32.5 -34.5zM222 662v1h1q-27 28 -10.5 62t62.5 36q41 -10 106 -59q4 -3 15.5 -6.5t18 -7t2.5 -6.5q32 -12 41.5 -39t-5.5 -48q-8 -42 -55 -44t-88 39q-15 15 -37 32.5t-36.5 28t-14.5 11.5z" />
    <glyph glyph-name="uacute" unicode="&#xfa;" horiz-adv-x="661" 
d="M652 223h2q0 -7 -35.5 -50.5t-35.5 -46.5q0 -11 -24.5 -48.5t-68.5 -75t-85 -37.5q-22 0 -69 23q-26 13 -36 49.5t-11 66.5t-6 30q-6 1 -47.5 -48t-41.5 -57q0 -9 -34 -29t-45 -20q-32 0 -65.5 45t-33.5 90q0 58 17.5 139.5t19.5 106.5q2 32 11 58t15 65q7 50 14 59
q7 11 73 11q45 0 45 -12q0 -1 4 -11.5t4 -20.5q0 -23 -22 -50q-53 -199 -53 -272q0 -38 16 -38q23 0 76 70.5t120 170t100 136.5q1 2 5 2q13 0 38 -31t25 -43q0 -21 -36.5 -134.5t-62.5 -175.5q-11 -25 -11 -37q0 -9 6 -9q14 0 38.5 34t52.5 92q12 25 30 40.5t34 15.5
q12 0 44.5 -23.5t32.5 -34.5zM183 635h-1q2 4 17.5 14.5t30.5 16.5q20 3 23 6q18 18 35 32l2 2q22 19 68 19q42 21 60 21q28 0 48.5 -14.5t20.5 -38.5q0 -6 -6 -12t-14.5 -13t-12.5 -12l1 -1q-4 -7 -39 -23l-103 -53q-68 -35 -83 -35q-26 0 -41.5 20.5t-15.5 47.5q0 8 10 23
z" />
    <glyph glyph-name="ucircumflex" unicode="&#xfb;" horiz-adv-x="661" 
d="M652 223h2q0 -7 -35.5 -50.5t-35.5 -46.5q0 -11 -24.5 -48.5t-68.5 -75t-85 -37.5q-22 0 -69 23q-26 13 -36 49.5t-11 66.5t-6 30q-6 1 -47.5 -48t-41.5 -57q0 -9 -34 -29t-45 -20q-32 0 -65.5 45t-33.5 90q0 58 17.5 139.5t19.5 106.5q2 32 11 58t15 65q7 50 14 59
q7 11 73 11q45 0 45 -12q0 -1 4 -11.5t4 -20.5q0 -23 -22 -50q-53 -199 -53 -272q0 -38 16 -38q23 0 76 70.5t120 170t100 136.5q1 2 5 2q13 0 38 -31t25 -43q0 -21 -36.5 -134.5t-62.5 -175.5q-11 -25 -11 -37q0 -9 6 -9q14 0 38.5 34t52.5 92q12 25 30 40.5t34 15.5
q12 0 44.5 -23.5t32.5 -34.5zM197 574q-10 11 -10 26t8 21q0 2 -0.5 5.5t-0.5 4.5q0 15 12.5 26.5t29.5 12.5l2 2q3 5 6 9t8 7.5t7.5 5t9.5 5l9 4.5q33 39 63 39q25 0 57 -32q2 -2 13.5 -15t20.5 -20t18 -11q23 -18 23 -40q-1 -25 -11 -42.5t-21 -21t-20 3.5q-32 35 -59 62
l-20 22q-6 -7 -20 -17h7l-37 -35q-26 -25 -35 -30t-26 -5q-25 0 -34 13z" />
    <glyph glyph-name="udieresis" unicode="&#xfc;" horiz-adv-x="661" 
d="M652 223h2q0 -7 -35.5 -50.5t-35.5 -46.5q0 -11 -24.5 -48.5t-68.5 -75t-85 -37.5q-22 0 -69 23q-26 13 -36 49.5t-11 66.5t-6 30q-6 1 -47.5 -48t-41.5 -57q0 -9 -34 -29t-45 -20q-32 0 -65.5 45t-33.5 90q0 58 17.5 139.5t19.5 106.5q2 32 11 58t15 65q7 50 14 59
q7 11 73 11q45 0 45 -12q0 -1 4 -11.5t4 -20.5q0 -23 -22 -50q-53 -199 -53 -272q0 -38 16 -38q23 0 76 70.5t120 170t100 136.5q1 2 5 2q13 0 38 -31t25 -43q0 -21 -36.5 -134.5t-62.5 -175.5q-11 -25 -11 -37q0 -9 6 -9q14 0 38.5 34t52.5 92q12 25 30 40.5t34 15.5
q12 0 44.5 -23.5t32.5 -34.5zM154 570q-7 10 -7 16q-15 22 -9 57q11 30 48 41h5.5h6.5h5q21 1 37 -10.5t21 -31.5q13 -29 -4 -54q4 -2 4 -3q0 -10 -34 -21q-12 -4 -18 -5h-18q-30 -3 -37 11zM450 557q-18 0 -40 14q-39 17 -36.5 55t47.5 56q6 1 9 1q46 10 67.5 -25t-7.5 -68
q-13 -33 -40 -33z" />
    <glyph glyph-name="yacute" unicode="&#xfd;" horiz-adv-x="538" 
d="M463 400l3 2q0 -4 -25 -39.5t-25 -39.5q0 -3 -12.5 -22.5t-31 -49t-28.5 -50.5q-28 -57 -60.5 -109t-49.5 -76.5t-17 -30.5q0 -4 -9.5 -22.5t-23 -46t-21.5 -49.5q-14 -39 -28.5 -53.5t-42.5 -14.5q-20 0 -30 4.5t-26 20.5q-11 11 -16 19.5t-8 14.5t1 17t6.5 18t13 27.5
t17.5 34.5q24 52 50.5 92.5t39 58t12.5 26.5q0 10 9 25t8 37t-21 60q-12 23 -36 74.5t-24 55.5q0 5 -22 38t-37 69.5t-3 55.5q11 16 28.5 20.5t36.5 -3.5t37 -23.5t33 -39.5t21 -51q5 -21 34.5 -80t34.5 -59q3 0 14 20.5t34 61.5t49 77q43 60 40 70q-3 11 20 25
q30 15 39.5 14t17.5 -10.5t14 -9.5q7 0 28 -16q24 -18 21.5 -40.5t-32.5 -58.5q-33 -38 -33 -44zM122 635h-1q2 4 17.5 14.5t30.5 16.5q4 1 9 1q11 2 16 7q13 14 35 32q22 19 68 19q42 21 60 21q28 0 48.5 -14.5t20.5 -38.5q0 -6 -6 -12t-14.5 -13t-12.5 -12l1 -1
q-4 -7 -39 -23l-103 -53q-68 -35 -83 -35q-26 0 -41.5 20.5t-15.5 47.5q0 8 10 23z" />
    <glyph glyph-name="thorn" unicode="&#xfe;" horiz-adv-x="463" 
d="M45 731l3 2q-4 19 7.5 37t28.5 18t42 -11t40 -25q12 -11 13.5 -22t-2.5 -56q-5 -63 5 -63q9 0 17 8t74 0q40 -5 60 -11.5t42 -20.5q36 -23 48 -39t22 -54q20 -78 0 -141q-32 -100 -85 -143t-135 -35l-52 5l-1 -27q-2 -54 5 -105.5t18 -65.5q10 -13 2 -46t-26 -56
q-21 -26 -41.5 -28t-54.5 18q-26 15 -40 36t-9 38q5 15 -4 24q-8 15 -1.5 27.5t13.5 41t1 54.5q-5 20 -7 91t-14 94q-7 13 -1 23q7 8 12 40.5t4 56.5q-1 19 9 168.5t7 166.5zM309 477l-1 1q-7 7 -27.5 8.5t-33.5 -3.5q-15 -6 -40 -34t-33 -73q-5 -30 -4.5 -39t8.5 -15
q31 -24 98 26q24 17 36.5 65t-3.5 64z" />
    <glyph glyph-name="ydieresis" unicode="&#xff;" horiz-adv-x="538" 
d="M463 400l3 2q0 -4 -25 -39.5t-25 -39.5q0 -3 -12.5 -22.5t-31 -49t-28.5 -50.5q-28 -57 -60.5 -109t-49.5 -76.5t-17 -30.5q0 -4 -9.5 -22.5t-23 -46t-21.5 -49.5q-14 -39 -28.5 -53.5t-42.5 -14.5q-20 0 -30 4.5t-26 20.5q-11 11 -16 19.5t-8 14.5t1 17t6.5 18t13 27.5
t17.5 34.5q24 52 50.5 92.5t39 58t12.5 26.5q0 10 9 25t8 37t-21 60q-12 23 -36 74.5t-24 55.5q0 5 -22 38t-37 69.5t-3 55.5q11 16 28.5 20.5t36.5 -3.5t37 -23.5t33 -39.5t21 -51q5 -21 34.5 -80t34.5 -59q3 0 14 20.5t34 61.5t49 77q43 60 40 70q-3 11 20 25
q30 15 39.5 14t17.5 -10.5t14 -9.5q7 0 28 -16q24 -18 21.5 -40.5t-32.5 -58.5q-33 -38 -33 -44zM92 652q-7 10 -7 16q-15 22 -9 57q11 30 48 41h5.5h6.5h5q21 1 37 -10.5t21 -31.5q13 -29 -4 -54q4 -2 4 -3q0 -10 -34 -21q-12 -4 -18 -5h-18q-30 -3 -37 11zM388 639
q-18 0 -40 14q-39 17 -36.5 55t47.5 56q6 1 9 1q46 10 67.5 -25t-7.5 -68q-13 -33 -40 -33z" />
    <glyph glyph-name="dotlessi" unicode="&#x131;" horiz-adv-x="272" 
d="M121 490l-1 1q19 29 70 -10q15 -11 19 -19.5t4 -29.5q0 -34 -14 -72q-16 -44 -32.5 -123.5t-20.5 -126.5q-7 -86 -32 -100q-11 -6 -19.5 -2.5t-37.5 26.5q-19 14 -23 23t-4 34q1 54 37 212.5t54 186.5z" />
    <glyph glyph-name="OE" unicode="&#x152;" horiz-adv-x="1154" 
d="M668 716l1 -1q10 8 105.5 24t196 19.5t150.5 -26.5l4 -3l-71 -24q-48 -16 -87 -26t-52.5 -13.5t-20.5 -9.5q-11 -9 -58 -20q-57 -14 -71.5 -23t-26.5 -37q-15 -34 -15 -47q0 -8 -6 -27.5t-11 -34.5t-2 -18q14 -14 129 41q61 29 85 24q23 -4 29 -20t-7.5 -38t-41.5 -43
q-29 -22 -76.5 -46t-74.5 -31q-12 -3 -26 -10t-22.5 -11t-15.5 -1q-25 10 -61 -50q-64 -105 -58 -111q4 -3 20 2.5t73 23t130 33.5l89 20q58 13 80.5 10t33.5 -25q8 -15 7.5 -21t-9.5 -19q-14 -18 -55.5 -32.5t-108 -29.5t-94.5 -24l-113 -35q-32 -10 -71 -23.5t-53 -18
t-32.5 -7t-28.5 3t-22 17.5q-16 16 -19 27.5t5 25.5q-75 -52 -102 -52q-13 0 -20 -7q-11 -10 -60 -5.5t-76 18.5q-40 21 -62.5 43.5t-42.5 63.5q-19 38 -21.5 54t0.5 62q4 54 20 96t55 100q22 32 75.5 88t62.5 56q3 0 26.5 22t66.5 47.5t93 32.5l1 -1q36 5 50 14q6 4 51 -7
q9 -2 15 -3q33 -8 47.5 -15t32.5 -25q5 16 15.5 27.5t19.5 11.5t25 14zM572 563l-1 -1q-8 13 -12.5 17t-8 0t-8.5 -17q-7 -20 -29 -26q-16 -4 -28.5 3t-22 16.5t-23 16t-39 -1t-62.5 -32.5q-29 -20 -35 -20q-12 0 -88 -85t-77 -114q0 -10 -9 -23q-19 -32 -14 -69.5t33.5 -68
t63.5 -30.5q59 0 182 88t157 155q61 123 21 192z" />
    <glyph glyph-name="oe" unicode="&#x153;" horiz-adv-x="896" 
d="M697 530v3q25 10 45 6t48 -24q32 -23 43.5 -35.5t25.5 -39.5q13 -24 13.5 -58t-10.5 -59q-11 -24 -41 -50t-64 -41q-26 -12 -95 -22.5t-84 -5.5q-12 4 -17 -17q-8 -37 8 -67q3 -7 8 -11q14 -13 56 -9.5t63 19.5t30 16t20 9q16 13 59 29.5t52 12.5q13 -5 22.5 -27t5.5 -39
q-7 -29 -82.5 -75.5t-131.5 -55.5q-26 -4 -68 8t-72 32q-29 20 -51.5 46t-22.5 39q-53 -53 -75 -64q-27 -14 -85 -21t-90 0q-83 18 -134.5 98t-35.5 165q6 34 84 117t123 103l49 23l1 1q28 13 70 9.5t67 -20.5q11 -8 39.5 -21.5t51.5 -30.5t39 -45q29 32 68 61t68 41z
M420 365l2 1q-4 10 -18 10t-63 -9q-31 -5 -45.5 -15.5t-49.5 -51.5q-73 -92 -60 -114q7 -10 33 -8t56 16q52 24 103.5 84.5t41.5 86.5zM748 399q10 24 -5 22q-10 -1 -30 -14q-24 -16 -52 -46.5t-23 -35.5q4 -4 30 4q22 6 47 28t33 42z" />
    <glyph glyph-name="Ydieresis" unicode="&#x178;" horiz-adv-x="553" 
d="M457 780l4 6q26 8 42 4t29 -20q34 -40 -12 -94q-25 -30 -46.5 -60t-21.5 -36q0 -4 -11 -15t-34 -36.5t-44 -56.5q-15 -22 -38.5 -54.5t-33 -47t-9.5 -23.5q0 -10 -18.5 -66.5t-24.5 -84.5q-4 -18 -5 -23.5t-4 -13.5t-6 -14t-13 -28.5t-22 -53.5q-31 -78 -38 -87t-45 -9
q-26 0 -34 3.5t-18 19.5q-25 42 3 77q12 14 29 52t17 50q0 14 6.5 32.5t12.5 32t5 31t-14 31.5l-7.5 9t-5 6.5t-3.5 7t-2.5 6.5t-1.5 9.5t-0.5 11.5t-1 17t-0.5 22q-2 52 -13.5 130t-19.5 92q-6 12 -28 38q-30 35 -13.5 68t63.5 33q32 0 50.5 -28t28 -66.5t13.5 -43.5
q7 -10 18 -113q3 -28 7.5 -30.5t18.5 15.5q6 7 28 31.5t46 53.5t45 59q67 97 89 125t33 31zM106 841q-7 11 -7 16q-15 22 -9 57q11 30 48 41h17q21 1 37 -10.5t21 -31.5q13 -29 -4 -54q4 -2 4 -3q0 -10 -34 -21q-12 -4 -18 -5h-18q-30 -3 -37 11zM402 828q-18 0 -40 14
q-39 17 -36.5 55t47.5 56q6 1 9 1q46 10 67.5 -25t-7.5 -68q-13 -33 -40 -33z" />
    <glyph glyph-name="circumflex" unicode="&#x2c6;" horiz-adv-x="392" 
d="M56 574q-10 11 -10 26t8 21q0 2 -0.5 5.5t-0.5 4.5q0 15 12.5 26.5t29.5 12.5l2 2q3 5 6 9t8 7.5t7.5 5t9.5 5l9 4.5q33 39 63 39q25 0 57 -32q2 -2 13.5 -15t20.5 -20t18 -11q23 -18 23 -40q-1 -25 -11 -42.5t-21 -21t-20 3.5q-31 35 -59 62l-20 22q-6 -7 -20 -17h7
l-37 -35q-26 -25 -35 -30t-26 -5q-25 0 -34 13z" />
    <glyph glyph-name="ring" unicode="&#x2da;" horiz-adv-x="316" 
d="M44 707q0 48 34 82t82 34t82 -34t34 -82t-34 -82t-82 -34t-82 34t-34 82zM84 707q0 -31 22 -53.5t54 -22.5t54 22.5t22 53.5t-22 53.5t-54 22.5t-54 -22.5t-22 -53.5z" />
    <glyph glyph-name="tilde" unicode="&#x2dc;" horiz-adv-x="498" 
d="M36 637l4 5q17 34 66 69q29 22 37 25q17 5 47 -4q18 0 34 -8t24.5 -15.5t24.5 -26t21 -23.5q4 -3 15 -3h6q6 0 12 2t11 3.5t11.5 6t10 7t10.5 8.5t9 8t9.5 9t8.5 8q39 31 67 3t-3 -67l-5 -5q-10 -18 -33.5 -41.5t-40.5 -32.5q-11 -6 -59 -8q-31 0 -42.5 2t-25.5 11
q-11 7 -29.5 24t-33 28t-25.5 11q-8 0 -45 -39l-7 -6q-10 -20 -28 -26q-17 -12 -26 -10t-23 17q-31 39 -2 68z" />
    <glyph glyph-name="Delta" unicode="&#x394;" horiz-adv-x="820" 
d="M441 717l2 -1q12 13 22.5 16.5t36.5 3.5q29 0 37 -3.5t18 -19.5q10 -17 15.5 -37.5t27 -82.5t64.5 -159q23 -52 59.5 -187t62.5 -178q23 -39 24 -59t-19 -40q-17 -17 -25.5 -19.5t-37.5 0.5q-43 4 -187.5 -10t-227.5 -17q-88 -3 -118 -10.5t-71 -10.5l-61 -5l-26 29
q-26 30 -26 38t16 24.5t24 16.5q7 0 14.5 16.5t24 48t36.5 57.5q20 25 20 29t30.5 48.5t92.5 146t121 218.5q35 69 34 99q-1 28 17 48zM528 477l2 -3q-22 46 -24 46q-6 0 -36 -53q-59 -109 -129 -224.5t-106 -164.5q-31 -42 -31 -49q0 -8 55 -3q283 22 293 27q8 4 51.5 3.5
t43.5 4.5q3 5 -12.5 76.5t-46 173.5t-60.5 166z" />
    <glyph glyph-name="Delta" unicode="&#x2206;" horiz-adv-x="820" 
d="M441 717l2 -1q12 13 22.5 16.5t36.5 3.5q29 0 37 -3.5t18 -19.5q10 -17 15.5 -37.5t27 -82.5t64.5 -159q23 -52 59.5 -187t62.5 -178q23 -39 24 -59t-19 -40q-17 -17 -25.5 -19.5t-37.5 0.5q-43 4 -187.5 -10t-227.5 -17q-88 -3 -118 -10.5t-71 -10.5l-61 -5l-26 29
q-26 30 -26 38t16 24.5t24 16.5q7 0 14.5 16.5t24 48t36.5 57.5q20 25 20 29t30.5 48.5t92.5 146t121 218.5q35 69 34 99q-1 28 17 48zM528 477l2 -3q-22 46 -24 46q-6 0 -36 -53q-59 -109 -129 -224.5t-106 -164.5q-31 -42 -31 -49q0 -8 55 -3q283 22 293 27q8 4 51.5 3.5
t43.5 4.5q3 5 -12.5 76.5t-46 173.5t-60.5 166z" />
    <glyph glyph-name="Omega" unicode="&#x3a9;" horiz-adv-x="983" 
d="M269 779l39 22l166 1q139 1 175 -6q63 -11 105 -59q37 -41 72 -120l29 -63q30 -66 31 -133.5t-27 -197.5q-4 -19 -23.5 -57t-27.5 -43q-7 -4 -22 -32.5t-12 -31.5q1 -2 12.5 1t34.5 6.5t46 3.5q60 0 90.5 -31t12.5 -74q-9 -21 -37 -32.5t-52 -3.5q-7 5 -25 3.5
t-29.5 -4.5t-44 -9.5t-68.5 -10.5q-38 -4 -69 -10.5t-40 -8t-23 1.5t-40 15q-16 7 -22.5 16t-12.5 30q-7 28 -11 28q-2 1 -10 -10q-10 -13 -38 -23.5t-39 -4.5q-10 5 -46 3q-297 -17 -332 -4q-15 6 -17 14.5t-1 55.5l2 62l21 6q19 3 23.5 2t20.5 -6t34 -8q24 -4 93 -3.5
t73 4.5t-47 51q-64 61 -97 118.5t-41 123.5q-21 178 3 230l21 46q9 20 64.5 72.5t85.5 69.5zM570 702l-1 2q-59 17 -91 17.5t-51.5 -8t-32.5 -8.5q-24 0 -78.5 -51t-74.5 -92q-16 -33 -16 -96q-2 -148 40 -202q25 -34 85.5 -91t77.5 -63q32 -12 46.5 -21.5t21.5 -25.5
q8 -16 13.5 -21.5t13 -3t19.5 14.5q22 20 31 20q7 0 50.5 42t63.5 68q47 61 62 162t-14 168q-24 55 -53 108q-22 40 -40 52.5t-72 28.5z" />
    <glyph glyph-name="Omega" unicode="&#x2126;" horiz-adv-x="983" 
d="M269 779l39 22l166 1q139 1 175 -6q63 -11 105 -59q37 -41 72 -120l29 -63q30 -66 31 -133.5t-27 -197.5q-4 -19 -23.5 -57t-27.5 -43q-7 -4 -22 -32.5t-12 -31.5q1 -2 12.5 1t34.5 6.5t46 3.5q60 0 90.5 -31t12.5 -74q-9 -21 -37 -32.5t-52 -3.5q-7 5 -25 3.5
t-29.5 -4.5t-44 -9.5t-68.5 -10.5q-38 -4 -69 -10.5t-40 -8t-23 1.5t-40 15q-16 7 -22.5 16t-12.5 30q-7 28 -11 28q-2 1 -10 -10q-10 -13 -38 -23.5t-39 -4.5q-10 5 -46 3q-297 -17 -332 -4q-15 6 -17 14.5t-1 55.5l2 62l21 6q19 3 23.5 2t20.5 -6t34 -8q24 -4 93 -3.5
t73 4.5t-47 51q-64 61 -97 118.5t-41 123.5q-21 178 3 230l21 46q9 20 64.5 72.5t85.5 69.5zM570 702l-1 2q-59 17 -91 17.5t-51.5 -8t-32.5 -8.5q-24 0 -78.5 -51t-74.5 -92q-16 -33 -16 -96q-2 -148 40 -202q25 -34 85.5 -91t77.5 -63q32 -12 46.5 -21.5t21.5 -25.5
q8 -16 13.5 -21.5t13 -3t19.5 14.5q22 20 31 20q7 0 50.5 42t63.5 68q47 61 62 162t-14 168q-24 55 -53 108q-22 40 -40 52.5t-72 28.5z" />
    <glyph glyph-name="pi" unicode="&#x3c0;" horiz-adv-x="726" 
d="M529 490l4 -3q37 1 60.5 4.5t28.5 7t11 4.5t11.5 -1t26.5 -13q38 -19 47.5 -47.5t-13.5 -51.5q-17 -17 -73 -21.5t-60 -8.5q-3 -3 -6 -44.5t-5.5 -97.5t-5.5 -79q-3 -21 -8 -95t-8 -89q-5 -21 -20.5 -35.5t-34.5 -14.5q-17 0 -29.5 4t-20.5 14t-12 22.5t-5.5 33.5t-1 43
t2.5 55.5t5 66t5.5 80.5t4.5 92l1 32l-50 -2q-50 -2 -55 -7q-11 -11 -27 -163t-11 -205q3 -37 1 -49.5t-12 -25.5t-18 -15.5t-26 -0.5q-49 7 -63 37.5t-6 119.5q19 212 17 268l-1 32l-61 2q-53 1 -72.5 13t-31.5 50q-17 50 23 77q13 8 22 8t38 -8q84 -24 103 -5q8 8 45 7
t79 -4.5t88 4.5q41 7 113 9z" />
    <glyph glyph-name="endash" unicode="&#x2013;" horiz-adv-x="607" 
d="M494 471l50 12q4 0 27 -21q14 -14 18.5 -23.5t4.5 -28.5q0 -35 -13 -49t-46 -14q-14 0 -63.5 -7.5t-213.5 -10.5l-191 -3l-27 28q-49 51 -25 75q8 8 39 10t131 3q109 1 137.5 3t41.5 11q17 11 44.5 9.5t85.5 5.5z" />
    <glyph glyph-name="emdash" unicode="&#x2014;" horiz-adv-x="907" 
d="M734 517l4 1q9 5 43 3t42 -9q9 -7 27 -11q14 -4 31.5 -30.5t17.5 -45.5q0 -17 -14 -34.5t-33 -25.5q-35 -14 -73.5 -17t-59 1t-25.5 7q-23 7 -50.5 2t-85 -16t-90.5 -13q-32 -1 -79.5 -5.5t-82 -7t-94 -2t-128.5 7.5q-74 7 -74 72q0 33 11 48t30 18.5t36 -7.5
q25 -17 162.5 -14t184.5 21q11 4 75.5 9.5t100.5 18.5q43 15 60 15q14 0 26 6.5t19 4.5q9 -4 19 3z" />
    <glyph glyph-name="quoteleft" unicode="&#x2018;" horiz-adv-x="337" 
d="M191 509h1q0 -6 -28.5 -44.5t-28.5 -42.5q0 -5 -11 -18q-12 -13 -45.5 -13.5t-43.5 12.5q-46 57 -10 104q18 23 18 28t51 63.5t97 106.5q39 39 50 46.5t29 4.5q19 -3 37.5 -20.5t18.5 -33.5q0 -11 -28.5 -54t-49.5 -62q-22 -20 -22 -28q0 -6 -17.5 -25t-17.5 -24z" />
    <glyph glyph-name="quoteright" unicode="&#x2019;" horiz-adv-x="343" 
d="M145 639h-1q0 6 28.5 44.5t28.5 42.5q0 5 11 18q12 13 45.5 13.5t43.5 -12.5q46 -57 10 -104q-18 -23 -18 -28t-51 -63.5t-97 -106.5q-39 -39 -50 -46.5t-29 -4.5q-19 3 -37.5 20.5t-18.5 33.5q0 11 28.5 54t49.5 62q22 20 22 28q0 6 17.5 25t17.5 24z" />
    <glyph glyph-name="quotesinglbase" unicode="&#x201a;" horiz-adv-x="252" 
d="M103 167h-1q0 29 51 29q26 0 53 -24q18 -17 21.5 -25.5t1.5 -30.5q-3 -25 -34 -89.5t-62 -111.5q-17 -26 -25.5 -32t-26.5 -6q-26 0 -44 15q-11 9 -14.5 17.5t-2.5 27.5q2 30 18 61q18 35 41.5 95.5t23.5 73.5z" />
    <glyph glyph-name="quotedblleft" unicode="&#x201c;" horiz-adv-x="564" 
d="M191 509h1q0 -6 -28.5 -44.5t-28.5 -42.5q0 -5 -11 -18q-12 -13 -45.5 -13.5t-43.5 12.5q-46 57 -10 104q18 23 18 28t51 63.5t97 106.5q39 39 50 46.5t29 4.5q19 -3 37.5 -20.5t18.5 -33.5q0 -11 -28.5 -54t-49.5 -62q-22 -20 -22 -28q0 -6 -17.5 -25t-17.5 -24z
M409 509h1q0 -6 -28.5 -44.5t-28.5 -42.5q0 -5 -11 -18q-12 -13 -45.5 -13.5t-43.5 12.5q-46 57 -10 104q18 23 18 28t51 63.5t97 106.5q39 39 50 46.5t29 4.5q19 -3 37.5 -20.5t18.5 -33.5q0 -11 -28.5 -54t-49.5 -62q-22 -20 -22 -28q0 -6 -17.5 -25t-17.5 -24z" />
    <glyph glyph-name="quotedblright" unicode="&#x201d;" horiz-adv-x="564" 
d="M361 639h-1q0 6 28.5 44.5t28.5 42.5q0 5 11 18q12 13 45.5 13.5t43.5 -12.5q46 -57 10 -104q-18 -23 -18 -28t-51 -63.5t-97 -106.5q-39 -39 -50 -46.5t-29 -4.5q-19 3 -37.5 20.5t-18.5 33.5q0 11 28.5 54t49.5 62q22 20 22 28q0 6 17.5 25t17.5 24zM143 639h-1
q0 6 28.5 44.5t28.5 42.5q0 5 11 18q12 13 45.5 13.5t43.5 -12.5q46 -57 10 -104q-18 -23 -18 -28t-51 -63.5t-97 -106.5q-39 -39 -50 -46.5t-29 -4.5q-19 3 -37.5 20.5t-18.5 33.5q0 11 28.5 54t49.5 62q22 20 22 28q0 6 17.5 25t17.5 24z" />
    <glyph glyph-name="quotedblbase" unicode="&#x201e;" horiz-adv-x="460" 
d="M317 173h1q0 12 7.5 22.5t25 15.5t46.5 -11q23 -12 33 -23t16 -31q7 -25 -5 -51.5t-49.5 -91t-68.5 -140.5q-6 -16 -13 -22t-21 -8q-45 -8 -73 46q-8 17 -9 27.5t4 32.5q7 35 14 45l34 64q40 74 49 93.5t9 31.5zM127 173h1q0 12 7.5 22.5t25 15.5t46.5 -11q23 -12 33 -23
t16 -31q7 -25 -5 -51.5t-49.5 -91t-68.5 -140.5q-6 -16 -13 -22t-21 -8q-45 -8 -73 46q-8 17 -9 27.5t4 32.5q7 35 14 45l34 64q40 74 49 93.5t9 31.5z" />
    <glyph glyph-name="dagger" unicode="&#x2020;" horiz-adv-x="547" 
d="M236 738l7 64h122l-10 -73q-9 -72 -7 -101l2 -28l65 -2q54 -1 79 -10t36 -30q15 -28 -18 -61q-19 -18 -76 -19t-61 -2l-25 -6v-198q0 -159 -6 -208.5t-28 -69.5t-39.5 -20t-39.5 20q-16 15 -20.5 25t-4.5 29q0 30 9 46q7 13 10 141t-2 175q-3 27 -6 31.5t-17 1.5l-54 -12
q-67 -15 -100.5 -3.5t-41.5 52.5q-3 14 0.5 22t17.5 22q16 15 28.5 18.5t37 4.5t48.5 6q10 2 31.5 6.5t25.5 5.5l25 5l1 53q2 53 11 115z" />
    <glyph glyph-name="daggerdbl" unicode="&#x2021;" horiz-adv-x="564" 
d="M264 786v-1q16 7 24.5 6t28.5 -14q25 -17 33.5 -37t8.5 -63q0 -44 10.5 -50.5t62.5 2.5q37 6 47.5 5t29.5 -14q26 -18 33 -32t-1 -30q-21 -44 -101 -53q-55 -6 -64 -16.5t-5 -67.5q3 -62 6 -72q1 -4 23.5 -3t49 4.5t55 -6.5t41.5 -36q20 -42 -16 -68q-27 -20 -124 -24
l-35 -2l-13 -134q-13 -136 -16 -144q-3 -11 -25 -20.5t-50.5 -5t-43.5 30.5q-8 14 -8.5 29.5t3.5 31t9.5 51t6.5 76.5l2 57l-50 1q-52 1 -76.5 8t-41.5 26q-22 25 -23.5 39.5t15.5 39.5q14 19 22.5 24.5t28.5 6.5q16 1 24.5 -0.5t12.5 -4t16.5 -6t33.5 -6.5q29 -4 36 -2
t12 14q8 17 3 81q-4 43 -7 53.5t-13 8.5q-112 -14 -157 -1t-59 63q-5 21 8 38q10 13 24 15t85 1q80 -1 94.5 5t10.5 39q-9 85 -18 90q-7 6 -3 18t18.5 26.5t31.5 22.5z" />
    <glyph glyph-name="bullet" unicode="&#x2022;" horiz-adv-x="381" 
d="M230 519q19 6 31 3t33 -20q43 -33 55.5 -65.5t1.5 -81.5q-21 -94 -117 -158q-26 -18 -39.5 -22t-45.5 -4q-71 0 -104 38.5t-25 110.5t58.5 119.5t151.5 79.5z" />
    <glyph glyph-name="ellipsis" unicode="&#x2026;" horiz-adv-x="513" 
d="M40 246l-1 1q13 8 21.5 10t22.5 -1.5t19 -3.5q16 -1 35.5 -29t21.5 -51t-6 -37.5t-34 -31.5q-20 -14 -33 -12t-47 26q-19 13 -23.5 21.5t-5.5 32.5q-1 34 5 48t25 27zM211 246l-1 1q13 8 21.5 10t22.5 -1.5t19 -3.5q16 -1 35.5 -29t21.5 -51t-6 -37.5t-34 -31.5
q-20 -14 -33 -12t-47 26q-19 13 -23.5 21.5t-5.5 32.5q-1 34 5 48t25 27zM382 246l-1 1q13 8 21.5 10t22.5 -1.5t19 -3.5q16 -1 35.5 -29t21.5 -51t-6 -37.5t-34 -31.5q-20 -14 -33 -12t-47 26q-19 13 -23.5 21.5t-5.5 32.5q-1 34 5 48t25 27z" />
    <glyph glyph-name="perthousand" unicode="&#x2030;" horiz-adv-x="1361" 
d="M437 161l-2 17q15 30 42 64t48 55t56.5 55t45.5 44l10 8q32 26 98 28q59 0 100.5 -35.5t41.5 -109.5q0 -60 -56.5 -123t-126.5 -100.5t-116 -37.5q-54 0 -95 34.5t-46 100.5zM622 671l3 -2q36 62 70 62q23 0 51 -30.5t28 -51.5q0 -16 -15 -35t-61 -69.5t-92 -110.5
l-34 -35q-10 -11 -40 -40.5t-45.5 -46.5t-38.5 -43.5t-38 -52t-24 -52.5q-24 -28 -56 -73t-51 -65t-40 -20q-20 0 -43 24.5t-23 58.5q0 18 29 50q66 73 96.5 108.5t40 49.5t16 24.5t38.5 51.5t93 113l90 117q32 42 46 68zM784 319l1 -1q0 5 0.5 10t0.5 6q0 7 -25 7
q-37 0 -37 -11q-33 -8 -100.5 -64.5t-67.5 -96.5q0 -21 15 -21q25 0 71 29q32 20 87 75t55 67zM44 483l-2 17q15 30 42 64t48 55t56.5 55t45.5 44l10 8q32 26 98 28q59 0 100.5 -35.5t41.5 -109.5q0 -60 -56.5 -123t-126.5 -100.5t-116 -37.5q-54 0 -95 34.5t-46 100.5z
M391 641l1 -1q0 5 0.5 10t0.5 6q0 7 -25 7q-37 0 -37 -11q-33 -8 -100.5 -64.5t-67.5 -96.5q0 -21 15 -21q25 0 71 29q32 20 87 75t55 67zM857 161l-2 17q15 30 42 64t48 55t56.5 55t45.5 44l10 8q32 26 98 28q59 0 100.5 -35.5t41.5 -109.5q0 -60 -56.5 -123t-126.5 -100.5
t-116 -37.5q-54 0 -95 34.5t-46 100.5zM1204 319l1 -1q0 5 0.5 10t0.5 6q0 7 -25 7q-37 0 -37 -11q-33 -8 -100.5 -64.5t-67.5 -96.5q0 -21 15 -21q25 0 71 29q32 20 87 75t55 67z" />
    <glyph glyph-name="guilsinglleft" unicode="&#x2039;" horiz-adv-x="400" 
d="M313 652l-1 4q19 -20 19 -41q0 -15 -10 -31q-1 -1 -14 -25t-21.5 -38t-24 -36t-32.5 -38.5t-35 -26.5q-26 -16 -26 -23q0 -25 32.5 -57.5t71 -58.5t70.5 -48t32 -28q0 -14 -14 -37t-16 -32q-3 -17 -25 -17q-20 0 -54 24.5t-36 24.5q-5 0 -46.5 36.5t-50.5 39.5
q-6 2 -22 20.5t-37 43t-33 35.5q-23 21 -23 50q0 20 10 44q8 17 35.5 39.5t41.5 22.5q9 0 54 51.5t77 93.5q20 25 43 25q20 0 35 -17z" />
    <glyph glyph-name="guilsinglright" unicode="&#x203a;" horiz-adv-x="400" 
d="M79 656l-1 -4q15 17 35 17q23 0 43 -25q32 -42 77 -93.5t54 -51.5q14 0 41.5 -22.5t35.5 -39.5q10 -24 10 -44q0 -29 -23 -50q-12 -11 -33 -35.5t-37 -43t-22 -20.5q-9 -3 -50.5 -39.5t-46.5 -36.5q-2 0 -36 -24.5t-54 -24.5q-22 0 -25 17q-2 9 -16 32t-14 37q0 6 32 28
t70.5 48t71 58.5t32.5 57.5q0 7 -26 23q-18 10 -35 26.5t-32.5 38.5t-24 36t-21.5 38t-14 25q-10 16 -10 31q0 21 19 41z" />
    <glyph glyph-name="Euro" unicode="&#x20ac;" horiz-adv-x="807" 
d="M466 726q1 -1 2 -1q20 2 36 2q71 0 126.5 -19t55.5 -54q0 -14 -6 -17.5t-28 -5.5q-269 -16 -269 -59q0 -2 48.5 -7t97.5 -21t49 -47q0 -44 -22.5 -53.5t-111.5 -9.5q-36 0 -57.5 -1.5t-35.5 -2t-21 -7t-9 -9.5t-5.5 -16t-5.5 -20q-1 -2 11 -3.5t33.5 -2.5t49.5 -1
q63 0 83 -3t36 -14q33 -23 33 -44q0 -77 -78 -77q-14 0 -74 2t-72 2q-35 0 -35 -7q0 -10 22.5 -36.5t30.5 -26.5q5 0 9 -3.5t8 -7.5t19 -7.5t41 -3.5q159 0 229 82q12 14 16 18t10 7.5t13 3.5q37 0 57.5 -13t20.5 -33q0 -38 -50 -94.5t-99 -72.5q-49 -17 -147 -17
q-110 0 -190 51t-112 156q-4 11 -32.5 14t-30.5 4q-2 -1 -5 -1h-10q-28 0 -44 22t-16 55q0 28 13 51.5t35 23.5q20 0 36.5 -18t28.5 -18q14 0 28 18.5t14 40.5q0 9 -11.5 13t-46.5 9l-25 3h-5q-29 0 -44 15.5t-15 36.5q0 14 3 30t12.5 32t24.5 16q6 0 16 -8v5l60 -16
q6 -2 38 -6q9 30 39 68q48 63 94.5 82t133.5 21z" />
    <glyph glyph-name="partialdiff" unicode="&#x2202;" horiz-adv-x="605" 
d="M281 422v-2q-7 0 -41.5 21.5t-40.5 21.5q-9 0 -33 19t-34 33q-18 28 10 68t49 31q19 -8 69 -23t56 -15t13.5 -11t22.5 -19q57 -28 59 -29q7 -2 10 -8.5t13 -27t29 -45.5q22 -29 60 -94q35 -57 38 -122t-26 -112q-20 -31 -72.5 -85t-73.5 -64q-68 -35 -105 -35t-90 28
t-91 68q-46 50 -58 105t13 99q22 38 63 68t75.5 47.5t39.5 26.5q7 13 24 13q11 0 19.5 6.5t22.5 3.5q18 -4 18 7q0 9 -13 17.5t-26 8.5zM321 238l1 2q-13 1 -20.5 3.5t-9 4.5t-5 2.5t-10 -2t-21.5 -9.5q-24 -12 -63 -49q-23 -22 -30 -33.5t-7 -27.5q0 -30 29.5 -54t66.5 -24
q47 0 110 46.5t73 89.5q3 12 0.5 17t-15.5 9q-67 23 -99 25z" />
    <glyph glyph-name="product" unicode="&#x220f;" horiz-adv-x="747" 
d="M28 798v3q0 2 347 2h346l10 -29q7 -31 5.5 -33t-7 -32.5t-5.5 -76.5q-1 -176 -29 -400q-9 -96 -24.5 -170.5t-14.5 -115.5q0 -28 -1.5 -37t-10 -19t-15.5 -25q-12 -26 -42 -40q-20 -10 -28.5 -10.5t-21.5 6.5q-19 10 -35 32t-18 43q-4 39 18 97t24 67q3 15 10 34.5
t13.5 43.5t17 114.5t22.5 240.5q9 116 6.5 158.5t-19.5 47.5q-16 4 -216 4q-197 0 -211 -10q-5 -6 3 -14q15 -15 -4.5 -66t-18.5 -69l6 -137q5 -113 9 -145q3 -35 2.5 -125.5t-3.5 -95.5q-4 -8 -4 -57q0 -34 -3.5 -44.5t-18.5 -23.5q-19 -16 -49.5 -17.5t-43.5 13.5
q-11 13 -11.5 39t10.5 93q9 59 8.5 183t-10.5 204q-8 70 -10.5 167.5t4.5 106.5q4 5 7 26.5t4 44.5z" />
    <glyph glyph-name="radical" unicode="&#x221a;" horiz-adv-x="785" 
d="M634 783l2 2q0 13 9 15t62 2q50 0 60.5 -2t10.5 -13q0 -8 -14.5 -32.5t-41 -65.5t-43.5 -72q-26 -47 -50 -82q-15 -21 -78.5 -145t-63.5 -132q0 -3 -4 -8.5t-13 -22t-18 -41.5q-15 -38 -28 -60q-17 -28 -40.5 -80t-23.5 -63q0 -16 -17 -44q-15 -26 -37 -34t-42 6
t-37.5 47t-16.5 55q2 29 -12.5 80t-30.5 88.5t-20 37.5t-9.5 -16t-13 -31.5t-26.5 -22t-50 13.5q-23 14 -23 32q0 17 -8 21q-11 7 -2.5 34t29.5 52q21 26 31 52.5t16 40t24 18.5q24 7 52.5 -8t43.5 -36.5t5 -31.5q-8 -8 -7 -26.5t10 -30.5q10 -14 10 -23q0 -5 18 -34.5
t21 -45.5q5 -25 15 -29.5t20 12.5q25 47 71.5 144.5t46.5 103.5q0 3 7.5 13.5t23 35t30.5 53.5q19 37 39 67.5t24 38.5q2 5 26 47.5t34 63.5q6 13 12.5 22.5t9.5 12.5t5 8t2 13z" />
    <glyph glyph-name="infinity" unicode="&#x221e;" horiz-adv-x="818" 
d="M515 539l-2 2q19 13 56.5 23t93 4t93.5 -41q19 -17 27 -36.5t18 -69.5q7 -35 6.5 -48.5t-7.5 -30.5q-39 -91 -104 -138q-20 -15 -33.5 -18t-57.5 -2q-45 1 -109.5 13.5t-76.5 23.5q-9 8 -17 5t-8 -15q0 -15 -19 -55q-13 -26 -23.5 -36.5t-40.5 -25.5q-43 -21 -98.5 -31.5
t-63.5 1.5q-3 7 -18 7q-14 0 -44.5 21t-52.5 46l-23 26v99q0 78 7 107t28 40q24 12 154 123q22 19 33.5 24t31.5 4q32 -2 46 -14q13 -12 23.5 -31.5t10.5 -32.5q0 -18 9.5 -22.5t24.5 5.5q13 9 68.5 37t67.5 36zM647 339l-1 2q25 28 30 58.5t-2.5 47.5t-15.5 16
q-18 -2 -37 -8.5t-31.5 -13t-36 -20t-36.5 -20.5q-14 -8 -38 -34t-24 -34q0 -14 35.5 -25t83 -4.5t73.5 35.5zM262 411l2 -3q0 34 -48 -17q-48 -50 -67.5 -81.5t-24.5 -67.5q-3 -21 -0.5 -28.5t16.5 -18.5q21 -16 38 -12q16 4 33 18.5t17 24.5q0 9 9 13q8 3 27 42.5t23 61.5
q3 21 -11 41.5t-14 26.5z" />
    <glyph glyph-name="integral" unicode="&#x222b;" horiz-adv-x="520" 
d="M233 787l4 4q7 9 28 11t99 2h116l18 -24q12 -16 14.5 -24.5t-1.5 -23.5q-7 -24 -25 -34q-11 -6 -17.5 -6.5t-11 2.5t-19.5 12t-33 17q-16 7 -22.5 6.5t-18.5 -7.5q-17 -10 -34 -44q-13 -27 -15.5 -68.5t-3.5 -119.5t-9 -152q-6 -58 -4 -106t16 -196q6 -58 -47 -128
q-16 -22 -28 -31.5t-32 -14.5q-108 -30 -176 41q-14 15 -16.5 27.5t-1.5 61.5l2 68l22 9q15 6 22.5 5t23.5 -11q25 -15 43 -37l19 -22l10 25q10 25 11 180t4 159q3 5 7 143q3 127 7.5 164t20.5 63q17 28 17 32t11 17z" />
    <glyph glyph-name="approxequal" unicode="&#x2248;" horiz-adv-x="795" 
d="M618 289v-1q18 21 30.5 30t22 10.5t10.5 1.5q3 -1 8 -2.5t17 -8t21.5 -14.5t17.5 -22.5t8 -31.5q0 -13 -56.5 -69.5t-79.5 -67.5l-48 -23q-59 -28 -124 -20q-26 3 -38.5 10t-37.5 33q-15 15 -28.5 30t-20 23.5t-14.5 17t-10.5 10.5t-9 5t-9.5 -1q-17 -5 -53.5 -33
t-53.5 -49q-31 -36 -64 -35.5t-60 37.5q-11 14 -13 23.5t2 28.5q4 20 14.5 31t51.5 39q127 85 169 85q61 0 148 -102q21 -25 41.5 -26t59.5 19q48 25 61.5 34.5t37.5 37.5zM137 568l-1 1q52 43 67.5 51t35.5 6q26 -2 68 -22t62 -40q40 -39 76.5 -69t44.5 -30q13 0 66 39.5
t71 62.5q20 25 36 36q12 8 18 7.5t19 -9.5q31 -20 41.5 -33.5t10.5 -33.5q0 -17 -6 -27t-27 -29l-59 -53q-26 -23 -96 -66q-39 -24 -80 -24q-23 0 -36.5 9.5t-62.5 61.5q-56 58 -83 79.5t-45 21.5q-16 0 -69 -40q-59 -46 -72 -53.5t-31 -9.5q-25 -1 -39.5 14.5t-14.5 44.5
q0 31 16 38q15 7 90 67z" />
    <glyph glyph-name="notequal" unicode="&#x2260;" horiz-adv-x="592" 
d="M302 765h-4q34 6 69.5 -15t35.5 -47q0 -29 -25 -137q-3 -13 1 -14.5t29 2.5q92 12 132 -15q17 -12 22 -20t5 -25q0 -32 -18.5 -41.5t-88.5 -11.5q-83 -3 -101 -12.5t-34 -59.5q-15 -47 -9 -56t43 4q27 10 62.5 6.5t54.5 -17.5q16 -10 22.5 -35.5t-1.5 -41.5
q-6 -11 -36.5 -17.5t-150.5 -23.5q-26 -4 -34 -11t-27 -44q-21 -40 -33 -74t-25 -62q-20 -45 -20 -55q0 -13 -19.5 -24t-47.5 -4.5t-47 37.5q-13 23 -9 43.5t38 96.5l35 82l-18 7q-12 5 -36 12q-15 4 -33.5 29t-18.5 41q0 31 35.5 46t69.5 -2q29 -15 42.5 -4t24.5 57
q13 52 7 58q-4 4 -52.5 -2.5t-54.5 -4.5q-8 3 -29 7q-16 4 -32 27.5t-16 43.5q0 26 15.5 34t63.5 7q103 -2 122.5 1t27.5 19q19 36 24 91t10.5 88t28.5 37z" />
    <glyph glyph-name="lessequal" unicode="&#x2264;" horiz-adv-x="661" 
d="M438 43l1 1q128 20 179 -14q30 -21 30 -24q9 -47 -5 -69q-11 -17 -29 -27.5t-26 -4.5q-5 4 -21 5t-43 -0.5t-56.5 -4t-73 -5.5t-81.5 -4q-113 -4 -160 -7q-68 -5 -101 14.5t-41 71.5q-3 17 -0.5 25.5t13.5 18.5q18 17 42 15q63 -3 199.5 0.5t172.5 8.5zM434 689l1 1
q10 26 47 36.5t62 -6.5q13 -8 23 -29t10 -39q0 -9 -142 -153t-140 -152q2 -11 51.5 -34t114.5 -51t89 -43q21 -13 28 -22t10 -27q4 -23 -5 -45.5t-24 -28.5q-30 -11 -60 2t-53 32t-33 19q-12 0 -87 37.5t-111 61.5q-16 11 -36.5 22.5t-28 16.5t-17.5 15t-19 26l-20 34l14 28
q14 28 23 28q5 0 13.5 7t35.5 30.5t58 47.5q60 47 124.5 108t71.5 78z" />
    <glyph glyph-name="greaterequal" unicode="&#x2265;" horiz-adv-x="576" 
d="M407 3h-3q74 11 93 9t41 -23q19 -17 23 -26.5t4 -37.5q0 -39 -9 -48q-6 -6 -41.5 -9t-98 -7.5t-109.5 -12.5q-41 -7 -73 -11.5t-54 -7.5t-39.5 -3.5t-26.5 -1t-17.5 1t-11 2t-8.5 3.5t-7 4q-26 13 -44 39.5t-18 52.5q0 31 39 47.5t78 2.5q22 -6 65.5 -2t216.5 28z
M125 667l-3 1q17 17 23.5 18.5t35.5 -8.5q24 -8 51 -33.5t28 -39.5q1 -11 24.5 -38.5t70 -57.5t95.5 -36q32 -4 52.5 -17.5t39.5 -43.5q17 -27 13 -51q-4 -22 -22.5 -41.5t-38.5 -24.5q-19 -4 -29 -15q-14 -17 -113 -74t-134 -67q-15 -5 -37 -19q-17 -12 -42.5 -10.5
t-39.5 15.5q-8 8 -18 37.5t-10 45.5q0 19 46.5 51t75.5 32q6 0 9 1.5t7 4.5t19 11.5t38 19.5q50 23 60 35q6 8 4 12t-15 12q-13 9 -67 54t-80 61q-27 17 -38 29.5t-24 40.5q-13 27 -8.5 48.5t27.5 46.5z" />
    <glyph glyph-name="Oslash" horiz-adv-x="705" 
d="M510 903q10 21 28.5 30t35.5 5t32 -15.5t18 -30.5t-6 -41l-43 -88q18 -8 56 -48q74 -81 63 -163q-10 -81 -34.5 -131.5t-78.5 -106.5q-76 -78 -166 -144t-121 -66q-13 0 -20 -7t-30 -7l-38 -78q-10 -21 -28.5 -30t-35.5 -5t-32 15.5t-18 30.5t6 41l26 53q-33 18 -53 40
t-38 60q-19 38 -21.5 54t0.5 62q4 54 20 96t55 100q22 32 75.5 88t62.5 56q3 0 26.5 22t66.5 47.5t93 32.5l1 -1q25 3 38 8zM572 638l-1 -1q-8 13 -12.5 17t-8 0t-8.5 -17q-7 -20 -29 -26q-10 -2 -14 -2l-180 -366q72 41 141 100t91 103q61 123 21 192zM129 371
q-26 -36 -11 -84.5t54 -71.5l207 421q-17 -7 -41 -23q-29 -20 -35 -20q-12 0 -88 -85t-77 -114q0 -10 -9 -23z" />
    </font>
</defs>
</svg>
